<mxfile host="app.diagrams.net" modified="2023-08-24T19:23:09.117Z" agent="Mozilla/5.0 (Windows NT 10.0; Win64; x64) AppleWebKit/537.36 (KHTML, like Gecko) Chrome/116.0.0.0 Safari/537.36" etag="A38EMQVntdQ5VEcAMhkI" version="21.6.8" type="device" pages="8">
  <diagram id="Ace--KO3j-UnSApe6vie" name="Page-3">
    <mxGraphModel dx="1050" dy="534" grid="1" gridSize="10" guides="1" tooltips="1" connect="1" arrows="1" fold="1" page="1" pageScale="1" pageWidth="1169" pageHeight="827" math="0" shadow="0">
      <root>
        <mxCell id="0" />
        <mxCell id="1" parent="0" />
        <mxCell id="1tPZArX6KOF_OJYh2Ply-1" value="" style="shape=table;startSize=0;container=1;collapsible=0;childLayout=tableLayout;strokeColor=#B5B5B5;" parent="1" vertex="1">
          <mxGeometry x="40" y="40" width="240" height="240.0000000000001" as="geometry" />
        </mxCell>
        <mxCell id="1tPZArX6KOF_OJYh2Ply-2" value="" style="shape=tableRow;horizontal=0;startSize=0;swimlaneHead=0;swimlaneBody=0;strokeColor=inherit;top=0;left=0;bottom=0;right=0;collapsible=0;dropTarget=0;fillColor=none;points=[[0,0.5],[1,0.5]];portConstraint=eastwest;" parent="1tPZArX6KOF_OJYh2Ply-1" vertex="1">
          <mxGeometry width="240" height="40" as="geometry" />
        </mxCell>
        <mxCell id="1tPZArX6KOF_OJYh2Ply-3" value="" style="shape=partialRectangle;html=1;whiteSpace=wrap;connectable=0;strokeColor=inherit;overflow=hidden;fillColor=none;top=0;left=0;bottom=0;right=0;pointerEvents=1;" parent="1tPZArX6KOF_OJYh2Ply-2" vertex="1">
          <mxGeometry width="40" height="40" as="geometry">
            <mxRectangle width="40" height="40" as="alternateBounds" />
          </mxGeometry>
        </mxCell>
        <mxCell id="1tPZArX6KOF_OJYh2Ply-4" value="" style="shape=partialRectangle;html=1;whiteSpace=wrap;connectable=0;strokeColor=inherit;overflow=hidden;fillColor=none;top=0;left=0;bottom=0;right=0;pointerEvents=1;" parent="1tPZArX6KOF_OJYh2Ply-2" vertex="1">
          <mxGeometry x="40" width="40" height="40" as="geometry">
            <mxRectangle width="40" height="40" as="alternateBounds" />
          </mxGeometry>
        </mxCell>
        <mxCell id="1tPZArX6KOF_OJYh2Ply-5" value="" style="shape=partialRectangle;html=1;whiteSpace=wrap;connectable=0;strokeColor=inherit;overflow=hidden;fillColor=none;top=0;left=0;bottom=0;right=0;pointerEvents=1;" parent="1tPZArX6KOF_OJYh2Ply-2" vertex="1">
          <mxGeometry x="80" width="40" height="40" as="geometry">
            <mxRectangle width="40" height="40" as="alternateBounds" />
          </mxGeometry>
        </mxCell>
        <mxCell id="1tPZArX6KOF_OJYh2Ply-6" value="" style="shape=partialRectangle;html=1;whiteSpace=wrap;connectable=0;strokeColor=inherit;overflow=hidden;fillColor=none;top=0;left=0;bottom=0;right=0;pointerEvents=1;" parent="1tPZArX6KOF_OJYh2Ply-2" vertex="1">
          <mxGeometry x="120" width="40" height="40" as="geometry">
            <mxRectangle width="40" height="40" as="alternateBounds" />
          </mxGeometry>
        </mxCell>
        <mxCell id="1tPZArX6KOF_OJYh2Ply-7" value="" style="shape=partialRectangle;html=1;whiteSpace=wrap;connectable=0;strokeColor=inherit;overflow=hidden;fillColor=none;top=0;left=0;bottom=0;right=0;pointerEvents=1;" parent="1tPZArX6KOF_OJYh2Ply-2" vertex="1">
          <mxGeometry x="160" width="40" height="40" as="geometry">
            <mxRectangle width="40" height="40" as="alternateBounds" />
          </mxGeometry>
        </mxCell>
        <mxCell id="1tPZArX6KOF_OJYh2Ply-8" value="" style="shape=partialRectangle;html=1;whiteSpace=wrap;connectable=0;strokeColor=inherit;overflow=hidden;fillColor=none;top=0;left=0;bottom=0;right=0;pointerEvents=1;" parent="1tPZArX6KOF_OJYh2Ply-2" vertex="1">
          <mxGeometry x="200" width="40" height="40" as="geometry">
            <mxRectangle width="40" height="40" as="alternateBounds" />
          </mxGeometry>
        </mxCell>
        <mxCell id="1tPZArX6KOF_OJYh2Ply-13" value="" style="shape=tableRow;horizontal=0;startSize=0;swimlaneHead=0;swimlaneBody=0;strokeColor=inherit;top=0;left=0;bottom=0;right=0;collapsible=0;dropTarget=0;fillColor=none;points=[[0,0.5],[1,0.5]];portConstraint=eastwest;" parent="1tPZArX6KOF_OJYh2Ply-1" vertex="1">
          <mxGeometry y="40" width="240" height="40" as="geometry" />
        </mxCell>
        <mxCell id="1tPZArX6KOF_OJYh2Ply-14" value="" style="shape=partialRectangle;html=1;whiteSpace=wrap;connectable=0;strokeColor=inherit;overflow=hidden;fillColor=none;top=0;left=0;bottom=0;right=0;pointerEvents=1;" parent="1tPZArX6KOF_OJYh2Ply-13" vertex="1">
          <mxGeometry width="40" height="40" as="geometry">
            <mxRectangle width="40" height="40" as="alternateBounds" />
          </mxGeometry>
        </mxCell>
        <mxCell id="1tPZArX6KOF_OJYh2Ply-15" value="" style="shape=partialRectangle;html=1;whiteSpace=wrap;connectable=0;strokeColor=inherit;overflow=hidden;fillColor=none;top=0;left=0;bottom=0;right=0;pointerEvents=1;" parent="1tPZArX6KOF_OJYh2Ply-13" vertex="1">
          <mxGeometry x="40" width="40" height="40" as="geometry">
            <mxRectangle width="40" height="40" as="alternateBounds" />
          </mxGeometry>
        </mxCell>
        <mxCell id="1tPZArX6KOF_OJYh2Ply-16" value="" style="shape=partialRectangle;html=1;whiteSpace=wrap;connectable=0;strokeColor=inherit;overflow=hidden;fillColor=none;top=0;left=0;bottom=0;right=0;pointerEvents=1;" parent="1tPZArX6KOF_OJYh2Ply-13" vertex="1">
          <mxGeometry x="80" width="40" height="40" as="geometry">
            <mxRectangle width="40" height="40" as="alternateBounds" />
          </mxGeometry>
        </mxCell>
        <mxCell id="1tPZArX6KOF_OJYh2Ply-17" value="" style="shape=partialRectangle;html=1;whiteSpace=wrap;connectable=0;strokeColor=inherit;overflow=hidden;fillColor=none;top=0;left=0;bottom=0;right=0;pointerEvents=1;" parent="1tPZArX6KOF_OJYh2Ply-13" vertex="1">
          <mxGeometry x="120" width="40" height="40" as="geometry">
            <mxRectangle width="40" height="40" as="alternateBounds" />
          </mxGeometry>
        </mxCell>
        <mxCell id="1tPZArX6KOF_OJYh2Ply-18" value="" style="shape=partialRectangle;html=1;whiteSpace=wrap;connectable=0;strokeColor=inherit;overflow=hidden;fillColor=none;top=0;left=0;bottom=0;right=0;pointerEvents=1;" parent="1tPZArX6KOF_OJYh2Ply-13" vertex="1">
          <mxGeometry x="160" width="40" height="40" as="geometry">
            <mxRectangle width="40" height="40" as="alternateBounds" />
          </mxGeometry>
        </mxCell>
        <mxCell id="1tPZArX6KOF_OJYh2Ply-19" value="" style="shape=partialRectangle;html=1;whiteSpace=wrap;connectable=0;strokeColor=inherit;overflow=hidden;fillColor=none;top=0;left=0;bottom=0;right=0;pointerEvents=1;" parent="1tPZArX6KOF_OJYh2Ply-13" vertex="1">
          <mxGeometry x="200" width="40" height="40" as="geometry">
            <mxRectangle width="40" height="40" as="alternateBounds" />
          </mxGeometry>
        </mxCell>
        <mxCell id="1tPZArX6KOF_OJYh2Ply-24" value="" style="shape=tableRow;horizontal=0;startSize=0;swimlaneHead=0;swimlaneBody=0;strokeColor=inherit;top=0;left=0;bottom=0;right=0;collapsible=0;dropTarget=0;fillColor=none;points=[[0,0.5],[1,0.5]];portConstraint=eastwest;" parent="1tPZArX6KOF_OJYh2Ply-1" vertex="1">
          <mxGeometry y="80" width="240" height="40" as="geometry" />
        </mxCell>
        <mxCell id="1tPZArX6KOF_OJYh2Ply-25" value="" style="shape=partialRectangle;html=1;whiteSpace=wrap;connectable=0;strokeColor=inherit;overflow=hidden;fillColor=none;top=0;left=0;bottom=0;right=0;pointerEvents=1;" parent="1tPZArX6KOF_OJYh2Ply-24" vertex="1">
          <mxGeometry width="40" height="40" as="geometry">
            <mxRectangle width="40" height="40" as="alternateBounds" />
          </mxGeometry>
        </mxCell>
        <mxCell id="1tPZArX6KOF_OJYh2Ply-26" value="" style="shape=partialRectangle;html=1;whiteSpace=wrap;connectable=0;strokeColor=inherit;overflow=hidden;fillColor=none;top=0;left=0;bottom=0;right=0;pointerEvents=1;" parent="1tPZArX6KOF_OJYh2Ply-24" vertex="1">
          <mxGeometry x="40" width="40" height="40" as="geometry">
            <mxRectangle width="40" height="40" as="alternateBounds" />
          </mxGeometry>
        </mxCell>
        <mxCell id="1tPZArX6KOF_OJYh2Ply-27" value="" style="shape=partialRectangle;html=1;whiteSpace=wrap;connectable=0;strokeColor=inherit;overflow=hidden;fillColor=none;top=0;left=0;bottom=0;right=0;pointerEvents=1;" parent="1tPZArX6KOF_OJYh2Ply-24" vertex="1">
          <mxGeometry x="80" width="40" height="40" as="geometry">
            <mxRectangle width="40" height="40" as="alternateBounds" />
          </mxGeometry>
        </mxCell>
        <mxCell id="1tPZArX6KOF_OJYh2Ply-28" value="" style="shape=partialRectangle;html=1;whiteSpace=wrap;connectable=0;strokeColor=inherit;overflow=hidden;fillColor=none;top=0;left=0;bottom=0;right=0;pointerEvents=1;" parent="1tPZArX6KOF_OJYh2Ply-24" vertex="1">
          <mxGeometry x="120" width="40" height="40" as="geometry">
            <mxRectangle width="40" height="40" as="alternateBounds" />
          </mxGeometry>
        </mxCell>
        <mxCell id="1tPZArX6KOF_OJYh2Ply-29" value="" style="shape=partialRectangle;html=1;whiteSpace=wrap;connectable=0;strokeColor=#314354;overflow=hidden;fillColor=#647687;top=0;left=0;bottom=0;right=0;pointerEvents=1;fontColor=#ffffff;" parent="1tPZArX6KOF_OJYh2Ply-24" vertex="1">
          <mxGeometry x="160" width="40" height="40" as="geometry">
            <mxRectangle width="40" height="40" as="alternateBounds" />
          </mxGeometry>
        </mxCell>
        <mxCell id="1tPZArX6KOF_OJYh2Ply-30" value="" style="shape=partialRectangle;html=1;whiteSpace=wrap;connectable=0;strokeColor=inherit;overflow=hidden;fillColor=none;top=0;left=0;bottom=0;right=0;pointerEvents=1;" parent="1tPZArX6KOF_OJYh2Ply-24" vertex="1">
          <mxGeometry x="200" width="40" height="40" as="geometry">
            <mxRectangle width="40" height="40" as="alternateBounds" />
          </mxGeometry>
        </mxCell>
        <mxCell id="1tPZArX6KOF_OJYh2Ply-35" value="" style="shape=tableRow;horizontal=0;startSize=0;swimlaneHead=0;swimlaneBody=0;strokeColor=inherit;top=0;left=0;bottom=0;right=0;collapsible=0;dropTarget=0;fillColor=none;points=[[0,0.5],[1,0.5]];portConstraint=eastwest;" parent="1tPZArX6KOF_OJYh2Ply-1" vertex="1">
          <mxGeometry y="120" width="240" height="40" as="geometry" />
        </mxCell>
        <mxCell id="1tPZArX6KOF_OJYh2Ply-36" value="" style="shape=partialRectangle;html=1;whiteSpace=wrap;connectable=0;strokeColor=inherit;overflow=hidden;fillColor=none;top=0;left=0;bottom=0;right=0;pointerEvents=1;" parent="1tPZArX6KOF_OJYh2Ply-35" vertex="1">
          <mxGeometry width="40" height="40" as="geometry">
            <mxRectangle width="40" height="40" as="alternateBounds" />
          </mxGeometry>
        </mxCell>
        <mxCell id="1tPZArX6KOF_OJYh2Ply-37" value="" style="shape=partialRectangle;html=1;whiteSpace=wrap;connectable=0;strokeColor=inherit;overflow=hidden;fillColor=none;top=0;left=0;bottom=0;right=0;pointerEvents=1;" parent="1tPZArX6KOF_OJYh2Ply-35" vertex="1">
          <mxGeometry x="40" width="40" height="40" as="geometry">
            <mxRectangle width="40" height="40" as="alternateBounds" />
          </mxGeometry>
        </mxCell>
        <mxCell id="1tPZArX6KOF_OJYh2Ply-38" value="" style="shape=partialRectangle;html=1;whiteSpace=wrap;connectable=0;strokeColor=inherit;overflow=hidden;fillColor=none;top=0;left=0;bottom=0;right=0;pointerEvents=1;" parent="1tPZArX6KOF_OJYh2Ply-35" vertex="1">
          <mxGeometry x="80" width="40" height="40" as="geometry">
            <mxRectangle width="40" height="40" as="alternateBounds" />
          </mxGeometry>
        </mxCell>
        <mxCell id="1tPZArX6KOF_OJYh2Ply-39" value="" style="shape=partialRectangle;html=1;whiteSpace=wrap;connectable=0;strokeColor=inherit;overflow=hidden;fillColor=none;top=0;left=0;bottom=0;right=0;pointerEvents=1;" parent="1tPZArX6KOF_OJYh2Ply-35" vertex="1">
          <mxGeometry x="120" width="40" height="40" as="geometry">
            <mxRectangle width="40" height="40" as="alternateBounds" />
          </mxGeometry>
        </mxCell>
        <mxCell id="1tPZArX6KOF_OJYh2Ply-40" value="" style="shape=partialRectangle;html=1;whiteSpace=wrap;connectable=0;strokeColor=#314354;overflow=hidden;fillColor=#647687;top=0;left=0;bottom=0;right=0;pointerEvents=1;fontColor=#ffffff;" parent="1tPZArX6KOF_OJYh2Ply-35" vertex="1">
          <mxGeometry x="160" width="40" height="40" as="geometry">
            <mxRectangle width="40" height="40" as="alternateBounds" />
          </mxGeometry>
        </mxCell>
        <mxCell id="1tPZArX6KOF_OJYh2Ply-41" value="" style="shape=partialRectangle;html=1;whiteSpace=wrap;connectable=0;strokeColor=inherit;overflow=hidden;fillColor=none;top=0;left=0;bottom=0;right=0;pointerEvents=1;" parent="1tPZArX6KOF_OJYh2Ply-35" vertex="1">
          <mxGeometry x="200" width="40" height="40" as="geometry">
            <mxRectangle width="40" height="40" as="alternateBounds" />
          </mxGeometry>
        </mxCell>
        <mxCell id="1tPZArX6KOF_OJYh2Ply-46" value="" style="shape=tableRow;horizontal=0;startSize=0;swimlaneHead=0;swimlaneBody=0;strokeColor=inherit;top=0;left=0;bottom=0;right=0;collapsible=0;dropTarget=0;fillColor=none;points=[[0,0.5],[1,0.5]];portConstraint=eastwest;" parent="1tPZArX6KOF_OJYh2Ply-1" vertex="1">
          <mxGeometry y="160" width="240" height="40" as="geometry" />
        </mxCell>
        <mxCell id="1tPZArX6KOF_OJYh2Ply-47" value="" style="shape=partialRectangle;html=1;whiteSpace=wrap;connectable=0;strokeColor=inherit;overflow=hidden;fillColor=none;top=0;left=0;bottom=0;right=0;pointerEvents=1;" parent="1tPZArX6KOF_OJYh2Ply-46" vertex="1">
          <mxGeometry width="40" height="40" as="geometry">
            <mxRectangle width="40" height="40" as="alternateBounds" />
          </mxGeometry>
        </mxCell>
        <mxCell id="1tPZArX6KOF_OJYh2Ply-48" value="" style="shape=partialRectangle;html=1;whiteSpace=wrap;connectable=0;strokeColor=#314354;overflow=hidden;fillColor=#647687;top=0;left=0;bottom=0;right=0;pointerEvents=1;fontColor=#ffffff;" parent="1tPZArX6KOF_OJYh2Ply-46" vertex="1">
          <mxGeometry x="40" width="40" height="40" as="geometry">
            <mxRectangle width="40" height="40" as="alternateBounds" />
          </mxGeometry>
        </mxCell>
        <mxCell id="1tPZArX6KOF_OJYh2Ply-49" value="" style="shape=partialRectangle;html=1;whiteSpace=wrap;connectable=0;strokeColor=#314354;overflow=hidden;fillColor=#647687;top=0;left=0;bottom=0;right=0;pointerEvents=1;fontColor=#ffffff;" parent="1tPZArX6KOF_OJYh2Ply-46" vertex="1">
          <mxGeometry x="80" width="40" height="40" as="geometry">
            <mxRectangle width="40" height="40" as="alternateBounds" />
          </mxGeometry>
        </mxCell>
        <mxCell id="1tPZArX6KOF_OJYh2Ply-50" value="" style="shape=partialRectangle;html=1;whiteSpace=wrap;connectable=0;strokeColor=#314354;overflow=hidden;fillColor=#647687;top=0;left=0;bottom=0;right=0;pointerEvents=1;fontColor=#ffffff;" parent="1tPZArX6KOF_OJYh2Ply-46" vertex="1">
          <mxGeometry x="120" width="40" height="40" as="geometry">
            <mxRectangle width="40" height="40" as="alternateBounds" />
          </mxGeometry>
        </mxCell>
        <mxCell id="1tPZArX6KOF_OJYh2Ply-51" value="" style="shape=partialRectangle;html=1;whiteSpace=wrap;connectable=0;strokeColor=#314354;overflow=hidden;fillColor=#647687;top=0;left=0;bottom=0;right=0;pointerEvents=1;fontColor=#ffffff;" parent="1tPZArX6KOF_OJYh2Ply-46" vertex="1">
          <mxGeometry x="160" width="40" height="40" as="geometry">
            <mxRectangle width="40" height="40" as="alternateBounds" />
          </mxGeometry>
        </mxCell>
        <mxCell id="1tPZArX6KOF_OJYh2Ply-52" value="" style="shape=partialRectangle;html=1;whiteSpace=wrap;connectable=0;strokeColor=inherit;overflow=hidden;fillColor=none;top=0;left=0;bottom=0;right=0;pointerEvents=1;" parent="1tPZArX6KOF_OJYh2Ply-46" vertex="1">
          <mxGeometry x="200" width="40" height="40" as="geometry">
            <mxRectangle width="40" height="40" as="alternateBounds" />
          </mxGeometry>
        </mxCell>
        <mxCell id="1tPZArX6KOF_OJYh2Ply-57" value="" style="shape=tableRow;horizontal=0;startSize=0;swimlaneHead=0;swimlaneBody=0;strokeColor=inherit;top=0;left=0;bottom=0;right=0;collapsible=0;dropTarget=0;fillColor=none;points=[[0,0.5],[1,0.5]];portConstraint=eastwest;" parent="1tPZArX6KOF_OJYh2Ply-1" vertex="1">
          <mxGeometry y="200" width="240" height="40" as="geometry" />
        </mxCell>
        <mxCell id="1tPZArX6KOF_OJYh2Ply-58" value="" style="shape=partialRectangle;html=1;whiteSpace=wrap;connectable=0;strokeColor=inherit;overflow=hidden;fillColor=none;top=0;left=0;bottom=0;right=0;pointerEvents=1;" parent="1tPZArX6KOF_OJYh2Ply-57" vertex="1">
          <mxGeometry width="40" height="40" as="geometry">
            <mxRectangle width="40" height="40" as="alternateBounds" />
          </mxGeometry>
        </mxCell>
        <mxCell id="1tPZArX6KOF_OJYh2Ply-59" value="" style="shape=partialRectangle;html=1;whiteSpace=wrap;connectable=0;strokeColor=inherit;overflow=hidden;fillColor=none;top=0;left=0;bottom=0;right=0;pointerEvents=1;" parent="1tPZArX6KOF_OJYh2Ply-57" vertex="1">
          <mxGeometry x="40" width="40" height="40" as="geometry">
            <mxRectangle width="40" height="40" as="alternateBounds" />
          </mxGeometry>
        </mxCell>
        <mxCell id="1tPZArX6KOF_OJYh2Ply-60" value="" style="shape=partialRectangle;html=1;whiteSpace=wrap;connectable=0;strokeColor=inherit;overflow=hidden;fillColor=none;top=0;left=0;bottom=0;right=0;pointerEvents=1;" parent="1tPZArX6KOF_OJYh2Ply-57" vertex="1">
          <mxGeometry x="80" width="40" height="40" as="geometry">
            <mxRectangle width="40" height="40" as="alternateBounds" />
          </mxGeometry>
        </mxCell>
        <mxCell id="1tPZArX6KOF_OJYh2Ply-61" value="" style="shape=partialRectangle;html=1;whiteSpace=wrap;connectable=0;strokeColor=inherit;overflow=hidden;fillColor=none;top=0;left=0;bottom=0;right=0;pointerEvents=1;" parent="1tPZArX6KOF_OJYh2Ply-57" vertex="1">
          <mxGeometry x="120" width="40" height="40" as="geometry">
            <mxRectangle width="40" height="40" as="alternateBounds" />
          </mxGeometry>
        </mxCell>
        <mxCell id="1tPZArX6KOF_OJYh2Ply-62" value="" style="shape=partialRectangle;html=1;whiteSpace=wrap;connectable=0;strokeColor=inherit;overflow=hidden;fillColor=none;top=0;left=0;bottom=0;right=0;pointerEvents=1;" parent="1tPZArX6KOF_OJYh2Ply-57" vertex="1">
          <mxGeometry x="160" width="40" height="40" as="geometry">
            <mxRectangle width="40" height="40" as="alternateBounds" />
          </mxGeometry>
        </mxCell>
        <mxCell id="1tPZArX6KOF_OJYh2Ply-63" value="" style="shape=partialRectangle;html=1;whiteSpace=wrap;connectable=0;strokeColor=inherit;overflow=hidden;fillColor=none;top=0;left=0;bottom=0;right=0;pointerEvents=1;" parent="1tPZArX6KOF_OJYh2Ply-57" vertex="1">
          <mxGeometry x="200" width="40" height="40" as="geometry">
            <mxRectangle width="40" height="40" as="alternateBounds" />
          </mxGeometry>
        </mxCell>
        <mxCell id="1tPZArX6KOF_OJYh2Ply-132" value="" style="endArrow=none;dashed=1;html=1;rounded=0;dashPattern=1 1;" parent="1" source="1tPZArX6KOF_OJYh2Ply-134" edge="1">
          <mxGeometry width="50" height="50" relative="1" as="geometry">
            <mxPoint x="180" y="226" as="sourcePoint" />
            <mxPoint x="200" y="123" as="targetPoint" />
          </mxGeometry>
        </mxCell>
        <mxCell id="1tPZArX6KOF_OJYh2Ply-133" value="" style="endArrow=baseDash;html=1;rounded=0;startSize=3;movable=1;resizable=1;rotatable=1;deletable=1;editable=1;locked=0;connectable=1;endSize=2;endFill=0;" parent="1" edge="1">
          <mxGeometry width="50" height="50" relative="1" as="geometry">
            <mxPoint x="145" y="128.00000000000003" as="sourcePoint" />
            <mxPoint x="117" y="142" as="targetPoint" />
          </mxGeometry>
        </mxCell>
        <mxCell id="1tPZArX6KOF_OJYh2Ply-138" value="" style="endArrow=none;html=1;rounded=0;startSize=3;movable=1;resizable=1;rotatable=1;deletable=1;editable=1;locked=0;connectable=1;endSize=2;endFill=0;startArrow=baseDash;startFill=0;" parent="1" edge="1">
          <mxGeometry width="50" height="50" relative="1" as="geometry">
            <mxPoint x="173" y="114.00000000000003" as="sourcePoint" />
            <mxPoint x="145" y="128" as="targetPoint" />
          </mxGeometry>
        </mxCell>
        <mxCell id="1tPZArX6KOF_OJYh2Ply-142" value="" style="endArrow=none;dashed=1;html=1;rounded=0;dashPattern=1 1;" parent="1" target="1tPZArX6KOF_OJYh2Ply-134" edge="1">
          <mxGeometry width="50" height="50" relative="1" as="geometry">
            <mxPoint x="100" y="200" as="sourcePoint" />
            <mxPoint x="107" y="115" as="targetPoint" />
          </mxGeometry>
        </mxCell>
        <mxCell id="1tPZArX6KOF_OJYh2Ply-144" value="" style="endArrow=none;dashed=1;html=1;rounded=0;dashPattern=1 1;" parent="1" source="1tPZArX6KOF_OJYh2Ply-134" edge="1">
          <mxGeometry width="50" height="50" relative="1" as="geometry">
            <mxPoint x="140" y="110" as="sourcePoint" />
            <mxPoint x="200" y="135" as="targetPoint" />
          </mxGeometry>
        </mxCell>
        <mxCell id="1tPZArX6KOF_OJYh2Ply-145" value="" style="endArrow=none;dashed=1;html=1;rounded=0;exitX=0.576;exitY=0.744;exitDx=0;exitDy=0;exitPerimeter=0;dashPattern=1 1;" parent="1" source="1tPZArX6KOF_OJYh2Ply-134" edge="1">
          <mxGeometry width="50" height="50" relative="1" as="geometry">
            <mxPoint x="140" y="110" as="sourcePoint" />
            <mxPoint x="200" y="153" as="targetPoint" />
          </mxGeometry>
        </mxCell>
        <mxCell id="1tPZArX6KOF_OJYh2Ply-146" value="" style="endArrow=none;dashed=1;html=1;rounded=0;dashPattern=1 1;" parent="1" edge="1">
          <mxGeometry width="50" height="50" relative="1" as="geometry">
            <mxPoint x="130" y="100" as="sourcePoint" />
            <mxPoint x="200" y="178" as="targetPoint" />
          </mxGeometry>
        </mxCell>
        <mxCell id="1tPZArX6KOF_OJYh2Ply-147" value="" style="endArrow=none;dashed=1;html=1;rounded=0;dashPattern=1 1;" parent="1" edge="1">
          <mxGeometry width="50" height="50" relative="1" as="geometry">
            <mxPoint x="130" y="100" as="sourcePoint" />
            <mxPoint x="190" y="200" as="targetPoint" />
          </mxGeometry>
        </mxCell>
        <mxCell id="1tPZArX6KOF_OJYh2Ply-148" value="" style="endArrow=none;dashed=1;html=1;rounded=0;dashPattern=1 1;" parent="1" edge="1">
          <mxGeometry width="50" height="50" relative="1" as="geometry">
            <mxPoint x="130" y="100" as="sourcePoint" />
            <mxPoint x="164" y="200" as="targetPoint" />
          </mxGeometry>
        </mxCell>
        <mxCell id="1tPZArX6KOF_OJYh2Ply-149" value="" style="endArrow=none;dashed=1;html=1;rounded=0;dashPattern=1 1;" parent="1" edge="1">
          <mxGeometry width="50" height="50" relative="1" as="geometry">
            <mxPoint x="130" y="100" as="sourcePoint" />
            <mxPoint x="140" y="200" as="targetPoint" />
          </mxGeometry>
        </mxCell>
        <mxCell id="1tPZArX6KOF_OJYh2Ply-150" value="" style="endArrow=none;dashed=1;html=1;rounded=0;dashPattern=1 1;" parent="1" edge="1">
          <mxGeometry width="50" height="50" relative="1" as="geometry">
            <mxPoint x="130" y="100" as="sourcePoint" />
            <mxPoint x="120" y="200" as="targetPoint" />
          </mxGeometry>
        </mxCell>
        <mxCell id="1tPZArX6KOF_OJYh2Ply-134" value="" style="shape=waypoint;sketch=0;fillStyle=solid;size=6;pointerEvents=1;points=[];fillColor=#e51400;resizable=0;rotatable=0;perimeter=centerPerimeter;snapToPoint=1;fontColor=#ffffff;strokeColor=#B20000;" parent="1" vertex="1">
          <mxGeometry x="120" y="90" width="20" height="20" as="geometry" />
        </mxCell>
        <mxCell id="1tPZArX6KOF_OJYh2Ply-189" value="" style="group" parent="1" vertex="1" connectable="0">
          <mxGeometry x="300" y="64" width="300" height="192" as="geometry" />
        </mxCell>
        <mxCell id="1tPZArX6KOF_OJYh2Ply-188" value="" style="rounded=0;whiteSpace=wrap;html=1;strokeColor=#000000;fillColor=#BDC8FF;" parent="1tPZArX6KOF_OJYh2Ply-189" vertex="1">
          <mxGeometry width="300" height="95" as="geometry" />
        </mxCell>
        <mxCell id="1tPZArX6KOF_OJYh2Ply-186" value="" style="rounded=0;whiteSpace=wrap;html=1;fillColor=none;" parent="1tPZArX6KOF_OJYh2Ply-189" vertex="1">
          <mxGeometry width="300" height="192" as="geometry" />
        </mxCell>
        <mxCell id="1tPZArX6KOF_OJYh2Ply-187" value="" style="rounded=0;whiteSpace=wrap;html=1;strokeColor=#000000;fillColor=#330000;" parent="1tPZArX6KOF_OJYh2Ply-189" vertex="1">
          <mxGeometry y="96" width="300" height="96" as="geometry" />
        </mxCell>
        <mxCell id="1tPZArX6KOF_OJYh2Ply-151" value="" style="rounded=0;whiteSpace=wrap;html=1;fillColor=#647687;fontColor=#ffffff;strokeColor=#000000;" parent="1tPZArX6KOF_OJYh2Ply-189" vertex="1">
          <mxGeometry y="16" width="10" height="160" as="geometry" />
        </mxCell>
        <mxCell id="1tPZArX6KOF_OJYh2Ply-152" value="" style="rounded=0;whiteSpace=wrap;html=1;fillColor=#647687;fontColor=#ffffff;strokeColor=#000000;" parent="1tPZArX6KOF_OJYh2Ply-189" vertex="1">
          <mxGeometry x="10" y="19" width="10" height="153" as="geometry" />
        </mxCell>
        <mxCell id="1tPZArX6KOF_OJYh2Ply-153" value="" style="rounded=0;whiteSpace=wrap;html=1;fillColor=#647687;fontColor=#ffffff;strokeColor=#000000;" parent="1tPZArX6KOF_OJYh2Ply-189" vertex="1">
          <mxGeometry x="20" y="22" width="10" height="147" as="geometry" />
        </mxCell>
        <mxCell id="1tPZArX6KOF_OJYh2Ply-154" value="" style="rounded=0;whiteSpace=wrap;html=1;fillColor=#647687;fontColor=#ffffff;strokeColor=#000000;" parent="1tPZArX6KOF_OJYh2Ply-189" vertex="1">
          <mxGeometry x="30" y="25" width="10" height="142" as="geometry" />
        </mxCell>
        <mxCell id="1tPZArX6KOF_OJYh2Ply-155" value="" style="rounded=0;whiteSpace=wrap;html=1;fillColor=#647687;fontColor=#ffffff;strokeColor=#000000;" parent="1tPZArX6KOF_OJYh2Ply-189" vertex="1">
          <mxGeometry x="40" y="28" width="10" height="136" as="geometry" />
        </mxCell>
        <mxCell id="1tPZArX6KOF_OJYh2Ply-156" value="" style="rounded=0;whiteSpace=wrap;html=1;fillColor=#647687;fontColor=#ffffff;strokeColor=#000000;" parent="1tPZArX6KOF_OJYh2Ply-189" vertex="1">
          <mxGeometry x="50" y="31" width="10" height="131" as="geometry" />
        </mxCell>
        <mxCell id="1tPZArX6KOF_OJYh2Ply-157" value="" style="rounded=0;whiteSpace=wrap;html=1;fillColor=#647687;fontColor=#ffffff;strokeColor=#000000;" parent="1tPZArX6KOF_OJYh2Ply-189" vertex="1">
          <mxGeometry x="60" y="33" width="10" height="126" as="geometry" />
        </mxCell>
        <mxCell id="1tPZArX6KOF_OJYh2Ply-158" value="" style="rounded=0;whiteSpace=wrap;html=1;fillColor=#647687;fontColor=#ffffff;strokeColor=#000000;" parent="1tPZArX6KOF_OJYh2Ply-189" vertex="1">
          <mxGeometry x="70" y="36" width="10" height="120" as="geometry" />
        </mxCell>
        <mxCell id="1tPZArX6KOF_OJYh2Ply-159" value="" style="rounded=0;whiteSpace=wrap;html=1;fillColor=#647687;fontColor=#ffffff;strokeColor=#000000;" parent="1tPZArX6KOF_OJYh2Ply-189" vertex="1">
          <mxGeometry x="80" y="39" width="10" height="114" as="geometry" />
        </mxCell>
        <mxCell id="1tPZArX6KOF_OJYh2Ply-160" value="" style="rounded=0;whiteSpace=wrap;html=1;fillColor=#647687;fontColor=#ffffff;strokeColor=#000000;" parent="1tPZArX6KOF_OJYh2Ply-189" vertex="1">
          <mxGeometry x="90" y="42" width="10" height="108" as="geometry" />
        </mxCell>
        <mxCell id="1tPZArX6KOF_OJYh2Ply-161" value="" style="rounded=0;whiteSpace=wrap;html=1;fillColor=#647687;fontColor=#ffffff;strokeColor=#000000;" parent="1tPZArX6KOF_OJYh2Ply-189" vertex="1">
          <mxGeometry x="100" y="45" width="10" height="102" as="geometry" />
        </mxCell>
        <mxCell id="1tPZArX6KOF_OJYh2Ply-162" value="" style="rounded=0;whiteSpace=wrap;html=1;rotation=0;fillColor=#647687;fontColor=#ffffff;strokeColor=#000000;" parent="1tPZArX6KOF_OJYh2Ply-189" vertex="1">
          <mxGeometry x="110" y="47" width="10" height="98" as="geometry" />
        </mxCell>
        <mxCell id="1tPZArX6KOF_OJYh2Ply-163" value="" style="rounded=0;whiteSpace=wrap;html=1;fillColor=#647687;fontColor=#ffffff;strokeColor=#000000;" parent="1tPZArX6KOF_OJYh2Ply-189" vertex="1">
          <mxGeometry x="120" y="50" width="10" height="92" as="geometry" />
        </mxCell>
        <mxCell id="1tPZArX6KOF_OJYh2Ply-164" value="" style="rounded=0;whiteSpace=wrap;html=1;fillColor=#647687;fontColor=#ffffff;strokeColor=#000000;" parent="1tPZArX6KOF_OJYh2Ply-189" vertex="1">
          <mxGeometry x="130" y="53" width="10" height="86" as="geometry" />
        </mxCell>
        <mxCell id="1tPZArX6KOF_OJYh2Ply-165" value="" style="rounded=0;whiteSpace=wrap;html=1;strokeColor=#000000;fillColor=#647687;fontColor=#ffffff;" parent="1tPZArX6KOF_OJYh2Ply-189" vertex="1">
          <mxGeometry x="140" y="56" width="10" height="80" as="geometry" />
        </mxCell>
        <mxCell id="1tPZArX6KOF_OJYh2Ply-166" value="" style="rounded=0;whiteSpace=wrap;html=1;fillColor=#46525E;fontColor=#ffffff;strokeColor=#000000;" parent="1tPZArX6KOF_OJYh2Ply-189" vertex="1">
          <mxGeometry x="150" y="52" width="10" height="88" as="geometry" />
        </mxCell>
        <mxCell id="1tPZArX6KOF_OJYh2Ply-167" value="" style="rounded=0;whiteSpace=wrap;html=1;fillColor=#46525E;fontColor=#ffffff;strokeColor=#000000;" parent="1tPZArX6KOF_OJYh2Ply-189" vertex="1">
          <mxGeometry x="160" y="48" width="10" height="96" as="geometry" />
        </mxCell>
        <mxCell id="1tPZArX6KOF_OJYh2Ply-168" value="" style="rounded=0;whiteSpace=wrap;html=1;fillColor=#46525E;fontColor=#ffffff;strokeColor=#000000;" parent="1tPZArX6KOF_OJYh2Ply-189" vertex="1">
          <mxGeometry x="170" y="44" width="10" height="104" as="geometry" />
        </mxCell>
        <mxCell id="1tPZArX6KOF_OJYh2Ply-169" value="" style="rounded=0;whiteSpace=wrap;html=1;fillColor=#46525E;fontColor=#ffffff;strokeColor=#000000;" parent="1tPZArX6KOF_OJYh2Ply-189" vertex="1">
          <mxGeometry x="180" y="41" width="10" height="111" as="geometry" />
        </mxCell>
        <mxCell id="1tPZArX6KOF_OJYh2Ply-170" value="" style="rounded=0;whiteSpace=wrap;html=1;fillColor=#46525E;fontColor=#ffffff;strokeColor=#000000;" parent="1tPZArX6KOF_OJYh2Ply-189" vertex="1">
          <mxGeometry x="190" y="37" width="10" height="118" as="geometry" />
        </mxCell>
        <mxCell id="1tPZArX6KOF_OJYh2Ply-171" value="" style="rounded=0;whiteSpace=wrap;html=1;fillColor=#46525E;fontColor=#ffffff;strokeColor=#000000;" parent="1tPZArX6KOF_OJYh2Ply-189" vertex="1">
          <mxGeometry x="200" y="33" width="10" height="126" as="geometry" />
        </mxCell>
        <mxCell id="1tPZArX6KOF_OJYh2Ply-172" value="" style="rounded=0;whiteSpace=wrap;html=1;fillColor=#46525E;fontColor=#ffffff;strokeColor=#000000;" parent="1tPZArX6KOF_OJYh2Ply-189" vertex="1">
          <mxGeometry x="210" y="29" width="10" height="134" as="geometry" />
        </mxCell>
        <mxCell id="1tPZArX6KOF_OJYh2Ply-173" value="" style="rounded=0;whiteSpace=wrap;html=1;fillColor=#46525E;fontColor=#ffffff;strokeColor=#000000;" parent="1tPZArX6KOF_OJYh2Ply-189" vertex="1">
          <mxGeometry x="220" y="26" width="10" height="141" as="geometry" />
        </mxCell>
        <mxCell id="1tPZArX6KOF_OJYh2Ply-174" value="" style="rounded=0;whiteSpace=wrap;html=1;fillColor=#46525E;fontColor=#ffffff;strokeColor=#000000;" parent="1tPZArX6KOF_OJYh2Ply-189" vertex="1">
          <mxGeometry x="230" y="22" width="10" height="148" as="geometry" />
        </mxCell>
        <mxCell id="1tPZArX6KOF_OJYh2Ply-175" value="" style="rounded=0;whiteSpace=wrap;html=1;fillColor=#46525E;fontColor=#ffffff;strokeColor=#000000;" parent="1tPZArX6KOF_OJYh2Ply-189" vertex="1">
          <mxGeometry x="240" y="18" width="10" height="156" as="geometry" />
        </mxCell>
        <mxCell id="1tPZArX6KOF_OJYh2Ply-176" value="" style="rounded=0;whiteSpace=wrap;html=1;fillColor=#46525E;fontColor=#ffffff;strokeColor=#000000;" parent="1tPZArX6KOF_OJYh2Ply-189" vertex="1">
          <mxGeometry x="250" y="15" width="10" height="163" as="geometry" />
        </mxCell>
        <mxCell id="1tPZArX6KOF_OJYh2Ply-177" value="" style="rounded=0;whiteSpace=wrap;html=1;fillColor=#46525E;fontColor=#ffffff;strokeColor=#000000;" parent="1tPZArX6KOF_OJYh2Ply-189" vertex="1">
          <mxGeometry x="260" y="11" width="10" height="170" as="geometry" />
        </mxCell>
        <mxCell id="1tPZArX6KOF_OJYh2Ply-183" value="" style="rounded=0;whiteSpace=wrap;html=1;fillColor=#46525E;strokeColor=#000000;" parent="1tPZArX6KOF_OJYh2Ply-189" vertex="1">
          <mxGeometry x="270" y="7" width="10" height="178" as="geometry" />
        </mxCell>
        <mxCell id="1tPZArX6KOF_OJYh2Ply-184" value="" style="rounded=0;whiteSpace=wrap;html=1;fillColor=#46525E;strokeColor=#000000;" parent="1tPZArX6KOF_OJYh2Ply-189" vertex="1">
          <mxGeometry x="280" y="3" width="10" height="186" as="geometry" />
        </mxCell>
        <mxCell id="1tPZArX6KOF_OJYh2Ply-185" value="" style="rounded=0;whiteSpace=wrap;html=1;fillColor=#46525E;strokeColor=#000000;" parent="1tPZArX6KOF_OJYh2Ply-189" vertex="1">
          <mxGeometry x="290" width="10" height="192" as="geometry" />
        </mxCell>
      </root>
    </mxGraphModel>
  </diagram>
  <diagram name="Page-1" id="aCFhIBhFk4YjrPL8u5wh">
    <mxGraphModel dx="3000" dy="1526" grid="1" gridSize="10" guides="1" tooltips="1" connect="1" arrows="1" fold="1" page="1" pageScale="1" pageWidth="1169" pageHeight="827" math="0" shadow="0">
      <root>
        <mxCell id="0" />
        <mxCell id="1" parent="0" />
        <mxCell id="vMECjgN5I4BobQLf0X20-453" value="" style="shape=table;startSize=0;container=1;collapsible=0;childLayout=tableLayout;strokeColor=#B5B5B5;fontFamily=Times New Roman;" parent="1" vertex="1">
          <mxGeometry x="40" y="40" width="160" height="120" as="geometry" />
        </mxCell>
        <mxCell id="vMECjgN5I4BobQLf0X20-454" value="" style="shape=tableRow;horizontal=0;startSize=0;swimlaneHead=0;swimlaneBody=0;strokeColor=inherit;top=0;left=0;bottom=0;right=0;collapsible=0;dropTarget=0;fillColor=none;points=[[0,0.5],[1,0.5]];portConstraint=eastwest;fontFamily=Times New Roman;" parent="vMECjgN5I4BobQLf0X20-453" vertex="1">
          <mxGeometry width="160" height="40" as="geometry" />
        </mxCell>
        <mxCell id="vMECjgN5I4BobQLf0X20-455" value="" style="shape=partialRectangle;html=1;whiteSpace=wrap;connectable=0;strokeColor=inherit;overflow=hidden;fillColor=none;top=0;left=0;bottom=0;right=0;pointerEvents=1;fontFamily=Times New Roman;" parent="vMECjgN5I4BobQLf0X20-454" vertex="1">
          <mxGeometry width="40" height="40" as="geometry">
            <mxRectangle width="40" height="40" as="alternateBounds" />
          </mxGeometry>
        </mxCell>
        <mxCell id="vMECjgN5I4BobQLf0X20-456" value="" style="shape=partialRectangle;html=1;whiteSpace=wrap;connectable=0;strokeColor=inherit;overflow=hidden;fillColor=none;top=0;left=0;bottom=0;right=0;pointerEvents=1;fontFamily=Times New Roman;" parent="vMECjgN5I4BobQLf0X20-454" vertex="1">
          <mxGeometry x="40" width="40" height="40" as="geometry">
            <mxRectangle width="40" height="40" as="alternateBounds" />
          </mxGeometry>
        </mxCell>
        <mxCell id="vMECjgN5I4BobQLf0X20-457" value="" style="shape=partialRectangle;html=1;whiteSpace=wrap;connectable=0;strokeColor=inherit;overflow=hidden;fillColor=none;top=0;left=0;bottom=0;right=0;pointerEvents=1;fontFamily=Times New Roman;" parent="vMECjgN5I4BobQLf0X20-454" vertex="1">
          <mxGeometry x="80" width="40" height="40" as="geometry">
            <mxRectangle width="40" height="40" as="alternateBounds" />
          </mxGeometry>
        </mxCell>
        <mxCell id="vMECjgN5I4BobQLf0X20-458" value="" style="shape=partialRectangle;html=1;whiteSpace=wrap;connectable=0;strokeColor=inherit;overflow=hidden;fillColor=none;top=0;left=0;bottom=0;right=0;pointerEvents=1;fontFamily=Times New Roman;" parent="vMECjgN5I4BobQLf0X20-454" vertex="1">
          <mxGeometry x="120" width="40" height="40" as="geometry">
            <mxRectangle width="40" height="40" as="alternateBounds" />
          </mxGeometry>
        </mxCell>
        <mxCell id="vMECjgN5I4BobQLf0X20-465" value="" style="shape=tableRow;horizontal=0;startSize=0;swimlaneHead=0;swimlaneBody=0;strokeColor=inherit;top=0;left=0;bottom=0;right=0;collapsible=0;dropTarget=0;fillColor=none;points=[[0,0.5],[1,0.5]];portConstraint=eastwest;fontFamily=Times New Roman;" parent="vMECjgN5I4BobQLf0X20-453" vertex="1">
          <mxGeometry y="40" width="160" height="40" as="geometry" />
        </mxCell>
        <mxCell id="vMECjgN5I4BobQLf0X20-466" value="" style="shape=partialRectangle;html=1;whiteSpace=wrap;connectable=0;strokeColor=inherit;overflow=hidden;fillColor=none;top=0;left=0;bottom=0;right=0;pointerEvents=1;fontFamily=Times New Roman;" parent="vMECjgN5I4BobQLf0X20-465" vertex="1">
          <mxGeometry width="40" height="40" as="geometry">
            <mxRectangle width="40" height="40" as="alternateBounds" />
          </mxGeometry>
        </mxCell>
        <mxCell id="vMECjgN5I4BobQLf0X20-467" value="" style="shape=partialRectangle;html=1;whiteSpace=wrap;connectable=0;strokeColor=inherit;overflow=hidden;fillColor=none;top=0;left=0;bottom=0;right=0;pointerEvents=1;fontFamily=Times New Roman;" parent="vMECjgN5I4BobQLf0X20-465" vertex="1">
          <mxGeometry x="40" width="40" height="40" as="geometry">
            <mxRectangle width="40" height="40" as="alternateBounds" />
          </mxGeometry>
        </mxCell>
        <mxCell id="vMECjgN5I4BobQLf0X20-468" value="" style="shape=partialRectangle;html=1;whiteSpace=wrap;connectable=0;strokeColor=inherit;overflow=hidden;fillColor=none;top=0;left=0;bottom=0;right=0;pointerEvents=1;fontFamily=Times New Roman;" parent="vMECjgN5I4BobQLf0X20-465" vertex="1">
          <mxGeometry x="80" width="40" height="40" as="geometry">
            <mxRectangle width="40" height="40" as="alternateBounds" />
          </mxGeometry>
        </mxCell>
        <mxCell id="vMECjgN5I4BobQLf0X20-469" value="" style="shape=partialRectangle;html=1;whiteSpace=wrap;connectable=0;strokeColor=inherit;overflow=hidden;fillColor=none;top=0;left=0;bottom=0;right=0;pointerEvents=1;fontFamily=Times New Roman;" parent="vMECjgN5I4BobQLf0X20-465" vertex="1">
          <mxGeometry x="120" width="40" height="40" as="geometry">
            <mxRectangle width="40" height="40" as="alternateBounds" />
          </mxGeometry>
        </mxCell>
        <mxCell id="vMECjgN5I4BobQLf0X20-564" value="" style="shape=tableRow;horizontal=0;startSize=0;swimlaneHead=0;swimlaneBody=0;strokeColor=inherit;top=0;left=0;bottom=0;right=0;collapsible=0;dropTarget=0;fillColor=none;points=[[0,0.5],[1,0.5]];portConstraint=eastwest;fontFamily=Times New Roman;" parent="vMECjgN5I4BobQLf0X20-453" vertex="1">
          <mxGeometry y="80" width="160" height="40" as="geometry" />
        </mxCell>
        <mxCell id="vMECjgN5I4BobQLf0X20-565" value="" style="shape=partialRectangle;html=1;whiteSpace=wrap;connectable=0;strokeColor=inherit;overflow=hidden;fillColor=none;top=0;left=0;bottom=0;right=0;pointerEvents=1;fontFamily=Times New Roman;" parent="vMECjgN5I4BobQLf0X20-564" vertex="1">
          <mxGeometry width="40" height="40" as="geometry">
            <mxRectangle width="40" height="40" as="alternateBounds" />
          </mxGeometry>
        </mxCell>
        <mxCell id="vMECjgN5I4BobQLf0X20-566" value="" style="shape=partialRectangle;html=1;whiteSpace=wrap;connectable=0;strokeColor=inherit;overflow=hidden;fillColor=none;top=0;left=0;bottom=0;right=0;pointerEvents=1;fontFamily=Times New Roman;" parent="vMECjgN5I4BobQLf0X20-564" vertex="1">
          <mxGeometry x="40" width="40" height="40" as="geometry">
            <mxRectangle width="40" height="40" as="alternateBounds" />
          </mxGeometry>
        </mxCell>
        <mxCell id="vMECjgN5I4BobQLf0X20-567" value="" style="shape=partialRectangle;html=1;whiteSpace=wrap;connectable=0;strokeColor=inherit;overflow=hidden;fillColor=none;top=0;left=0;bottom=0;right=0;pointerEvents=1;fontFamily=Times New Roman;" parent="vMECjgN5I4BobQLf0X20-564" vertex="1">
          <mxGeometry x="80" width="40" height="40" as="geometry">
            <mxRectangle width="40" height="40" as="alternateBounds" />
          </mxGeometry>
        </mxCell>
        <mxCell id="vMECjgN5I4BobQLf0X20-568" value="" style="shape=partialRectangle;html=1;whiteSpace=wrap;connectable=0;strokeColor=inherit;overflow=hidden;fillColor=none;top=0;left=0;bottom=0;right=0;pointerEvents=1;fontFamily=Times New Roman;" parent="vMECjgN5I4BobQLf0X20-564" vertex="1">
          <mxGeometry x="120" width="40" height="40" as="geometry">
            <mxRectangle width="40" height="40" as="alternateBounds" />
          </mxGeometry>
        </mxCell>
        <mxCell id="vMECjgN5I4BobQLf0X20-575" value="" style="endArrow=classic;html=1;rounded=0;endSize=3;fontFamily=Times New Roman;" parent="vMECjgN5I4BobQLf0X20-453" edge="1">
          <mxGeometry width="50" height="50" relative="1" as="geometry">
            <mxPoint as="sourcePoint" />
            <mxPoint x="40" as="targetPoint" />
          </mxGeometry>
        </mxCell>
        <mxCell id="vMECjgN5I4BobQLf0X20-576" value="" style="endArrow=classic;html=1;rounded=0;exitX=0;exitY=0;exitDx=0;exitDy=0;endSize=3;fontFamily=Times New Roman;" parent="vMECjgN5I4BobQLf0X20-453" source="vMECjgN5I4BobQLf0X20-453" edge="1">
          <mxGeometry width="50" height="50" relative="1" as="geometry">
            <mxPoint y="20" as="sourcePoint" />
            <mxPoint y="40" as="targetPoint" />
          </mxGeometry>
        </mxCell>
        <mxCell id="vMECjgN5I4BobQLf0X20-580" value="" style="group;fontFamily=Times New Roman;" parent="1" vertex="1" connectable="0">
          <mxGeometry x="50" y="28" width="20" height="10" as="geometry" />
        </mxCell>
        <mxCell id="vMECjgN5I4BobQLf0X20-578" value="x" style="text;html=1;strokeColor=none;fillColor=none;align=center;verticalAlign=middle;whiteSpace=wrap;rounded=0;fontFamily=Times New Roman;" parent="vMECjgN5I4BobQLf0X20-580" vertex="1">
          <mxGeometry width="20" height="10" as="geometry" />
        </mxCell>
        <mxCell id="vMECjgN5I4BobQLf0X20-579" value="" style="endArrow=classicThin;html=1;rounded=0;endFill=1;endSize=0;startSize=0;strokeWidth=1;fontFamily=Times New Roman;" parent="vMECjgN5I4BobQLf0X20-580" edge="1">
          <mxGeometry width="50" height="50" relative="1" as="geometry">
            <mxPoint x="6" y="1" as="sourcePoint" />
            <mxPoint x="14" y="1" as="targetPoint" />
          </mxGeometry>
        </mxCell>
        <mxCell id="vMECjgN5I4BobQLf0X20-581" value="" style="group;fontFamily=Times New Roman;" parent="1" vertex="1" connectable="0">
          <mxGeometry x="22" y="53" width="20" height="10" as="geometry" />
        </mxCell>
        <mxCell id="vMECjgN5I4BobQLf0X20-582" value="y" style="text;html=1;strokeColor=none;fillColor=none;align=center;verticalAlign=middle;whiteSpace=wrap;rounded=0;fontFamily=Times New Roman;" parent="vMECjgN5I4BobQLf0X20-581" vertex="1">
          <mxGeometry width="20" height="10" as="geometry" />
        </mxCell>
        <mxCell id="vMECjgN5I4BobQLf0X20-583" value="" style="endArrow=classicThin;html=1;rounded=0;endFill=1;endSize=0;startSize=0;strokeWidth=1;fontFamily=Times New Roman;" parent="vMECjgN5I4BobQLf0X20-581" edge="1">
          <mxGeometry width="50" height="50" relative="1" as="geometry">
            <mxPoint x="6" y="1" as="sourcePoint" />
            <mxPoint x="14" y="1" as="targetPoint" />
          </mxGeometry>
        </mxCell>
        <mxCell id="vMECjgN5I4BobQLf0X20-586" value="" style="group;fontFamily=Times New Roman;" parent="1" vertex="1" connectable="0">
          <mxGeometry x="87" y="61" width="20" height="10" as="geometry" />
        </mxCell>
        <mxCell id="vMECjgN5I4BobQLf0X20-587" value="p" style="text;html=1;strokeColor=none;fillColor=none;align=center;verticalAlign=middle;whiteSpace=wrap;rounded=0;fontFamily=Times New Roman;" parent="vMECjgN5I4BobQLf0X20-586" vertex="1">
          <mxGeometry width="20" height="10" as="geometry" />
        </mxCell>
        <mxCell id="vMECjgN5I4BobQLf0X20-588" value="" style="endArrow=classicThin;html=1;rounded=0;endFill=1;endSize=0;startSize=0;strokeWidth=1;fontFamily=Times New Roman;" parent="vMECjgN5I4BobQLf0X20-586" edge="1">
          <mxGeometry width="50" height="50" relative="1" as="geometry">
            <mxPoint x="6" y="1" as="sourcePoint" />
            <mxPoint x="14" y="1" as="targetPoint" />
          </mxGeometry>
        </mxCell>
        <mxCell id="vMECjgN5I4BobQLf0X20-590" value="" style="endArrow=classic;html=1;rounded=0;startSize=3;movable=1;resizable=1;rotatable=1;deletable=1;editable=1;locked=0;connectable=1;endSize=2;fontFamily=Times New Roman;" parent="1" source="vMECjgN5I4BobQLf0X20-585" edge="1">
          <mxGeometry width="50" height="50" relative="1" as="geometry">
            <mxPoint x="93" y="113.99999999999997" as="sourcePoint" />
            <mxPoint x="145" y="128" as="targetPoint" />
          </mxGeometry>
        </mxCell>
        <mxCell id="vMECjgN5I4BobQLf0X20-598" value="" style="endArrow=classic;html=1;rounded=0;startSize=3;movable=1;resizable=1;rotatable=1;deletable=1;editable=1;locked=0;connectable=1;endSize=2;fontFamily=Times New Roman;" parent="1" source="vMECjgN5I4BobQLf0X20-585" edge="1">
          <mxGeometry width="50" height="50" relative="1" as="geometry">
            <mxPoint x="104" y="96" as="sourcePoint" />
            <mxPoint x="102" y="114" as="targetPoint" />
          </mxGeometry>
        </mxCell>
        <mxCell id="vMECjgN5I4BobQLf0X20-585" value="" style="shape=waypoint;sketch=0;fillStyle=solid;size=6;pointerEvents=1;points=[];fillColor=#e51400;resizable=0;rotatable=0;perimeter=centerPerimeter;snapToPoint=1;fontColor=#ffffff;strokeColor=#B20000;fontFamily=Times New Roman;" parent="1" vertex="1">
          <mxGeometry x="120" y="90" width="20" height="20" as="geometry" />
        </mxCell>
        <mxCell id="vMECjgN5I4BobQLf0X20-589" value="" style="endArrow=classic;html=1;rounded=0;exitX=0;exitY=-0.003;exitDx=0;exitDy=0;exitPerimeter=0;startSize=6;endSize=3;fontFamily=Times New Roman;" parent="1" source="vMECjgN5I4BobQLf0X20-454" target="vMECjgN5I4BobQLf0X20-585" edge="1">
          <mxGeometry width="50" height="50" relative="1" as="geometry">
            <mxPoint x="120" y="90" as="sourcePoint" />
            <mxPoint x="170" y="40" as="targetPoint" />
          </mxGeometry>
        </mxCell>
        <mxCell id="vMECjgN5I4BobQLf0X20-596" value="" style="group;fontFamily=Times New Roman;" parent="1" vertex="1" connectable="0">
          <mxGeometry x="132" y="105" width="20" height="10" as="geometry" />
        </mxCell>
        <mxCell id="vMECjgN5I4BobQLf0X20-594" value="d" style="text;html=1;strokeColor=none;fillColor=none;align=center;verticalAlign=middle;whiteSpace=wrap;rounded=0;fontFamily=Times New Roman;" parent="vMECjgN5I4BobQLf0X20-596" vertex="1">
          <mxGeometry width="20" height="10" as="geometry" />
        </mxCell>
        <mxCell id="vMECjgN5I4BobQLf0X20-595" value="" style="endArrow=classicThin;html=1;rounded=0;endFill=1;endSize=0;startSize=0;strokeWidth=1;fontFamily=Times New Roman;" parent="vMECjgN5I4BobQLf0X20-596" edge="1">
          <mxGeometry width="50" height="50" relative="1" as="geometry">
            <mxPoint x="6" as="sourcePoint" />
            <mxPoint x="14" as="targetPoint" />
          </mxGeometry>
        </mxCell>
        <mxCell id="vMECjgN5I4BobQLf0X20-602" value="" style="group;fontFamily=Times New Roman;" parent="1" vertex="1" connectable="0">
          <mxGeometry x="102" y="97" width="20" height="10" as="geometry" />
        </mxCell>
        <mxCell id="vMECjgN5I4BobQLf0X20-603" value="c" style="text;html=1;strokeColor=none;fillColor=none;align=center;verticalAlign=middle;whiteSpace=wrap;rounded=0;fontFamily=Times New Roman;" parent="vMECjgN5I4BobQLf0X20-602" vertex="1">
          <mxGeometry width="20" height="10" as="geometry" />
        </mxCell>
        <mxCell id="vMECjgN5I4BobQLf0X20-604" value="" style="endArrow=classicThin;html=1;rounded=0;endFill=1;endSize=0;startSize=0;strokeWidth=1;fontFamily=Times New Roman;" parent="vMECjgN5I4BobQLf0X20-602" edge="1">
          <mxGeometry width="50" height="50" relative="1" as="geometry">
            <mxPoint x="6" y="1" as="sourcePoint" />
            <mxPoint x="14" y="1" as="targetPoint" />
          </mxGeometry>
        </mxCell>
      </root>
    </mxGraphModel>
  </diagram>
  <diagram id="EVd4XCdLS7wnzIhKfE6U" name="Page-2">
    <mxGraphModel dx="1000" dy="509" grid="1" gridSize="10" guides="1" tooltips="1" connect="1" arrows="1" fold="1" page="1" pageScale="1" pageWidth="1169" pageHeight="827" math="0" shadow="0">
      <root>
        <mxCell id="0" />
        <mxCell id="1" parent="0" />
        <mxCell id="VGNGir4F8PHBiqYfMPzh-1" value="" style="shape=table;startSize=0;container=1;collapsible=0;childLayout=tableLayout;strokeColor=#B5B5B5;" parent="1" vertex="1">
          <mxGeometry x="40" y="40" width="240" height="200" as="geometry" />
        </mxCell>
        <mxCell id="VGNGir4F8PHBiqYfMPzh-2" value="" style="shape=tableRow;horizontal=0;startSize=0;swimlaneHead=0;swimlaneBody=0;strokeColor=inherit;top=0;left=0;bottom=0;right=0;collapsible=0;dropTarget=0;fillColor=none;points=[[0,0.5],[1,0.5]];portConstraint=eastwest;" parent="VGNGir4F8PHBiqYfMPzh-1" vertex="1">
          <mxGeometry width="240" height="40" as="geometry" />
        </mxCell>
        <mxCell id="VGNGir4F8PHBiqYfMPzh-3" value="" style="shape=partialRectangle;html=1;whiteSpace=wrap;connectable=0;strokeColor=inherit;overflow=hidden;fillColor=none;top=0;left=0;bottom=0;right=0;pointerEvents=1;" parent="VGNGir4F8PHBiqYfMPzh-2" vertex="1">
          <mxGeometry width="40" height="40" as="geometry">
            <mxRectangle width="40" height="40" as="alternateBounds" />
          </mxGeometry>
        </mxCell>
        <mxCell id="VGNGir4F8PHBiqYfMPzh-4" value="" style="shape=partialRectangle;html=1;whiteSpace=wrap;connectable=0;strokeColor=inherit;overflow=hidden;fillColor=none;top=0;left=0;bottom=0;right=0;pointerEvents=1;" parent="VGNGir4F8PHBiqYfMPzh-2" vertex="1">
          <mxGeometry x="40" width="40" height="40" as="geometry">
            <mxRectangle width="40" height="40" as="alternateBounds" />
          </mxGeometry>
        </mxCell>
        <mxCell id="VGNGir4F8PHBiqYfMPzh-5" value="" style="shape=partialRectangle;html=1;whiteSpace=wrap;connectable=0;strokeColor=inherit;overflow=hidden;fillColor=none;top=0;left=0;bottom=0;right=0;pointerEvents=1;" parent="VGNGir4F8PHBiqYfMPzh-2" vertex="1">
          <mxGeometry x="80" width="40" height="40" as="geometry">
            <mxRectangle width="40" height="40" as="alternateBounds" />
          </mxGeometry>
        </mxCell>
        <mxCell id="VGNGir4F8PHBiqYfMPzh-6" value="" style="shape=partialRectangle;html=1;whiteSpace=wrap;connectable=0;strokeColor=inherit;overflow=hidden;fillColor=none;top=0;left=0;bottom=0;right=0;pointerEvents=1;" parent="VGNGir4F8PHBiqYfMPzh-2" vertex="1">
          <mxGeometry x="120" width="40" height="40" as="geometry">
            <mxRectangle width="40" height="40" as="alternateBounds" />
          </mxGeometry>
        </mxCell>
        <mxCell id="VGNGir4F8PHBiqYfMPzh-7" value="" style="shape=partialRectangle;html=1;whiteSpace=wrap;connectable=0;strokeColor=inherit;overflow=hidden;fillColor=none;top=0;left=0;bottom=0;right=0;pointerEvents=1;" parent="VGNGir4F8PHBiqYfMPzh-2" vertex="1">
          <mxGeometry x="160" width="40" height="40" as="geometry">
            <mxRectangle width="40" height="40" as="alternateBounds" />
          </mxGeometry>
        </mxCell>
        <mxCell id="VGNGir4F8PHBiqYfMPzh-8" value="" style="shape=partialRectangle;html=1;whiteSpace=wrap;connectable=0;strokeColor=inherit;overflow=hidden;fillColor=none;top=0;left=0;bottom=0;right=0;pointerEvents=1;" parent="VGNGir4F8PHBiqYfMPzh-2" vertex="1">
          <mxGeometry x="200" width="40" height="40" as="geometry">
            <mxRectangle width="40" height="40" as="alternateBounds" />
          </mxGeometry>
        </mxCell>
        <mxCell id="VGNGir4F8PHBiqYfMPzh-13" value="" style="shape=tableRow;horizontal=0;startSize=0;swimlaneHead=0;swimlaneBody=0;strokeColor=inherit;top=0;left=0;bottom=0;right=0;collapsible=0;dropTarget=0;fillColor=none;points=[[0,0.5],[1,0.5]];portConstraint=eastwest;" parent="VGNGir4F8PHBiqYfMPzh-1" vertex="1">
          <mxGeometry y="40" width="240" height="40" as="geometry" />
        </mxCell>
        <mxCell id="VGNGir4F8PHBiqYfMPzh-14" value="" style="shape=partialRectangle;html=1;whiteSpace=wrap;connectable=0;strokeColor=inherit;overflow=hidden;fillColor=none;top=0;left=0;bottom=0;right=0;pointerEvents=1;" parent="VGNGir4F8PHBiqYfMPzh-13" vertex="1">
          <mxGeometry width="40" height="40" as="geometry">
            <mxRectangle width="40" height="40" as="alternateBounds" />
          </mxGeometry>
        </mxCell>
        <mxCell id="VGNGir4F8PHBiqYfMPzh-15" value="" style="shape=partialRectangle;html=1;whiteSpace=wrap;connectable=0;strokeColor=inherit;overflow=hidden;fillColor=none;top=0;left=0;bottom=0;right=0;pointerEvents=1;" parent="VGNGir4F8PHBiqYfMPzh-13" vertex="1">
          <mxGeometry x="40" width="40" height="40" as="geometry">
            <mxRectangle width="40" height="40" as="alternateBounds" />
          </mxGeometry>
        </mxCell>
        <mxCell id="VGNGir4F8PHBiqYfMPzh-16" value="" style="shape=partialRectangle;html=1;whiteSpace=wrap;connectable=0;strokeColor=inherit;overflow=hidden;fillColor=none;top=0;left=0;bottom=0;right=0;pointerEvents=1;" parent="VGNGir4F8PHBiqYfMPzh-13" vertex="1">
          <mxGeometry x="80" width="40" height="40" as="geometry">
            <mxRectangle width="40" height="40" as="alternateBounds" />
          </mxGeometry>
        </mxCell>
        <mxCell id="VGNGir4F8PHBiqYfMPzh-17" value="" style="shape=partialRectangle;html=1;whiteSpace=wrap;connectable=0;strokeColor=inherit;overflow=hidden;fillColor=none;top=0;left=0;bottom=0;right=0;pointerEvents=1;" parent="VGNGir4F8PHBiqYfMPzh-13" vertex="1">
          <mxGeometry x="120" width="40" height="40" as="geometry">
            <mxRectangle width="40" height="40" as="alternateBounds" />
          </mxGeometry>
        </mxCell>
        <mxCell id="VGNGir4F8PHBiqYfMPzh-18" value="" style="shape=partialRectangle;html=1;whiteSpace=wrap;connectable=0;strokeColor=inherit;overflow=hidden;fillColor=none;top=0;left=0;bottom=0;right=0;pointerEvents=1;" parent="VGNGir4F8PHBiqYfMPzh-13" vertex="1">
          <mxGeometry x="160" width="40" height="40" as="geometry">
            <mxRectangle width="40" height="40" as="alternateBounds" />
          </mxGeometry>
        </mxCell>
        <mxCell id="VGNGir4F8PHBiqYfMPzh-19" value="" style="shape=partialRectangle;html=1;whiteSpace=wrap;connectable=0;strokeColor=inherit;overflow=hidden;fillColor=none;top=0;left=0;bottom=0;right=0;pointerEvents=1;" parent="VGNGir4F8PHBiqYfMPzh-13" vertex="1">
          <mxGeometry x="200" width="40" height="40" as="geometry">
            <mxRectangle width="40" height="40" as="alternateBounds" />
          </mxGeometry>
        </mxCell>
        <mxCell id="VGNGir4F8PHBiqYfMPzh-24" value="" style="shape=tableRow;horizontal=0;startSize=0;swimlaneHead=0;swimlaneBody=0;strokeColor=inherit;top=0;left=0;bottom=0;right=0;collapsible=0;dropTarget=0;fillColor=none;points=[[0,0.5],[1,0.5]];portConstraint=eastwest;" parent="VGNGir4F8PHBiqYfMPzh-1" vertex="1">
          <mxGeometry y="80" width="240" height="40" as="geometry" />
        </mxCell>
        <mxCell id="VGNGir4F8PHBiqYfMPzh-25" value="" style="shape=partialRectangle;html=1;whiteSpace=wrap;connectable=0;strokeColor=inherit;overflow=hidden;fillColor=none;top=0;left=0;bottom=0;right=0;pointerEvents=1;" parent="VGNGir4F8PHBiqYfMPzh-24" vertex="1">
          <mxGeometry width="40" height="40" as="geometry">
            <mxRectangle width="40" height="40" as="alternateBounds" />
          </mxGeometry>
        </mxCell>
        <mxCell id="VGNGir4F8PHBiqYfMPzh-26" value="" style="shape=partialRectangle;html=1;whiteSpace=wrap;connectable=0;strokeColor=inherit;overflow=hidden;fillColor=none;top=0;left=0;bottom=0;right=0;pointerEvents=1;" parent="VGNGir4F8PHBiqYfMPzh-24" vertex="1">
          <mxGeometry x="40" width="40" height="40" as="geometry">
            <mxRectangle width="40" height="40" as="alternateBounds" />
          </mxGeometry>
        </mxCell>
        <mxCell id="VGNGir4F8PHBiqYfMPzh-27" value="" style="shape=partialRectangle;html=1;whiteSpace=wrap;connectable=0;strokeColor=inherit;overflow=hidden;fillColor=none;top=0;left=0;bottom=0;right=0;pointerEvents=1;" parent="VGNGir4F8PHBiqYfMPzh-24" vertex="1">
          <mxGeometry x="80" width="40" height="40" as="geometry">
            <mxRectangle width="40" height="40" as="alternateBounds" />
          </mxGeometry>
        </mxCell>
        <mxCell id="VGNGir4F8PHBiqYfMPzh-28" value="" style="shape=partialRectangle;html=1;whiteSpace=wrap;connectable=0;strokeColor=inherit;overflow=hidden;fillColor=none;top=0;left=0;bottom=0;right=0;pointerEvents=1;" parent="VGNGir4F8PHBiqYfMPzh-24" vertex="1">
          <mxGeometry x="120" width="40" height="40" as="geometry">
            <mxRectangle width="40" height="40" as="alternateBounds" />
          </mxGeometry>
        </mxCell>
        <mxCell id="VGNGir4F8PHBiqYfMPzh-29" value="" style="shape=partialRectangle;html=1;whiteSpace=wrap;connectable=0;strokeColor=inherit;overflow=hidden;fillColor=none;top=0;left=0;bottom=0;right=0;pointerEvents=1;" parent="VGNGir4F8PHBiqYfMPzh-24" vertex="1">
          <mxGeometry x="160" width="40" height="40" as="geometry">
            <mxRectangle width="40" height="40" as="alternateBounds" />
          </mxGeometry>
        </mxCell>
        <mxCell id="VGNGir4F8PHBiqYfMPzh-30" value="" style="shape=partialRectangle;html=1;whiteSpace=wrap;connectable=0;strokeColor=inherit;overflow=hidden;fillColor=none;top=0;left=0;bottom=0;right=0;pointerEvents=1;" parent="VGNGir4F8PHBiqYfMPzh-24" vertex="1">
          <mxGeometry x="200" width="40" height="40" as="geometry">
            <mxRectangle width="40" height="40" as="alternateBounds" />
          </mxGeometry>
        </mxCell>
        <mxCell id="VGNGir4F8PHBiqYfMPzh-35" value="" style="shape=tableRow;horizontal=0;startSize=0;swimlaneHead=0;swimlaneBody=0;strokeColor=inherit;top=0;left=0;bottom=0;right=0;collapsible=0;dropTarget=0;fillColor=none;points=[[0,0.5],[1,0.5]];portConstraint=eastwest;" parent="VGNGir4F8PHBiqYfMPzh-1" vertex="1">
          <mxGeometry y="120" width="240" height="40" as="geometry" />
        </mxCell>
        <mxCell id="VGNGir4F8PHBiqYfMPzh-36" value="" style="shape=partialRectangle;html=1;whiteSpace=wrap;connectable=0;strokeColor=inherit;overflow=hidden;fillColor=none;top=0;left=0;bottom=0;right=0;pointerEvents=1;" parent="VGNGir4F8PHBiqYfMPzh-35" vertex="1">
          <mxGeometry width="40" height="40" as="geometry">
            <mxRectangle width="40" height="40" as="alternateBounds" />
          </mxGeometry>
        </mxCell>
        <mxCell id="VGNGir4F8PHBiqYfMPzh-37" value="" style="shape=partialRectangle;html=1;whiteSpace=wrap;connectable=0;strokeColor=inherit;overflow=hidden;fillColor=none;top=0;left=0;bottom=0;right=0;pointerEvents=1;" parent="VGNGir4F8PHBiqYfMPzh-35" vertex="1">
          <mxGeometry x="40" width="40" height="40" as="geometry">
            <mxRectangle width="40" height="40" as="alternateBounds" />
          </mxGeometry>
        </mxCell>
        <mxCell id="VGNGir4F8PHBiqYfMPzh-38" value="" style="shape=partialRectangle;html=1;whiteSpace=wrap;connectable=0;strokeColor=inherit;overflow=hidden;fillColor=none;top=0;left=0;bottom=0;right=0;pointerEvents=1;" parent="VGNGir4F8PHBiqYfMPzh-35" vertex="1">
          <mxGeometry x="80" width="40" height="40" as="geometry">
            <mxRectangle width="40" height="40" as="alternateBounds" />
          </mxGeometry>
        </mxCell>
        <mxCell id="VGNGir4F8PHBiqYfMPzh-39" value="" style="shape=partialRectangle;html=1;whiteSpace=wrap;connectable=0;strokeColor=inherit;overflow=hidden;fillColor=none;top=0;left=0;bottom=0;right=0;pointerEvents=1;" parent="VGNGir4F8PHBiqYfMPzh-35" vertex="1">
          <mxGeometry x="120" width="40" height="40" as="geometry">
            <mxRectangle width="40" height="40" as="alternateBounds" />
          </mxGeometry>
        </mxCell>
        <mxCell id="VGNGir4F8PHBiqYfMPzh-40" value="" style="shape=partialRectangle;html=1;whiteSpace=wrap;connectable=0;strokeColor=inherit;overflow=hidden;fillColor=none;top=0;left=0;bottom=0;right=0;pointerEvents=1;" parent="VGNGir4F8PHBiqYfMPzh-35" vertex="1">
          <mxGeometry x="160" width="40" height="40" as="geometry">
            <mxRectangle width="40" height="40" as="alternateBounds" />
          </mxGeometry>
        </mxCell>
        <mxCell id="VGNGir4F8PHBiqYfMPzh-41" value="" style="shape=partialRectangle;html=1;whiteSpace=wrap;connectable=0;strokeColor=inherit;overflow=hidden;fillColor=none;top=0;left=0;bottom=0;right=0;pointerEvents=1;" parent="VGNGir4F8PHBiqYfMPzh-35" vertex="1">
          <mxGeometry x="200" width="40" height="40" as="geometry">
            <mxRectangle width="40" height="40" as="alternateBounds" />
          </mxGeometry>
        </mxCell>
        <mxCell id="B7Wms7-Cijoqs-UupHPU-12" style="shape=tableRow;horizontal=0;startSize=0;swimlaneHead=0;swimlaneBody=0;strokeColor=inherit;top=0;left=0;bottom=0;right=0;collapsible=0;dropTarget=0;fillColor=none;points=[[0,0.5],[1,0.5]];portConstraint=eastwest;" parent="VGNGir4F8PHBiqYfMPzh-1" vertex="1">
          <mxGeometry y="160" width="240" height="40" as="geometry" />
        </mxCell>
        <mxCell id="B7Wms7-Cijoqs-UupHPU-13" style="shape=partialRectangle;html=1;whiteSpace=wrap;connectable=0;strokeColor=inherit;overflow=hidden;fillColor=none;top=0;left=0;bottom=0;right=0;pointerEvents=1;" parent="B7Wms7-Cijoqs-UupHPU-12" vertex="1">
          <mxGeometry width="40" height="40" as="geometry">
            <mxRectangle width="40" height="40" as="alternateBounds" />
          </mxGeometry>
        </mxCell>
        <mxCell id="B7Wms7-Cijoqs-UupHPU-14" style="shape=partialRectangle;html=1;whiteSpace=wrap;connectable=0;strokeColor=inherit;overflow=hidden;fillColor=none;top=0;left=0;bottom=0;right=0;pointerEvents=1;" parent="B7Wms7-Cijoqs-UupHPU-12" vertex="1">
          <mxGeometry x="40" width="40" height="40" as="geometry">
            <mxRectangle width="40" height="40" as="alternateBounds" />
          </mxGeometry>
        </mxCell>
        <mxCell id="B7Wms7-Cijoqs-UupHPU-15" style="shape=partialRectangle;html=1;whiteSpace=wrap;connectable=0;strokeColor=inherit;overflow=hidden;fillColor=none;top=0;left=0;bottom=0;right=0;pointerEvents=1;" parent="B7Wms7-Cijoqs-UupHPU-12" vertex="1">
          <mxGeometry x="80" width="40" height="40" as="geometry">
            <mxRectangle width="40" height="40" as="alternateBounds" />
          </mxGeometry>
        </mxCell>
        <mxCell id="B7Wms7-Cijoqs-UupHPU-16" style="shape=partialRectangle;html=1;whiteSpace=wrap;connectable=0;strokeColor=inherit;overflow=hidden;fillColor=none;top=0;left=0;bottom=0;right=0;pointerEvents=1;" parent="B7Wms7-Cijoqs-UupHPU-12" vertex="1">
          <mxGeometry x="120" width="40" height="40" as="geometry">
            <mxRectangle width="40" height="40" as="alternateBounds" />
          </mxGeometry>
        </mxCell>
        <mxCell id="B7Wms7-Cijoqs-UupHPU-17" style="shape=partialRectangle;html=1;whiteSpace=wrap;connectable=0;strokeColor=inherit;overflow=hidden;fillColor=none;top=0;left=0;bottom=0;right=0;pointerEvents=1;" parent="B7Wms7-Cijoqs-UupHPU-12" vertex="1">
          <mxGeometry x="160" width="40" height="40" as="geometry">
            <mxRectangle width="40" height="40" as="alternateBounds" />
          </mxGeometry>
        </mxCell>
        <mxCell id="B7Wms7-Cijoqs-UupHPU-18" style="shape=partialRectangle;html=1;whiteSpace=wrap;connectable=0;strokeColor=inherit;overflow=hidden;fillColor=none;top=0;left=0;bottom=0;right=0;pointerEvents=1;" parent="B7Wms7-Cijoqs-UupHPU-12" vertex="1">
          <mxGeometry x="200" width="40" height="40" as="geometry">
            <mxRectangle width="40" height="40" as="alternateBounds" />
          </mxGeometry>
        </mxCell>
        <mxCell id="VGNGir4F8PHBiqYfMPzh-134" value="" style="endArrow=classic;html=1;rounded=0;startSize=3;movable=1;resizable=1;rotatable=1;deletable=1;editable=1;locked=0;connectable=1;endSize=2;" parent="1" source="VGNGir4F8PHBiqYfMPzh-136" edge="1">
          <mxGeometry width="50" height="50" relative="1" as="geometry">
            <mxPoint x="93" y="113.99999999999997" as="sourcePoint" />
            <mxPoint x="145" y="128" as="targetPoint" />
          </mxGeometry>
        </mxCell>
        <mxCell id="VGNGir4F8PHBiqYfMPzh-148" value="" style="endArrow=none;dashed=1;html=1;rounded=0;" parent="1" source="VGNGir4F8PHBiqYfMPzh-136" edge="1">
          <mxGeometry width="50" height="50" relative="1" as="geometry">
            <mxPoint x="180" y="226" as="sourcePoint" />
            <mxPoint x="259" y="142" as="targetPoint" />
          </mxGeometry>
        </mxCell>
        <mxCell id="VGNGir4F8PHBiqYfMPzh-135" value="" style="endArrow=baseDash;html=1;rounded=0;startSize=3;movable=1;resizable=1;rotatable=1;deletable=1;editable=1;locked=0;connectable=1;endSize=2;endFill=0;" parent="1" edge="1">
          <mxGeometry width="50" height="50" relative="1" as="geometry">
            <mxPoint x="145" y="128.00000000000003" as="sourcePoint" />
            <mxPoint x="117" y="142" as="targetPoint" />
          </mxGeometry>
        </mxCell>
        <mxCell id="VGNGir4F8PHBiqYfMPzh-136" value="" style="shape=waypoint;sketch=0;fillStyle=solid;size=6;pointerEvents=1;points=[];fillColor=#e51400;resizable=0;rotatable=0;perimeter=centerPerimeter;snapToPoint=1;fontColor=#ffffff;strokeColor=#B20000;" parent="1" vertex="1">
          <mxGeometry x="120" y="90" width="20" height="20" as="geometry" />
        </mxCell>
        <mxCell id="VGNGir4F8PHBiqYfMPzh-138" value="" style="group" parent="1" vertex="1" connectable="0">
          <mxGeometry x="132" y="107" width="20" height="10" as="geometry" />
        </mxCell>
        <mxCell id="VGNGir4F8PHBiqYfMPzh-139" value="&lt;font face=&quot;Times New Roman&quot;&gt;d&lt;/font&gt;" style="text;html=1;strokeColor=none;fillColor=none;align=center;verticalAlign=middle;whiteSpace=wrap;rounded=0;" parent="VGNGir4F8PHBiqYfMPzh-138" vertex="1">
          <mxGeometry width="20" height="10" as="geometry" />
        </mxCell>
        <mxCell id="VGNGir4F8PHBiqYfMPzh-140" value="" style="endArrow=classicThin;html=1;rounded=0;endFill=1;endSize=0;startSize=0;strokeWidth=1;" parent="VGNGir4F8PHBiqYfMPzh-138" edge="1">
          <mxGeometry width="50" height="50" relative="1" as="geometry">
            <mxPoint x="6" as="sourcePoint" />
            <mxPoint x="14" as="targetPoint" />
          </mxGeometry>
        </mxCell>
        <mxCell id="VGNGir4F8PHBiqYfMPzh-145" value="" style="endArrow=none;html=1;rounded=0;startSize=3;movable=1;resizable=1;rotatable=1;deletable=1;editable=1;locked=0;connectable=1;endSize=2;endFill=0;startArrow=baseDash;startFill=0;" parent="1" edge="1">
          <mxGeometry width="50" height="50" relative="1" as="geometry">
            <mxPoint x="173" y="114.00000000000003" as="sourcePoint" />
            <mxPoint x="145" y="128" as="targetPoint" />
          </mxGeometry>
        </mxCell>
        <mxCell id="VGNGir4F8PHBiqYfMPzh-146" value="" style="group" parent="1" vertex="1" connectable="0">
          <mxGeometry x="138.8397459621556" y="125.66987298107782" width="22.320508075688792" height="18.660254037844368" as="geometry" />
        </mxCell>
        <mxCell id="VGNGir4F8PHBiqYfMPzh-142" value="&lt;font face=&quot;Times New Roman&quot;&gt;2||c||&lt;/font&gt;" style="text;html=1;strokeColor=none;fillColor=none;align=center;verticalAlign=middle;whiteSpace=wrap;rounded=0;rotation=-30;" parent="VGNGir4F8PHBiqYfMPzh-146" vertex="1">
          <mxGeometry x="1.1602540378443962" y="4.330127018922184" width="20" height="10" as="geometry" />
        </mxCell>
        <mxCell id="VGNGir4F8PHBiqYfMPzh-143" value="" style="endArrow=classicThin;html=1;rounded=0;endFill=1;endSize=0;startSize=0;strokeWidth=1;" parent="VGNGir4F8PHBiqYfMPzh-146" edge="1">
          <mxGeometry width="50" height="50" relative="1" as="geometry">
            <mxPoint x="9.160254037844396" y="5.330127018922184" as="sourcePoint" />
            <mxPoint x="15.160254037844396" y="1.3301270189221839" as="targetPoint" />
          </mxGeometry>
        </mxCell>
        <mxCell id="VGNGir4F8PHBiqYfMPzh-147" value="" style="endArrow=none;dashed=1;html=1;rounded=0;" parent="1" target="VGNGir4F8PHBiqYfMPzh-136" edge="1">
          <mxGeometry width="50" height="50" relative="1" as="geometry">
            <mxPoint x="91" y="226" as="sourcePoint" />
            <mxPoint x="107" y="115" as="targetPoint" />
          </mxGeometry>
        </mxCell>
      </root>
    </mxGraphModel>
  </diagram>
  <diagram id="y_z9vSlfxkjhNHD0FACJ" name="Page-4">
    <mxGraphModel dx="1050" dy="534" grid="1" gridSize="10" guides="1" tooltips="1" connect="1" arrows="1" fold="1" page="1" pageScale="1" pageWidth="1169" pageHeight="827" math="0" shadow="0">
      <root>
        <mxCell id="0" />
        <mxCell id="1" parent="0" />
        <mxCell id="NFVaiHWZDi6x7oLXGxKS-1" value="" style="shape=table;startSize=0;container=1;collapsible=0;childLayout=tableLayout;strokeColor=#B5B5B5;" parent="1" vertex="1">
          <mxGeometry x="40" y="40" width="240" height="240.0000000000001" as="geometry" />
        </mxCell>
        <mxCell id="NFVaiHWZDi6x7oLXGxKS-2" value="" style="shape=tableRow;horizontal=0;startSize=0;swimlaneHead=0;swimlaneBody=0;strokeColor=inherit;top=0;left=0;bottom=0;right=0;collapsible=0;dropTarget=0;fillColor=none;points=[[0,0.5],[1,0.5]];portConstraint=eastwest;" parent="NFVaiHWZDi6x7oLXGxKS-1" vertex="1">
          <mxGeometry width="240" height="40" as="geometry" />
        </mxCell>
        <mxCell id="NFVaiHWZDi6x7oLXGxKS-3" value="" style="shape=partialRectangle;html=1;whiteSpace=wrap;connectable=0;strokeColor=inherit;overflow=hidden;fillColor=none;top=0;left=0;bottom=0;right=0;pointerEvents=1;" parent="NFVaiHWZDi6x7oLXGxKS-2" vertex="1">
          <mxGeometry width="40" height="40" as="geometry">
            <mxRectangle width="40" height="40" as="alternateBounds" />
          </mxGeometry>
        </mxCell>
        <mxCell id="NFVaiHWZDi6x7oLXGxKS-4" value="" style="shape=partialRectangle;html=1;whiteSpace=wrap;connectable=0;strokeColor=inherit;overflow=hidden;fillColor=none;top=0;left=0;bottom=0;right=0;pointerEvents=1;" parent="NFVaiHWZDi6x7oLXGxKS-2" vertex="1">
          <mxGeometry x="40" width="40" height="40" as="geometry">
            <mxRectangle width="40" height="40" as="alternateBounds" />
          </mxGeometry>
        </mxCell>
        <mxCell id="NFVaiHWZDi6x7oLXGxKS-5" value="" style="shape=partialRectangle;html=1;whiteSpace=wrap;connectable=0;strokeColor=inherit;overflow=hidden;fillColor=none;top=0;left=0;bottom=0;right=0;pointerEvents=1;" parent="NFVaiHWZDi6x7oLXGxKS-2" vertex="1">
          <mxGeometry x="80" width="40" height="40" as="geometry">
            <mxRectangle width="40" height="40" as="alternateBounds" />
          </mxGeometry>
        </mxCell>
        <mxCell id="NFVaiHWZDi6x7oLXGxKS-6" value="" style="shape=partialRectangle;html=1;whiteSpace=wrap;connectable=0;strokeColor=inherit;overflow=hidden;fillColor=none;top=0;left=0;bottom=0;right=0;pointerEvents=1;" parent="NFVaiHWZDi6x7oLXGxKS-2" vertex="1">
          <mxGeometry x="120" width="40" height="40" as="geometry">
            <mxRectangle width="40" height="40" as="alternateBounds" />
          </mxGeometry>
        </mxCell>
        <mxCell id="NFVaiHWZDi6x7oLXGxKS-7" value="" style="shape=partialRectangle;html=1;whiteSpace=wrap;connectable=0;strokeColor=inherit;overflow=hidden;fillColor=none;top=0;left=0;bottom=0;right=0;pointerEvents=1;" parent="NFVaiHWZDi6x7oLXGxKS-2" vertex="1">
          <mxGeometry x="160" width="40" height="40" as="geometry">
            <mxRectangle width="40" height="40" as="alternateBounds" />
          </mxGeometry>
        </mxCell>
        <mxCell id="NFVaiHWZDi6x7oLXGxKS-8" value="" style="shape=partialRectangle;html=1;whiteSpace=wrap;connectable=0;strokeColor=inherit;overflow=hidden;fillColor=none;top=0;left=0;bottom=0;right=0;pointerEvents=1;" parent="NFVaiHWZDi6x7oLXGxKS-2" vertex="1">
          <mxGeometry x="200" width="40" height="40" as="geometry">
            <mxRectangle width="40" height="40" as="alternateBounds" />
          </mxGeometry>
        </mxCell>
        <mxCell id="NFVaiHWZDi6x7oLXGxKS-9" value="" style="shape=tableRow;horizontal=0;startSize=0;swimlaneHead=0;swimlaneBody=0;strokeColor=inherit;top=0;left=0;bottom=0;right=0;collapsible=0;dropTarget=0;fillColor=none;points=[[0,0.5],[1,0.5]];portConstraint=eastwest;" parent="NFVaiHWZDi6x7oLXGxKS-1" vertex="1">
          <mxGeometry y="40" width="240" height="40" as="geometry" />
        </mxCell>
        <mxCell id="NFVaiHWZDi6x7oLXGxKS-10" value="" style="shape=partialRectangle;html=1;whiteSpace=wrap;connectable=0;strokeColor=inherit;overflow=hidden;fillColor=none;top=0;left=0;bottom=0;right=0;pointerEvents=1;" parent="NFVaiHWZDi6x7oLXGxKS-9" vertex="1">
          <mxGeometry width="40" height="40" as="geometry">
            <mxRectangle width="40" height="40" as="alternateBounds" />
          </mxGeometry>
        </mxCell>
        <mxCell id="NFVaiHWZDi6x7oLXGxKS-11" value="" style="shape=partialRectangle;html=1;whiteSpace=wrap;connectable=0;strokeColor=inherit;overflow=hidden;fillColor=none;top=0;left=0;bottom=0;right=0;pointerEvents=1;" parent="NFVaiHWZDi6x7oLXGxKS-9" vertex="1">
          <mxGeometry x="40" width="40" height="40" as="geometry">
            <mxRectangle width="40" height="40" as="alternateBounds" />
          </mxGeometry>
        </mxCell>
        <mxCell id="NFVaiHWZDi6x7oLXGxKS-12" value="" style="shape=partialRectangle;html=1;whiteSpace=wrap;connectable=0;strokeColor=inherit;overflow=hidden;fillColor=none;top=0;left=0;bottom=0;right=0;pointerEvents=1;" parent="NFVaiHWZDi6x7oLXGxKS-9" vertex="1">
          <mxGeometry x="80" width="40" height="40" as="geometry">
            <mxRectangle width="40" height="40" as="alternateBounds" />
          </mxGeometry>
        </mxCell>
        <mxCell id="NFVaiHWZDi6x7oLXGxKS-13" value="" style="shape=partialRectangle;html=1;whiteSpace=wrap;connectable=0;strokeColor=inherit;overflow=hidden;fillColor=none;top=0;left=0;bottom=0;right=0;pointerEvents=1;" parent="NFVaiHWZDi6x7oLXGxKS-9" vertex="1">
          <mxGeometry x="120" width="40" height="40" as="geometry">
            <mxRectangle width="40" height="40" as="alternateBounds" />
          </mxGeometry>
        </mxCell>
        <mxCell id="NFVaiHWZDi6x7oLXGxKS-14" value="" style="shape=partialRectangle;html=1;whiteSpace=wrap;connectable=0;strokeColor=inherit;overflow=hidden;fillColor=none;top=0;left=0;bottom=0;right=0;pointerEvents=1;" parent="NFVaiHWZDi6x7oLXGxKS-9" vertex="1">
          <mxGeometry x="160" width="40" height="40" as="geometry">
            <mxRectangle width="40" height="40" as="alternateBounds" />
          </mxGeometry>
        </mxCell>
        <mxCell id="NFVaiHWZDi6x7oLXGxKS-15" value="" style="shape=partialRectangle;html=1;whiteSpace=wrap;connectable=0;strokeColor=inherit;overflow=hidden;fillColor=none;top=0;left=0;bottom=0;right=0;pointerEvents=1;" parent="NFVaiHWZDi6x7oLXGxKS-9" vertex="1">
          <mxGeometry x="200" width="40" height="40" as="geometry">
            <mxRectangle width="40" height="40" as="alternateBounds" />
          </mxGeometry>
        </mxCell>
        <mxCell id="NFVaiHWZDi6x7oLXGxKS-16" value="" style="shape=tableRow;horizontal=0;startSize=0;swimlaneHead=0;swimlaneBody=0;strokeColor=inherit;top=0;left=0;bottom=0;right=0;collapsible=0;dropTarget=0;fillColor=none;points=[[0,0.5],[1,0.5]];portConstraint=eastwest;" parent="NFVaiHWZDi6x7oLXGxKS-1" vertex="1">
          <mxGeometry y="80" width="240" height="40" as="geometry" />
        </mxCell>
        <mxCell id="NFVaiHWZDi6x7oLXGxKS-17" value="" style="shape=partialRectangle;html=1;whiteSpace=wrap;connectable=0;strokeColor=inherit;overflow=hidden;fillColor=none;top=0;left=0;bottom=0;right=0;pointerEvents=1;" parent="NFVaiHWZDi6x7oLXGxKS-16" vertex="1">
          <mxGeometry width="40" height="40" as="geometry">
            <mxRectangle width="40" height="40" as="alternateBounds" />
          </mxGeometry>
        </mxCell>
        <mxCell id="NFVaiHWZDi6x7oLXGxKS-18" value="" style="shape=partialRectangle;html=1;whiteSpace=wrap;connectable=0;strokeColor=inherit;overflow=hidden;fillColor=none;top=0;left=0;bottom=0;right=0;pointerEvents=1;" parent="NFVaiHWZDi6x7oLXGxKS-16" vertex="1">
          <mxGeometry x="40" width="40" height="40" as="geometry">
            <mxRectangle width="40" height="40" as="alternateBounds" />
          </mxGeometry>
        </mxCell>
        <mxCell id="NFVaiHWZDi6x7oLXGxKS-19" value="" style="shape=partialRectangle;html=1;whiteSpace=wrap;connectable=0;strokeColor=inherit;overflow=hidden;fillColor=none;top=0;left=0;bottom=0;right=0;pointerEvents=1;" parent="NFVaiHWZDi6x7oLXGxKS-16" vertex="1">
          <mxGeometry x="80" width="40" height="40" as="geometry">
            <mxRectangle width="40" height="40" as="alternateBounds" />
          </mxGeometry>
        </mxCell>
        <mxCell id="NFVaiHWZDi6x7oLXGxKS-20" value="" style="shape=partialRectangle;html=1;whiteSpace=wrap;connectable=0;strokeColor=inherit;overflow=hidden;fillColor=none;top=0;left=0;bottom=0;right=0;pointerEvents=1;" parent="NFVaiHWZDi6x7oLXGxKS-16" vertex="1">
          <mxGeometry x="120" width="40" height="40" as="geometry">
            <mxRectangle width="40" height="40" as="alternateBounds" />
          </mxGeometry>
        </mxCell>
        <mxCell id="NFVaiHWZDi6x7oLXGxKS-21" value="" style="shape=partialRectangle;html=1;whiteSpace=wrap;connectable=0;strokeColor=#B5B5B5;overflow=hidden;fillColor=#647687;top=0;left=0;bottom=0;right=0;pointerEvents=1;fontColor=#ffffff;perimeterSpacing=1;" parent="NFVaiHWZDi6x7oLXGxKS-16" vertex="1">
          <mxGeometry x="160" width="40" height="40" as="geometry">
            <mxRectangle width="40" height="40" as="alternateBounds" />
          </mxGeometry>
        </mxCell>
        <mxCell id="NFVaiHWZDi6x7oLXGxKS-22" value="" style="shape=partialRectangle;html=1;whiteSpace=wrap;connectable=0;strokeColor=inherit;overflow=hidden;fillColor=none;top=0;left=0;bottom=0;right=0;pointerEvents=1;" parent="NFVaiHWZDi6x7oLXGxKS-16" vertex="1">
          <mxGeometry x="200" width="40" height="40" as="geometry">
            <mxRectangle width="40" height="40" as="alternateBounds" />
          </mxGeometry>
        </mxCell>
        <mxCell id="NFVaiHWZDi6x7oLXGxKS-23" value="" style="shape=tableRow;horizontal=0;startSize=0;swimlaneHead=0;swimlaneBody=0;strokeColor=inherit;top=0;left=0;bottom=0;right=0;collapsible=0;dropTarget=0;fillColor=none;points=[[0,0.5],[1,0.5]];portConstraint=eastwest;" parent="NFVaiHWZDi6x7oLXGxKS-1" vertex="1">
          <mxGeometry y="120" width="240" height="40" as="geometry" />
        </mxCell>
        <mxCell id="NFVaiHWZDi6x7oLXGxKS-24" value="" style="shape=partialRectangle;html=1;whiteSpace=wrap;connectable=0;strokeColor=inherit;overflow=hidden;fillColor=none;top=0;left=0;bottom=0;right=0;pointerEvents=1;" parent="NFVaiHWZDi6x7oLXGxKS-23" vertex="1">
          <mxGeometry width="40" height="40" as="geometry">
            <mxRectangle width="40" height="40" as="alternateBounds" />
          </mxGeometry>
        </mxCell>
        <mxCell id="NFVaiHWZDi6x7oLXGxKS-25" value="" style="shape=partialRectangle;html=1;whiteSpace=wrap;connectable=0;strokeColor=inherit;overflow=hidden;fillColor=none;top=0;left=0;bottom=0;right=0;pointerEvents=1;" parent="NFVaiHWZDi6x7oLXGxKS-23" vertex="1">
          <mxGeometry x="40" width="40" height="40" as="geometry">
            <mxRectangle width="40" height="40" as="alternateBounds" />
          </mxGeometry>
        </mxCell>
        <mxCell id="NFVaiHWZDi6x7oLXGxKS-26" value="" style="shape=partialRectangle;html=1;whiteSpace=wrap;connectable=0;strokeColor=inherit;overflow=hidden;fillColor=none;top=0;left=0;bottom=0;right=0;pointerEvents=1;" parent="NFVaiHWZDi6x7oLXGxKS-23" vertex="1">
          <mxGeometry x="80" width="40" height="40" as="geometry">
            <mxRectangle width="40" height="40" as="alternateBounds" />
          </mxGeometry>
        </mxCell>
        <mxCell id="NFVaiHWZDi6x7oLXGxKS-27" value="" style="shape=partialRectangle;html=1;whiteSpace=wrap;connectable=0;strokeColor=inherit;overflow=hidden;fillColor=none;top=0;left=0;bottom=0;right=0;pointerEvents=1;" parent="NFVaiHWZDi6x7oLXGxKS-23" vertex="1">
          <mxGeometry x="120" width="40" height="40" as="geometry">
            <mxRectangle width="40" height="40" as="alternateBounds" />
          </mxGeometry>
        </mxCell>
        <mxCell id="NFVaiHWZDi6x7oLXGxKS-28" value="" style="shape=partialRectangle;html=1;whiteSpace=wrap;connectable=0;strokeColor=#314354;overflow=hidden;fillColor=#647687;top=0;left=0;bottom=0;right=0;pointerEvents=1;fontColor=#ffffff;" parent="NFVaiHWZDi6x7oLXGxKS-23" vertex="1">
          <mxGeometry x="160" width="40" height="40" as="geometry">
            <mxRectangle width="40" height="40" as="alternateBounds" />
          </mxGeometry>
        </mxCell>
        <mxCell id="NFVaiHWZDi6x7oLXGxKS-29" value="" style="shape=partialRectangle;html=1;whiteSpace=wrap;connectable=0;strokeColor=inherit;overflow=hidden;fillColor=none;top=0;left=0;bottom=0;right=0;pointerEvents=1;" parent="NFVaiHWZDi6x7oLXGxKS-23" vertex="1">
          <mxGeometry x="200" width="40" height="40" as="geometry">
            <mxRectangle width="40" height="40" as="alternateBounds" />
          </mxGeometry>
        </mxCell>
        <mxCell id="NFVaiHWZDi6x7oLXGxKS-30" value="" style="shape=tableRow;horizontal=0;startSize=0;swimlaneHead=0;swimlaneBody=0;strokeColor=inherit;top=0;left=0;bottom=0;right=0;collapsible=0;dropTarget=0;fillColor=none;points=[[0,0.5],[1,0.5]];portConstraint=eastwest;" parent="NFVaiHWZDi6x7oLXGxKS-1" vertex="1">
          <mxGeometry y="160" width="240" height="40" as="geometry" />
        </mxCell>
        <mxCell id="NFVaiHWZDi6x7oLXGxKS-31" value="" style="shape=partialRectangle;html=1;whiteSpace=wrap;connectable=0;strokeColor=inherit;overflow=hidden;fillColor=none;top=0;left=0;bottom=0;right=0;pointerEvents=1;" parent="NFVaiHWZDi6x7oLXGxKS-30" vertex="1">
          <mxGeometry width="40" height="40" as="geometry">
            <mxRectangle width="40" height="40" as="alternateBounds" />
          </mxGeometry>
        </mxCell>
        <mxCell id="NFVaiHWZDi6x7oLXGxKS-32" value="" style="shape=partialRectangle;html=1;whiteSpace=wrap;connectable=0;strokeColor=#314354;overflow=hidden;fillColor=#647687;top=0;left=0;bottom=0;right=0;pointerEvents=1;fontColor=#ffffff;" parent="NFVaiHWZDi6x7oLXGxKS-30" vertex="1">
          <mxGeometry x="40" width="40" height="40" as="geometry">
            <mxRectangle width="40" height="40" as="alternateBounds" />
          </mxGeometry>
        </mxCell>
        <mxCell id="NFVaiHWZDi6x7oLXGxKS-33" value="" style="shape=partialRectangle;html=1;whiteSpace=wrap;connectable=0;strokeColor=#314354;overflow=hidden;fillColor=#647687;top=0;left=0;bottom=0;right=0;pointerEvents=1;fontColor=#ffffff;" parent="NFVaiHWZDi6x7oLXGxKS-30" vertex="1">
          <mxGeometry x="80" width="40" height="40" as="geometry">
            <mxRectangle width="40" height="40" as="alternateBounds" />
          </mxGeometry>
        </mxCell>
        <mxCell id="NFVaiHWZDi6x7oLXGxKS-34" value="" style="shape=partialRectangle;html=1;whiteSpace=wrap;connectable=0;strokeColor=#314354;overflow=hidden;fillColor=#647687;top=0;left=0;bottom=0;right=0;pointerEvents=1;fontColor=#ffffff;" parent="NFVaiHWZDi6x7oLXGxKS-30" vertex="1">
          <mxGeometry x="120" width="40" height="40" as="geometry">
            <mxRectangle width="40" height="40" as="alternateBounds" />
          </mxGeometry>
        </mxCell>
        <mxCell id="NFVaiHWZDi6x7oLXGxKS-35" value="" style="shape=partialRectangle;html=1;whiteSpace=wrap;connectable=0;strokeColor=#314354;overflow=hidden;fillColor=#647687;top=0;left=0;bottom=0;right=0;pointerEvents=1;fontColor=#ffffff;" parent="NFVaiHWZDi6x7oLXGxKS-30" vertex="1">
          <mxGeometry x="160" width="40" height="40" as="geometry">
            <mxRectangle width="40" height="40" as="alternateBounds" />
          </mxGeometry>
        </mxCell>
        <mxCell id="NFVaiHWZDi6x7oLXGxKS-36" value="" style="shape=partialRectangle;html=1;whiteSpace=wrap;connectable=0;strokeColor=inherit;overflow=hidden;fillColor=none;top=0;left=0;bottom=0;right=0;pointerEvents=1;" parent="NFVaiHWZDi6x7oLXGxKS-30" vertex="1">
          <mxGeometry x="200" width="40" height="40" as="geometry">
            <mxRectangle width="40" height="40" as="alternateBounds" />
          </mxGeometry>
        </mxCell>
        <mxCell id="NFVaiHWZDi6x7oLXGxKS-37" value="" style="shape=tableRow;horizontal=0;startSize=0;swimlaneHead=0;swimlaneBody=0;strokeColor=inherit;top=0;left=0;bottom=0;right=0;collapsible=0;dropTarget=0;fillColor=none;points=[[0,0.5],[1,0.5]];portConstraint=eastwest;" parent="NFVaiHWZDi6x7oLXGxKS-1" vertex="1">
          <mxGeometry y="200" width="240" height="40" as="geometry" />
        </mxCell>
        <mxCell id="NFVaiHWZDi6x7oLXGxKS-38" value="" style="shape=partialRectangle;html=1;whiteSpace=wrap;connectable=0;strokeColor=inherit;overflow=hidden;fillColor=none;top=0;left=0;bottom=0;right=0;pointerEvents=1;" parent="NFVaiHWZDi6x7oLXGxKS-37" vertex="1">
          <mxGeometry width="40" height="40" as="geometry">
            <mxRectangle width="40" height="40" as="alternateBounds" />
          </mxGeometry>
        </mxCell>
        <mxCell id="NFVaiHWZDi6x7oLXGxKS-39" value="" style="shape=partialRectangle;html=1;whiteSpace=wrap;connectable=0;strokeColor=inherit;overflow=hidden;fillColor=none;top=0;left=0;bottom=0;right=0;pointerEvents=1;" parent="NFVaiHWZDi6x7oLXGxKS-37" vertex="1">
          <mxGeometry x="40" width="40" height="40" as="geometry">
            <mxRectangle width="40" height="40" as="alternateBounds" />
          </mxGeometry>
        </mxCell>
        <mxCell id="NFVaiHWZDi6x7oLXGxKS-40" value="" style="shape=partialRectangle;html=1;whiteSpace=wrap;connectable=0;strokeColor=inherit;overflow=hidden;fillColor=none;top=0;left=0;bottom=0;right=0;pointerEvents=1;" parent="NFVaiHWZDi6x7oLXGxKS-37" vertex="1">
          <mxGeometry x="80" width="40" height="40" as="geometry">
            <mxRectangle width="40" height="40" as="alternateBounds" />
          </mxGeometry>
        </mxCell>
        <mxCell id="NFVaiHWZDi6x7oLXGxKS-41" value="" style="shape=partialRectangle;html=1;whiteSpace=wrap;connectable=0;strokeColor=inherit;overflow=hidden;fillColor=none;top=0;left=0;bottom=0;right=0;pointerEvents=1;" parent="NFVaiHWZDi6x7oLXGxKS-37" vertex="1">
          <mxGeometry x="120" width="40" height="40" as="geometry">
            <mxRectangle width="40" height="40" as="alternateBounds" />
          </mxGeometry>
        </mxCell>
        <mxCell id="NFVaiHWZDi6x7oLXGxKS-42" value="" style="shape=partialRectangle;html=1;whiteSpace=wrap;connectable=0;strokeColor=inherit;overflow=hidden;fillColor=none;top=0;left=0;bottom=0;right=0;pointerEvents=1;" parent="NFVaiHWZDi6x7oLXGxKS-37" vertex="1">
          <mxGeometry x="160" width="40" height="40" as="geometry">
            <mxRectangle width="40" height="40" as="alternateBounds" />
          </mxGeometry>
        </mxCell>
        <mxCell id="NFVaiHWZDi6x7oLXGxKS-43" value="" style="shape=partialRectangle;html=1;whiteSpace=wrap;connectable=0;strokeColor=inherit;overflow=hidden;fillColor=none;top=0;left=0;bottom=0;right=0;pointerEvents=1;" parent="NFVaiHWZDi6x7oLXGxKS-37" vertex="1">
          <mxGeometry x="200" width="40" height="40" as="geometry">
            <mxRectangle width="40" height="40" as="alternateBounds" />
          </mxGeometry>
        </mxCell>
        <mxCell id="NFVaiHWZDi6x7oLXGxKS-44" value="" style="endArrow=none;dashed=1;html=1;rounded=0;dashPattern=1 1;strokeColor=#B5B5B5;" parent="1" source="NFVaiHWZDi6x7oLXGxKS-55" edge="1">
          <mxGeometry width="50" height="50" relative="1" as="geometry">
            <mxPoint x="180" y="226" as="sourcePoint" />
            <mxPoint x="200" y="123" as="targetPoint" />
          </mxGeometry>
        </mxCell>
        <mxCell id="NFVaiHWZDi6x7oLXGxKS-45" value="" style="endArrow=baseDash;html=1;rounded=0;startSize=3;movable=1;resizable=1;rotatable=1;deletable=1;editable=1;locked=0;connectable=1;endSize=2;endFill=0;strokeColor=#B5B5B5;" parent="1" edge="1">
          <mxGeometry width="50" height="50" relative="1" as="geometry">
            <mxPoint x="145" y="128.00000000000003" as="sourcePoint" />
            <mxPoint x="117" y="142" as="targetPoint" />
          </mxGeometry>
        </mxCell>
        <mxCell id="NFVaiHWZDi6x7oLXGxKS-46" value="" style="endArrow=none;html=1;rounded=0;startSize=3;movable=1;resizable=1;rotatable=1;deletable=1;editable=1;locked=0;connectable=1;endSize=2;endFill=0;startArrow=baseDash;startFill=0;strokeColor=#B5B5B5;" parent="1" edge="1">
          <mxGeometry width="50" height="50" relative="1" as="geometry">
            <mxPoint x="173" y="114.00000000000003" as="sourcePoint" />
            <mxPoint x="145" y="128" as="targetPoint" />
          </mxGeometry>
        </mxCell>
        <mxCell id="NFVaiHWZDi6x7oLXGxKS-47" value="" style="endArrow=none;dashed=1;html=1;rounded=0;dashPattern=1 1;strokeColor=#B5B5B5;" parent="1" target="NFVaiHWZDi6x7oLXGxKS-55" edge="1">
          <mxGeometry width="50" height="50" relative="1" as="geometry">
            <mxPoint x="100" y="200" as="sourcePoint" />
            <mxPoint x="107" y="115" as="targetPoint" />
          </mxGeometry>
        </mxCell>
        <mxCell id="NFVaiHWZDi6x7oLXGxKS-48" value="" style="endArrow=none;dashed=1;html=1;rounded=0;dashPattern=1 1;strokeColor=#B5B5B5;" parent="1" source="NFVaiHWZDi6x7oLXGxKS-55" edge="1">
          <mxGeometry width="50" height="50" relative="1" as="geometry">
            <mxPoint x="140" y="110" as="sourcePoint" />
            <mxPoint x="200" y="135" as="targetPoint" />
          </mxGeometry>
        </mxCell>
        <mxCell id="NFVaiHWZDi6x7oLXGxKS-49" value="" style="endArrow=none;dashed=1;html=1;rounded=0;exitX=0.576;exitY=0.744;exitDx=0;exitDy=0;exitPerimeter=0;dashPattern=1 1;strokeColor=#B5B5B5;" parent="1" source="NFVaiHWZDi6x7oLXGxKS-55" edge="1">
          <mxGeometry width="50" height="50" relative="1" as="geometry">
            <mxPoint x="140" y="110" as="sourcePoint" />
            <mxPoint x="200" y="153" as="targetPoint" />
          </mxGeometry>
        </mxCell>
        <mxCell id="NFVaiHWZDi6x7oLXGxKS-50" value="" style="endArrow=none;dashed=1;html=1;rounded=0;dashPattern=1 1;strokeColor=#B5B5B5;" parent="1" edge="1">
          <mxGeometry width="50" height="50" relative="1" as="geometry">
            <mxPoint x="130" y="100" as="sourcePoint" />
            <mxPoint x="200" y="178" as="targetPoint" />
          </mxGeometry>
        </mxCell>
        <mxCell id="NFVaiHWZDi6x7oLXGxKS-51" value="" style="endArrow=none;dashed=1;html=1;rounded=0;dashPattern=1 1;strokeColor=#B5B5B5;" parent="1" edge="1">
          <mxGeometry width="50" height="50" relative="1" as="geometry">
            <mxPoint x="130" y="100" as="sourcePoint" />
            <mxPoint x="190" y="200" as="targetPoint" />
          </mxGeometry>
        </mxCell>
        <mxCell id="NFVaiHWZDi6x7oLXGxKS-52" value="" style="endArrow=none;dashed=1;html=1;rounded=0;dashPattern=1 1;strokeColor=#B5B5B5;" parent="1" edge="1">
          <mxGeometry width="50" height="50" relative="1" as="geometry">
            <mxPoint x="130" y="100" as="sourcePoint" />
            <mxPoint x="164" y="200" as="targetPoint" />
          </mxGeometry>
        </mxCell>
        <mxCell id="NFVaiHWZDi6x7oLXGxKS-53" value="" style="endArrow=none;dashed=1;html=1;rounded=0;dashPattern=1 1;strokeColor=#B5B5B5;" parent="1" edge="1">
          <mxGeometry width="50" height="50" relative="1" as="geometry">
            <mxPoint x="130" y="100" as="sourcePoint" />
            <mxPoint x="140" y="200" as="targetPoint" />
          </mxGeometry>
        </mxCell>
        <mxCell id="NFVaiHWZDi6x7oLXGxKS-54" value="" style="endArrow=none;dashed=1;html=1;rounded=0;dashPattern=1 1;strokeColor=#B5B5B5;" parent="1" edge="1">
          <mxGeometry width="50" height="50" relative="1" as="geometry">
            <mxPoint x="130" y="100" as="sourcePoint" />
            <mxPoint x="120" y="200" as="targetPoint" />
          </mxGeometry>
        </mxCell>
        <mxCell id="NFVaiHWZDi6x7oLXGxKS-55" value="" style="shape=waypoint;sketch=0;fillStyle=solid;size=6;pointerEvents=1;points=[];fillColor=#e51400;resizable=0;rotatable=0;perimeter=centerPerimeter;snapToPoint=1;fontColor=#ffffff;strokeColor=#B20000;" parent="1" vertex="1">
          <mxGeometry x="120" y="90" width="20" height="20" as="geometry" />
        </mxCell>
        <mxCell id="NFVaiHWZDi6x7oLXGxKS-90" value="" style="endArrow=none;html=1;rounded=0;" parent="1" edge="1">
          <mxGeometry width="50" height="50" relative="1" as="geometry">
            <mxPoint x="53" y="139" as="sourcePoint" />
            <mxPoint x="197" y="67" as="targetPoint" />
          </mxGeometry>
        </mxCell>
        <mxCell id="NFVaiHWZDi6x7oLXGxKS-91" value="" style="endArrow=none;html=1;rounded=0;" parent="1" edge="1">
          <mxGeometry width="50" height="50" relative="1" as="geometry">
            <mxPoint x="80" y="160" as="sourcePoint" />
            <mxPoint x="100" y="200" as="targetPoint" />
          </mxGeometry>
        </mxCell>
        <mxCell id="NFVaiHWZDi6x7oLXGxKS-92" value="" style="endArrow=none;html=1;rounded=0;" parent="1" edge="1">
          <mxGeometry width="50" height="50" relative="1" as="geometry">
            <mxPoint x="96" y="152" as="sourcePoint" />
            <mxPoint x="120" y="200" as="targetPoint" />
          </mxGeometry>
        </mxCell>
        <mxCell id="NFVaiHWZDi6x7oLXGxKS-93" value="" style="endArrow=none;html=1;rounded=0;" parent="1" edge="1">
          <mxGeometry width="50" height="50" relative="1" as="geometry">
            <mxPoint x="112" y="144" as="sourcePoint" />
            <mxPoint x="140" y="200" as="targetPoint" />
          </mxGeometry>
        </mxCell>
        <mxCell id="NFVaiHWZDi6x7oLXGxKS-94" value="" style="endArrow=none;html=1;rounded=0;" parent="1" edge="1">
          <mxGeometry width="50" height="50" relative="1" as="geometry">
            <mxPoint x="131" y="135" as="sourcePoint" />
            <mxPoint x="164" y="200" as="targetPoint" />
          </mxGeometry>
        </mxCell>
        <mxCell id="NFVaiHWZDi6x7oLXGxKS-95" value="" style="endArrow=none;html=1;rounded=0;" parent="1" edge="1">
          <mxGeometry width="50" height="50" relative="1" as="geometry">
            <mxPoint x="170" y="160" as="sourcePoint" />
            <mxPoint x="190" y="200" as="targetPoint" />
          </mxGeometry>
        </mxCell>
        <mxCell id="NFVaiHWZDi6x7oLXGxKS-96" value="" style="endArrow=none;html=1;rounded=0;" parent="1" edge="1">
          <mxGeometry width="50" height="50" relative="1" as="geometry">
            <mxPoint x="152" y="124" as="sourcePoint" />
            <mxPoint x="172" y="164" as="targetPoint" />
          </mxGeometry>
        </mxCell>
        <mxCell id="NFVaiHWZDi6x7oLXGxKS-98" value="" style="endArrow=none;html=1;rounded=0;" parent="1" edge="1">
          <mxGeometry width="50" height="50" relative="1" as="geometry">
            <mxPoint x="180" y="138" as="sourcePoint" />
            <mxPoint x="200" y="178" as="targetPoint" />
          </mxGeometry>
        </mxCell>
        <mxCell id="NFVaiHWZDi6x7oLXGxKS-99" value="" style="endArrow=none;html=1;rounded=0;" parent="1" edge="1">
          <mxGeometry width="50" height="50" relative="1" as="geometry">
            <mxPoint x="169" y="116" as="sourcePoint" />
            <mxPoint x="189" y="156" as="targetPoint" />
          </mxGeometry>
        </mxCell>
        <mxCell id="NFVaiHWZDi6x7oLXGxKS-100" value="" style="endArrow=none;html=1;rounded=0;" parent="1" edge="1">
          <mxGeometry width="50" height="50" relative="1" as="geometry">
            <mxPoint x="179" y="111" as="sourcePoint" />
            <mxPoint x="200" y="153" as="targetPoint" />
          </mxGeometry>
        </mxCell>
        <mxCell id="NFVaiHWZDi6x7oLXGxKS-101" value="" style="endArrow=none;html=1;rounded=0;" parent="1" edge="1">
          <mxGeometry width="50" height="50" relative="1" as="geometry">
            <mxPoint x="186" y="107" as="sourcePoint" />
            <mxPoint x="200" y="135" as="targetPoint" />
          </mxGeometry>
        </mxCell>
        <mxCell id="NFVaiHWZDi6x7oLXGxKS-102" value="" style="endArrow=none;html=1;rounded=0;" parent="1" edge="1">
          <mxGeometry width="50" height="50" relative="1" as="geometry">
            <mxPoint x="191" y="105" as="sourcePoint" />
            <mxPoint x="200" y="123" as="targetPoint" />
          </mxGeometry>
        </mxCell>
        <mxCell id="NFVaiHWZDi6x7oLXGxKS-103" value="" style="endArrow=none;html=1;rounded=0;" parent="1" edge="1">
          <mxGeometry width="50" height="50" relative="1" as="geometry">
            <mxPoint x="177" y="77" as="sourcePoint" />
            <mxPoint x="198" y="119" as="targetPoint" />
          </mxGeometry>
        </mxCell>
        <mxCell id="NFVaiHWZDi6x7oLXGxKS-104" value="" style="endArrow=none;html=1;rounded=0;" parent="1" edge="1">
          <mxGeometry width="50" height="50" relative="1" as="geometry">
            <mxPoint x="172" y="79" as="sourcePoint" />
            <mxPoint x="193" y="121" as="targetPoint" />
          </mxGeometry>
        </mxCell>
        <mxCell id="NFVaiHWZDi6x7oLXGxKS-105" value="" style="endArrow=none;html=1;rounded=0;" parent="1" edge="1">
          <mxGeometry width="50" height="50" relative="1" as="geometry">
            <mxPoint x="165" y="83" as="sourcePoint" />
            <mxPoint x="186" y="125" as="targetPoint" />
          </mxGeometry>
        </mxCell>
        <mxCell id="NFVaiHWZDi6x7oLXGxKS-106" value="" style="endArrow=none;html=1;rounded=0;" parent="1" edge="1">
          <mxGeometry width="50" height="50" relative="1" as="geometry">
            <mxPoint x="155" y="88" as="sourcePoint" />
            <mxPoint x="176" y="130" as="targetPoint" />
          </mxGeometry>
        </mxCell>
        <mxCell id="NFVaiHWZDi6x7oLXGxKS-107" value="" style="endArrow=none;html=1;rounded=0;" parent="1" edge="1">
          <mxGeometry width="50" height="50" relative="1" as="geometry">
            <mxPoint x="138" y="96" as="sourcePoint" />
            <mxPoint x="159" y="138" as="targetPoint" />
          </mxGeometry>
        </mxCell>
        <mxCell id="NFVaiHWZDi6x7oLXGxKS-108" value="" style="endArrow=none;html=1;rounded=0;" parent="1" edge="1">
          <mxGeometry width="50" height="50" relative="1" as="geometry">
            <mxPoint x="117" y="107" as="sourcePoint" />
            <mxPoint x="138" y="149" as="targetPoint" />
          </mxGeometry>
        </mxCell>
        <mxCell id="NFVaiHWZDi6x7oLXGxKS-109" value="" style="endArrow=none;html=1;rounded=0;" parent="1" edge="1">
          <mxGeometry width="50" height="50" relative="1" as="geometry">
            <mxPoint x="98" y="116" as="sourcePoint" />
            <mxPoint x="119" y="158" as="targetPoint" />
          </mxGeometry>
        </mxCell>
        <mxCell id="NFVaiHWZDi6x7oLXGxKS-110" value="" style="endArrow=none;html=1;rounded=0;" parent="1" edge="1">
          <mxGeometry width="50" height="50" relative="1" as="geometry">
            <mxPoint x="82" y="124" as="sourcePoint" />
            <mxPoint x="103" y="166" as="targetPoint" />
          </mxGeometry>
        </mxCell>
        <mxCell id="NFVaiHWZDi6x7oLXGxKS-111" value="" style="endArrow=none;html=1;rounded=0;" parent="1" edge="1">
          <mxGeometry width="50" height="50" relative="1" as="geometry">
            <mxPoint x="66" y="132" as="sourcePoint" />
            <mxPoint x="87" y="174" as="targetPoint" />
          </mxGeometry>
        </mxCell>
      </root>
    </mxGraphModel>
  </diagram>
  <diagram id="3i0JaH7s-TBMLoiKsHUw" name="Page-5">
    <mxGraphModel dx="1167" dy="593" grid="1" gridSize="10" guides="1" tooltips="1" connect="1" arrows="1" fold="1" page="1" pageScale="1" pageWidth="1169" pageHeight="827" math="0" shadow="0">
      <root>
        <mxCell id="0" />
        <mxCell id="1" parent="0" />
        <mxCell id="S1Nd8wxrxAmofqmQGQqq-1" value="" style="shape=table;startSize=0;container=1;collapsible=0;childLayout=tableLayout;strokeColor=#B5B5B5;" parent="1" vertex="1">
          <mxGeometry x="40" y="40" width="200" height="160" as="geometry" />
        </mxCell>
        <mxCell id="S1Nd8wxrxAmofqmQGQqq-2" value="" style="shape=tableRow;horizontal=0;startSize=0;swimlaneHead=0;swimlaneBody=0;strokeColor=inherit;top=0;left=0;bottom=0;right=0;collapsible=0;dropTarget=0;fillColor=none;points=[[0,0.5],[1,0.5]];portConstraint=eastwest;" parent="S1Nd8wxrxAmofqmQGQqq-1" vertex="1">
          <mxGeometry width="200" height="40" as="geometry" />
        </mxCell>
        <mxCell id="S1Nd8wxrxAmofqmQGQqq-3" value="" style="shape=partialRectangle;html=1;whiteSpace=wrap;connectable=0;strokeColor=inherit;overflow=hidden;fillColor=none;top=0;left=0;bottom=0;right=0;pointerEvents=1;" parent="S1Nd8wxrxAmofqmQGQqq-2" vertex="1">
          <mxGeometry width="40" height="40" as="geometry">
            <mxRectangle width="40" height="40" as="alternateBounds" />
          </mxGeometry>
        </mxCell>
        <mxCell id="S1Nd8wxrxAmofqmQGQqq-4" value="" style="shape=partialRectangle;html=1;whiteSpace=wrap;connectable=0;strokeColor=inherit;overflow=hidden;fillColor=none;top=0;left=0;bottom=0;right=0;pointerEvents=1;" parent="S1Nd8wxrxAmofqmQGQqq-2" vertex="1">
          <mxGeometry x="40" width="40" height="40" as="geometry">
            <mxRectangle width="40" height="40" as="alternateBounds" />
          </mxGeometry>
        </mxCell>
        <mxCell id="S1Nd8wxrxAmofqmQGQqq-5" value="" style="shape=partialRectangle;html=1;whiteSpace=wrap;connectable=0;strokeColor=inherit;overflow=hidden;fillColor=none;top=0;left=0;bottom=0;right=0;pointerEvents=1;" parent="S1Nd8wxrxAmofqmQGQqq-2" vertex="1">
          <mxGeometry x="80" width="40" height="40" as="geometry">
            <mxRectangle width="40" height="40" as="alternateBounds" />
          </mxGeometry>
        </mxCell>
        <mxCell id="S1Nd8wxrxAmofqmQGQqq-6" value="" style="shape=partialRectangle;html=1;whiteSpace=wrap;connectable=0;strokeColor=inherit;overflow=hidden;fillColor=none;top=0;left=0;bottom=0;right=0;pointerEvents=1;" parent="S1Nd8wxrxAmofqmQGQqq-2" vertex="1">
          <mxGeometry x="120" width="40" height="40" as="geometry">
            <mxRectangle width="40" height="40" as="alternateBounds" />
          </mxGeometry>
        </mxCell>
        <mxCell id="S1Nd8wxrxAmofqmQGQqq-7" value="" style="shape=partialRectangle;html=1;whiteSpace=wrap;connectable=0;strokeColor=inherit;overflow=hidden;fillColor=none;top=0;left=0;bottom=0;right=0;pointerEvents=1;" parent="S1Nd8wxrxAmofqmQGQqq-2" vertex="1">
          <mxGeometry x="160" width="40" height="40" as="geometry">
            <mxRectangle width="40" height="40" as="alternateBounds" />
          </mxGeometry>
        </mxCell>
        <mxCell id="S1Nd8wxrxAmofqmQGQqq-9" value="" style="shape=tableRow;horizontal=0;startSize=0;swimlaneHead=0;swimlaneBody=0;strokeColor=inherit;top=0;left=0;bottom=0;right=0;collapsible=0;dropTarget=0;fillColor=none;points=[[0,0.5],[1,0.5]];portConstraint=eastwest;" parent="S1Nd8wxrxAmofqmQGQqq-1" vertex="1">
          <mxGeometry y="40" width="200" height="40" as="geometry" />
        </mxCell>
        <mxCell id="S1Nd8wxrxAmofqmQGQqq-10" value="" style="shape=partialRectangle;html=1;whiteSpace=wrap;connectable=0;strokeColor=inherit;overflow=hidden;fillColor=none;top=0;left=0;bottom=0;right=0;pointerEvents=1;" parent="S1Nd8wxrxAmofqmQGQqq-9" vertex="1">
          <mxGeometry width="40" height="40" as="geometry">
            <mxRectangle width="40" height="40" as="alternateBounds" />
          </mxGeometry>
        </mxCell>
        <mxCell id="S1Nd8wxrxAmofqmQGQqq-11" value="" style="shape=partialRectangle;html=1;whiteSpace=wrap;connectable=0;strokeColor=inherit;overflow=hidden;fillColor=none;top=0;left=0;bottom=0;right=0;pointerEvents=1;" parent="S1Nd8wxrxAmofqmQGQqq-9" vertex="1">
          <mxGeometry x="40" width="40" height="40" as="geometry">
            <mxRectangle width="40" height="40" as="alternateBounds" />
          </mxGeometry>
        </mxCell>
        <mxCell id="S1Nd8wxrxAmofqmQGQqq-12" value="" style="shape=partialRectangle;html=1;whiteSpace=wrap;connectable=0;strokeColor=inherit;overflow=hidden;fillColor=none;top=0;left=0;bottom=0;right=0;pointerEvents=1;" parent="S1Nd8wxrxAmofqmQGQqq-9" vertex="1">
          <mxGeometry x="80" width="40" height="40" as="geometry">
            <mxRectangle width="40" height="40" as="alternateBounds" />
          </mxGeometry>
        </mxCell>
        <mxCell id="S1Nd8wxrxAmofqmQGQqq-13" value="" style="shape=partialRectangle;html=1;whiteSpace=wrap;connectable=0;strokeColor=inherit;overflow=hidden;fillColor=none;top=0;left=0;bottom=0;right=0;pointerEvents=1;" parent="S1Nd8wxrxAmofqmQGQqq-9" vertex="1">
          <mxGeometry x="120" width="40" height="40" as="geometry">
            <mxRectangle width="40" height="40" as="alternateBounds" />
          </mxGeometry>
        </mxCell>
        <mxCell id="S1Nd8wxrxAmofqmQGQqq-14" value="" style="shape=partialRectangle;html=1;whiteSpace=wrap;connectable=0;strokeColor=inherit;overflow=hidden;fillColor=none;top=0;left=0;bottom=0;right=0;pointerEvents=1;" parent="S1Nd8wxrxAmofqmQGQqq-9" vertex="1">
          <mxGeometry x="160" width="40" height="40" as="geometry">
            <mxRectangle width="40" height="40" as="alternateBounds" />
          </mxGeometry>
        </mxCell>
        <mxCell id="S1Nd8wxrxAmofqmQGQqq-16" value="" style="shape=tableRow;horizontal=0;startSize=0;swimlaneHead=0;swimlaneBody=0;strokeColor=inherit;top=0;left=0;bottom=0;right=0;collapsible=0;dropTarget=0;fillColor=none;points=[[0,0.5],[1,0.5]];portConstraint=eastwest;" parent="S1Nd8wxrxAmofqmQGQqq-1" vertex="1">
          <mxGeometry y="80" width="200" height="40" as="geometry" />
        </mxCell>
        <mxCell id="S1Nd8wxrxAmofqmQGQqq-17" value="" style="shape=partialRectangle;html=1;whiteSpace=wrap;connectable=0;strokeColor=inherit;overflow=hidden;fillColor=none;top=0;left=0;bottom=0;right=0;pointerEvents=1;" parent="S1Nd8wxrxAmofqmQGQqq-16" vertex="1">
          <mxGeometry width="40" height="40" as="geometry">
            <mxRectangle width="40" height="40" as="alternateBounds" />
          </mxGeometry>
        </mxCell>
        <mxCell id="S1Nd8wxrxAmofqmQGQqq-18" value="" style="shape=partialRectangle;html=1;whiteSpace=wrap;connectable=0;strokeColor=inherit;overflow=hidden;fillColor=none;top=0;left=0;bottom=0;right=0;pointerEvents=1;" parent="S1Nd8wxrxAmofqmQGQqq-16" vertex="1">
          <mxGeometry x="40" width="40" height="40" as="geometry">
            <mxRectangle width="40" height="40" as="alternateBounds" />
          </mxGeometry>
        </mxCell>
        <mxCell id="S1Nd8wxrxAmofqmQGQqq-19" value="" style="shape=partialRectangle;html=1;whiteSpace=wrap;connectable=0;strokeColor=inherit;overflow=hidden;fillColor=none;top=0;left=0;bottom=0;right=0;pointerEvents=1;" parent="S1Nd8wxrxAmofqmQGQqq-16" vertex="1">
          <mxGeometry x="80" width="40" height="40" as="geometry">
            <mxRectangle width="40" height="40" as="alternateBounds" />
          </mxGeometry>
        </mxCell>
        <mxCell id="S1Nd8wxrxAmofqmQGQqq-20" value="" style="shape=partialRectangle;html=1;whiteSpace=wrap;connectable=0;strokeColor=inherit;overflow=hidden;fillColor=none;top=0;left=0;bottom=0;right=0;pointerEvents=1;" parent="S1Nd8wxrxAmofqmQGQqq-16" vertex="1">
          <mxGeometry x="120" width="40" height="40" as="geometry">
            <mxRectangle width="40" height="40" as="alternateBounds" />
          </mxGeometry>
        </mxCell>
        <mxCell id="S1Nd8wxrxAmofqmQGQqq-21" value="" style="shape=partialRectangle;html=1;whiteSpace=wrap;connectable=0;strokeColor=#314354;overflow=hidden;fillColor=#647687;top=0;left=0;bottom=0;right=0;pointerEvents=1;fontColor=#ffffff;" parent="S1Nd8wxrxAmofqmQGQqq-16" vertex="1">
          <mxGeometry x="160" width="40" height="40" as="geometry">
            <mxRectangle width="40" height="40" as="alternateBounds" />
          </mxGeometry>
        </mxCell>
        <mxCell id="P5o3gjY14oherN40jNEH-16" style="shape=tableRow;horizontal=0;startSize=0;swimlaneHead=0;swimlaneBody=0;strokeColor=inherit;top=0;left=0;bottom=0;right=0;collapsible=0;dropTarget=0;fillColor=none;points=[[0,0.5],[1,0.5]];portConstraint=eastwest;" parent="S1Nd8wxrxAmofqmQGQqq-1" vertex="1">
          <mxGeometry y="120" width="200" height="40" as="geometry" />
        </mxCell>
        <mxCell id="P5o3gjY14oherN40jNEH-17" style="shape=partialRectangle;html=1;whiteSpace=wrap;connectable=0;strokeColor=inherit;overflow=hidden;fillColor=none;top=0;left=0;bottom=0;right=0;pointerEvents=1;" parent="P5o3gjY14oherN40jNEH-16" vertex="1">
          <mxGeometry width="40" height="40" as="geometry">
            <mxRectangle width="40" height="40" as="alternateBounds" />
          </mxGeometry>
        </mxCell>
        <mxCell id="P5o3gjY14oherN40jNEH-18" style="shape=partialRectangle;html=1;whiteSpace=wrap;connectable=0;strokeColor=inherit;overflow=hidden;fillColor=none;top=0;left=0;bottom=0;right=0;pointerEvents=1;" parent="P5o3gjY14oherN40jNEH-16" vertex="1">
          <mxGeometry x="40" width="40" height="40" as="geometry">
            <mxRectangle width="40" height="40" as="alternateBounds" />
          </mxGeometry>
        </mxCell>
        <mxCell id="P5o3gjY14oherN40jNEH-19" style="shape=partialRectangle;html=1;whiteSpace=wrap;connectable=0;strokeColor=inherit;overflow=hidden;fillColor=none;top=0;left=0;bottom=0;right=0;pointerEvents=1;" parent="P5o3gjY14oherN40jNEH-16" vertex="1">
          <mxGeometry x="80" width="40" height="40" as="geometry">
            <mxRectangle width="40" height="40" as="alternateBounds" />
          </mxGeometry>
        </mxCell>
        <mxCell id="P5o3gjY14oherN40jNEH-20" style="shape=partialRectangle;html=1;whiteSpace=wrap;connectable=0;strokeColor=inherit;overflow=hidden;fillColor=none;top=0;left=0;bottom=0;right=0;pointerEvents=1;" parent="P5o3gjY14oherN40jNEH-16" vertex="1">
          <mxGeometry x="120" width="40" height="40" as="geometry">
            <mxRectangle width="40" height="40" as="alternateBounds" />
          </mxGeometry>
        </mxCell>
        <mxCell id="P5o3gjY14oherN40jNEH-21" style="shape=partialRectangle;html=1;whiteSpace=wrap;connectable=0;strokeColor=#314354;overflow=hidden;fillColor=#647687;top=0;left=0;bottom=0;right=0;pointerEvents=1;fontColor=#ffffff;" parent="P5o3gjY14oherN40jNEH-16" vertex="1">
          <mxGeometry x="160" width="40" height="40" as="geometry">
            <mxRectangle width="40" height="40" as="alternateBounds" />
          </mxGeometry>
        </mxCell>
        <mxCell id="S1Nd8wxrxAmofqmQGQqq-37" value="" style="endArrow=classic;html=1;rounded=0;startSize=3;movable=1;resizable=1;rotatable=1;deletable=1;editable=1;locked=0;connectable=1;endSize=2;" parent="1" source="S1Nd8wxrxAmofqmQGQqq-40" edge="1">
          <mxGeometry width="50" height="50" relative="1" as="geometry">
            <mxPoint x="93" y="113.99999999999997" as="sourcePoint" />
            <mxPoint x="145" y="128" as="targetPoint" />
          </mxGeometry>
        </mxCell>
        <mxCell id="S1Nd8wxrxAmofqmQGQqq-39" value="" style="endArrow=baseDash;html=1;rounded=0;startSize=3;movable=1;resizable=1;rotatable=1;deletable=1;editable=1;locked=0;connectable=1;endSize=2;endFill=0;" parent="1" edge="1">
          <mxGeometry width="50" height="50" relative="1" as="geometry">
            <mxPoint x="145" y="128.00000000000003" as="sourcePoint" />
            <mxPoint x="117" y="142" as="targetPoint" />
          </mxGeometry>
        </mxCell>
        <mxCell id="S1Nd8wxrxAmofqmQGQqq-40" value="" style="shape=waypoint;sketch=0;fillStyle=solid;size=6;pointerEvents=1;points=[];fillColor=#e51400;resizable=0;rotatable=0;perimeter=centerPerimeter;snapToPoint=1;fontColor=#ffffff;strokeColor=#B20000;" parent="1" vertex="1">
          <mxGeometry x="120" y="90" width="20" height="20" as="geometry" />
        </mxCell>
        <mxCell id="S1Nd8wxrxAmofqmQGQqq-41" value="" style="group;fontFamily=Times New Roman;" parent="1" vertex="1" connectable="0">
          <mxGeometry x="123" y="116" width="20" height="10" as="geometry" />
        </mxCell>
        <mxCell id="P5o3gjY14oherN40jNEH-10" value="" style="group" parent="S1Nd8wxrxAmofqmQGQqq-41" vertex="1" connectable="0">
          <mxGeometry width="20" height="10" as="geometry" />
        </mxCell>
        <mxCell id="S1Nd8wxrxAmofqmQGQqq-42" value="&lt;font face=&quot;Times New Roman&quot;&gt;d&lt;/font&gt;" style="text;html=1;strokeColor=none;fillColor=none;align=center;verticalAlign=middle;whiteSpace=wrap;rounded=0;" parent="P5o3gjY14oherN40jNEH-10" vertex="1">
          <mxGeometry width="20" height="10" as="geometry" />
        </mxCell>
        <mxCell id="S1Nd8wxrxAmofqmQGQqq-43" value="" style="endArrow=classicThin;html=1;rounded=0;endFill=1;endSize=0;startSize=0;strokeWidth=1;" parent="P5o3gjY14oherN40jNEH-10" edge="1">
          <mxGeometry width="50" height="50" relative="1" as="geometry">
            <mxPoint x="6" as="sourcePoint" />
            <mxPoint x="14" as="targetPoint" />
          </mxGeometry>
        </mxCell>
        <mxCell id="S1Nd8wxrxAmofqmQGQqq-44" value="" style="endArrow=none;html=1;rounded=0;startSize=3;movable=1;resizable=1;rotatable=1;deletable=1;editable=1;locked=0;connectable=1;endSize=2;endFill=0;startArrow=baseDash;startFill=0;" parent="1" edge="1">
          <mxGeometry width="50" height="50" relative="1" as="geometry">
            <mxPoint x="173" y="114.00000000000003" as="sourcePoint" />
            <mxPoint x="145" y="128" as="targetPoint" />
          </mxGeometry>
        </mxCell>
        <mxCell id="P5o3gjY14oherN40jNEH-1" value="" style="endArrow=none;dashed=1;html=1;rounded=0;entryX=0.658;entryY=0.5;entryDx=0;entryDy=0;entryPerimeter=0;" parent="1" target="S1Nd8wxrxAmofqmQGQqq-40" edge="1">
          <mxGeometry width="50" height="50" relative="1" as="geometry">
            <mxPoint x="200" y="150" as="sourcePoint" />
            <mxPoint x="220" y="100" as="targetPoint" />
          </mxGeometry>
        </mxCell>
        <mxCell id="P5o3gjY14oherN40jNEH-2" value="" style="endArrow=none;html=1;rounded=0;" parent="1" edge="1">
          <mxGeometry width="50" height="50" relative="1" as="geometry">
            <mxPoint x="130" y="100" as="sourcePoint" />
            <mxPoint x="180" y="75" as="targetPoint" />
          </mxGeometry>
        </mxCell>
        <mxCell id="P5o3gjY14oherN40jNEH-3" value="" style="endArrow=none;html=1;rounded=0;" parent="1" edge="1">
          <mxGeometry width="50" height="50" relative="1" as="geometry">
            <mxPoint x="80" y="125" as="sourcePoint" />
            <mxPoint x="130" y="100" as="targetPoint" />
          </mxGeometry>
        </mxCell>
        <mxCell id="P5o3gjY14oherN40jNEH-5" value="" style="verticalLabelPosition=bottom;verticalAlign=top;html=1;shape=mxgraph.basic.arc;startAngle=0.3426843500029433;endAngle=0.42551014765475853;rotation=0;" parent="1" vertex="1">
          <mxGeometry x="115" y="85" width="30" height="30" as="geometry" />
        </mxCell>
        <mxCell id="P5o3gjY14oherN40jNEH-6" value="" style="endArrow=none;html=1;rounded=0;" parent="1" edge="1">
          <mxGeometry width="50" height="50" relative="1" as="geometry">
            <mxPoint x="200" y="150" as="sourcePoint" />
            <mxPoint x="166" y="82" as="targetPoint" />
          </mxGeometry>
        </mxCell>
        <mxCell id="P5o3gjY14oherN40jNEH-7" value="" style="verticalLabelPosition=bottom;verticalAlign=top;html=1;shape=mxgraph.basic.arc;startAngle=0.3426843500029433;endAngle=0.42551014765475853;rotation=0;" parent="1" vertex="1">
          <mxGeometry x="115" y="85" width="30" height="30" as="geometry" />
        </mxCell>
        <mxCell id="P5o3gjY14oherN40jNEH-8" value="" style="verticalLabelPosition=bottom;verticalAlign=top;html=1;shape=mxgraph.basic.arc;startAngle=0.3414034525638553;endAngle=0.42551014765475853;rotation=0;direction=west;" parent="1" vertex="1">
          <mxGeometry x="184" y="134" width="30" height="30" as="geometry" />
        </mxCell>
        <mxCell id="P5o3gjY14oherN40jNEH-15" value="" style="endArrow=classic;html=1;rounded=0;entryX=0.332;entryY=1.014;entryDx=0;entryDy=0;entryPerimeter=0;exitX=0.55;exitY=1.287;exitDx=0;exitDy=0;exitPerimeter=0;endSize=2;" parent="1" edge="1">
          <mxGeometry width="50" height="50" relative="1" as="geometry">
            <mxPoint x="154" y="117.15" as="sourcePoint" />
            <mxPoint x="159" y="120.85" as="targetPoint" />
          </mxGeometry>
        </mxCell>
        <mxCell id="P5o3gjY14oherN40jNEH-26" value="r" style="text;html=1;strokeColor=none;fillColor=none;align=center;verticalAlign=middle;whiteSpace=wrap;rounded=0;fontFamily=Times New Roman;" parent="1" vertex="1">
          <mxGeometry x="155" y="125" width="20" height="10" as="geometry" />
        </mxCell>
        <mxCell id="P5o3gjY14oherN40jNEH-27" value="r" style="text;html=1;strokeColor=none;fillColor=none;align=center;verticalAlign=middle;whiteSpace=wrap;rounded=0;fontFamily=Times New Roman;" parent="1" vertex="1">
          <mxGeometry x="171" y="95" width="20" height="10" as="geometry" />
        </mxCell>
        <mxCell id="P5o3gjY14oherN40jNEH-28" value="&lt;font style=&quot;font-size: 7px;&quot;&gt;perp&lt;/font&gt;" style="text;html=1;strokeColor=none;fillColor=none;align=center;verticalAlign=middle;whiteSpace=wrap;rounded=0;fontFamily=Times New Roman;" parent="1" vertex="1">
          <mxGeometry x="181" y="97" width="14" height="10" as="geometry" />
        </mxCell>
        <mxCell id="ExGJpf0z9ulYO7BclKZI-1" value="" style="group" parent="1" vertex="1" connectable="0">
          <mxGeometry x="140" y="102" width="20" height="11" as="geometry" />
        </mxCell>
        <mxCell id="P5o3gjY14oherN40jNEH-11" value="" style="group;fontFamily=Times New Roman;" parent="ExGJpf0z9ulYO7BclKZI-1" vertex="1" connectable="0">
          <mxGeometry width="20" height="10" as="geometry" />
        </mxCell>
        <mxCell id="P5o3gjY14oherN40jNEH-12" value="&lt;font face=&quot;Times New Roman&quot;&gt;d&lt;/font&gt;" style="text;html=1;strokeColor=none;fillColor=none;align=center;verticalAlign=middle;whiteSpace=wrap;rounded=0;" parent="P5o3gjY14oherN40jNEH-11" vertex="1">
          <mxGeometry width="20" height="10" as="geometry" />
        </mxCell>
        <mxCell id="P5o3gjY14oherN40jNEH-13" value="" style="endArrow=classicThin;html=1;rounded=0;endFill=1;endSize=0;startSize=0;strokeWidth=1;" parent="P5o3gjY14oherN40jNEH-11" edge="1">
          <mxGeometry width="50" height="50" relative="1" as="geometry">
            <mxPoint x="6" as="sourcePoint" />
            <mxPoint x="14" as="targetPoint" />
          </mxGeometry>
        </mxCell>
        <mxCell id="P5o3gjY14oherN40jNEH-14" value="&lt;font style=&quot;font-size: 7px;&quot;&gt;i&lt;/font&gt;" style="text;html=1;strokeColor=none;fillColor=none;align=center;verticalAlign=middle;whiteSpace=wrap;rounded=0;fontFamily=Times New Roman;" parent="ExGJpf0z9ulYO7BclKZI-1" vertex="1">
          <mxGeometry x="12" y="1" width="4" height="10" as="geometry" />
        </mxCell>
      </root>
    </mxGraphModel>
  </diagram>
  <diagram id="gcAg-xL3N0n6hmdMyA6b" name="Page-6">
    <mxGraphModel dx="93" dy="47" grid="1" gridSize="10" guides="1" tooltips="1" connect="1" arrows="1" fold="1" page="1" pageScale="1" pageWidth="1169" pageHeight="827" math="0" shadow="0">
      <root>
        <mxCell id="0" />
        <mxCell id="1" parent="0" />
        <mxCell id="T6-Qu4MRqzngrcuLtrV5-529" value="" style="shape=table;startSize=0;container=1;collapsible=0;childLayout=tableLayout;strokeColor=#B5B5B5;" parent="1" vertex="1">
          <mxGeometry x="80" y="80" width="240" height="120" as="geometry" />
        </mxCell>
        <mxCell id="cliXyebjgv9N-8S5U0zJ-66" style="shape=tableRow;horizontal=0;startSize=0;swimlaneHead=0;swimlaneBody=0;strokeColor=inherit;top=0;left=0;bottom=0;right=0;collapsible=0;dropTarget=0;fillColor=none;points=[[0,0.5],[1,0.5]];portConstraint=eastwest;" parent="T6-Qu4MRqzngrcuLtrV5-529" vertex="1">
          <mxGeometry width="240" height="40" as="geometry" />
        </mxCell>
        <mxCell id="cliXyebjgv9N-8S5U0zJ-67" style="shape=partialRectangle;html=1;whiteSpace=wrap;connectable=0;strokeColor=inherit;overflow=hidden;fillColor=none;top=0;left=0;bottom=0;right=0;pointerEvents=1;" parent="cliXyebjgv9N-8S5U0zJ-66" vertex="1">
          <mxGeometry width="41" height="40" as="geometry">
            <mxRectangle width="41" height="40" as="alternateBounds" />
          </mxGeometry>
        </mxCell>
        <mxCell id="cliXyebjgv9N-8S5U0zJ-68" style="shape=partialRectangle;html=1;whiteSpace=wrap;connectable=0;strokeColor=inherit;overflow=hidden;fillColor=none;top=0;left=0;bottom=0;right=0;pointerEvents=1;" parent="cliXyebjgv9N-8S5U0zJ-66" vertex="1">
          <mxGeometry x="41" width="39" height="40" as="geometry">
            <mxRectangle width="39" height="40" as="alternateBounds" />
          </mxGeometry>
        </mxCell>
        <mxCell id="cliXyebjgv9N-8S5U0zJ-69" style="shape=partialRectangle;html=1;whiteSpace=wrap;connectable=0;strokeColor=inherit;overflow=hidden;fillColor=none;top=0;left=0;bottom=0;right=0;pointerEvents=1;" parent="cliXyebjgv9N-8S5U0zJ-66" vertex="1">
          <mxGeometry x="80" width="41" height="40" as="geometry">
            <mxRectangle width="41" height="40" as="alternateBounds" />
          </mxGeometry>
        </mxCell>
        <mxCell id="cliXyebjgv9N-8S5U0zJ-70" style="shape=partialRectangle;html=1;whiteSpace=wrap;connectable=0;strokeColor=inherit;overflow=hidden;fillColor=none;top=0;left=0;bottom=0;right=0;pointerEvents=1;" parent="cliXyebjgv9N-8S5U0zJ-66" vertex="1">
          <mxGeometry x="121" width="39" height="40" as="geometry">
            <mxRectangle width="39" height="40" as="alternateBounds" />
          </mxGeometry>
        </mxCell>
        <mxCell id="cliXyebjgv9N-8S5U0zJ-71" style="shape=partialRectangle;html=1;whiteSpace=wrap;connectable=0;strokeColor=inherit;overflow=hidden;fillColor=none;top=0;left=0;bottom=0;right=0;pointerEvents=1;" parent="cliXyebjgv9N-8S5U0zJ-66" vertex="1">
          <mxGeometry x="160" width="41" height="40" as="geometry">
            <mxRectangle width="41" height="40" as="alternateBounds" />
          </mxGeometry>
        </mxCell>
        <mxCell id="cliXyebjgv9N-8S5U0zJ-72" style="shape=partialRectangle;html=1;whiteSpace=wrap;connectable=0;strokeColor=inherit;overflow=hidden;fillColor=none;top=0;left=0;bottom=0;right=0;pointerEvents=1;" parent="cliXyebjgv9N-8S5U0zJ-66" vertex="1">
          <mxGeometry x="201" width="39" height="40" as="geometry">
            <mxRectangle width="39" height="40" as="alternateBounds" />
          </mxGeometry>
        </mxCell>
        <mxCell id="cliXyebjgv9N-8S5U0zJ-55" style="shape=tableRow;horizontal=0;startSize=0;swimlaneHead=0;swimlaneBody=0;strokeColor=inherit;top=0;left=0;bottom=0;right=0;collapsible=0;dropTarget=0;fillColor=none;points=[[0,0.5],[1,0.5]];portConstraint=eastwest;" parent="T6-Qu4MRqzngrcuLtrV5-529" vertex="1">
          <mxGeometry y="40" width="240" height="40" as="geometry" />
        </mxCell>
        <mxCell id="cliXyebjgv9N-8S5U0zJ-56" style="shape=partialRectangle;html=1;whiteSpace=wrap;connectable=0;strokeColor=inherit;overflow=hidden;fillColor=none;top=0;left=0;bottom=0;right=0;pointerEvents=1;" parent="cliXyebjgv9N-8S5U0zJ-55" vertex="1">
          <mxGeometry width="41" height="40" as="geometry">
            <mxRectangle width="41" height="40" as="alternateBounds" />
          </mxGeometry>
        </mxCell>
        <mxCell id="cliXyebjgv9N-8S5U0zJ-57" style="shape=partialRectangle;html=1;whiteSpace=wrap;connectable=0;strokeColor=inherit;overflow=hidden;fillColor=none;top=0;left=0;bottom=0;right=0;pointerEvents=1;" parent="cliXyebjgv9N-8S5U0zJ-55" vertex="1">
          <mxGeometry x="41" width="39" height="40" as="geometry">
            <mxRectangle width="39" height="40" as="alternateBounds" />
          </mxGeometry>
        </mxCell>
        <mxCell id="cliXyebjgv9N-8S5U0zJ-58" style="shape=partialRectangle;html=1;whiteSpace=wrap;connectable=0;strokeColor=inherit;overflow=hidden;fillColor=none;top=0;left=0;bottom=0;right=0;pointerEvents=1;" parent="cliXyebjgv9N-8S5U0zJ-55" vertex="1">
          <mxGeometry x="80" width="41" height="40" as="geometry">
            <mxRectangle width="41" height="40" as="alternateBounds" />
          </mxGeometry>
        </mxCell>
        <mxCell id="cliXyebjgv9N-8S5U0zJ-59" style="shape=partialRectangle;html=1;whiteSpace=wrap;connectable=0;strokeColor=inherit;overflow=hidden;fillColor=none;top=0;left=0;bottom=0;right=0;pointerEvents=1;" parent="cliXyebjgv9N-8S5U0zJ-55" vertex="1">
          <mxGeometry x="121" width="39" height="40" as="geometry">
            <mxRectangle width="39" height="40" as="alternateBounds" />
          </mxGeometry>
        </mxCell>
        <mxCell id="cliXyebjgv9N-8S5U0zJ-60" style="shape=partialRectangle;html=1;whiteSpace=wrap;connectable=0;strokeColor=inherit;overflow=hidden;fillColor=none;top=0;left=0;bottom=0;right=0;pointerEvents=1;" parent="cliXyebjgv9N-8S5U0zJ-55" vertex="1">
          <mxGeometry x="160" width="41" height="40" as="geometry">
            <mxRectangle width="41" height="40" as="alternateBounds" />
          </mxGeometry>
        </mxCell>
        <mxCell id="cliXyebjgv9N-8S5U0zJ-61" style="shape=partialRectangle;html=1;whiteSpace=wrap;connectable=0;strokeColor=inherit;overflow=hidden;fillColor=none;top=0;left=0;bottom=0;right=0;pointerEvents=1;" parent="cliXyebjgv9N-8S5U0zJ-55" vertex="1">
          <mxGeometry x="201" width="39" height="40" as="geometry">
            <mxRectangle width="39" height="40" as="alternateBounds" />
          </mxGeometry>
        </mxCell>
        <mxCell id="T6-Qu4MRqzngrcuLtrV5-530" value="" style="shape=tableRow;horizontal=0;startSize=0;swimlaneHead=0;swimlaneBody=0;strokeColor=inherit;top=0;left=0;bottom=0;right=0;collapsible=0;dropTarget=0;fillColor=none;points=[[0,0.5],[1,0.5]];portConstraint=eastwest;" parent="T6-Qu4MRqzngrcuLtrV5-529" vertex="1">
          <mxGeometry y="80" width="240" height="40" as="geometry" />
        </mxCell>
        <mxCell id="T6-Qu4MRqzngrcuLtrV5-531" value="" style="shape=partialRectangle;html=1;whiteSpace=wrap;connectable=0;strokeColor=inherit;overflow=hidden;fillColor=none;top=0;left=0;bottom=0;right=0;pointerEvents=1;" parent="T6-Qu4MRqzngrcuLtrV5-530" vertex="1">
          <mxGeometry width="41" height="40" as="geometry">
            <mxRectangle width="41" height="40" as="alternateBounds" />
          </mxGeometry>
        </mxCell>
        <mxCell id="T6-Qu4MRqzngrcuLtrV5-532" value="" style="shape=partialRectangle;html=1;whiteSpace=wrap;connectable=0;strokeColor=inherit;overflow=hidden;fillColor=none;top=0;left=0;bottom=0;right=0;pointerEvents=1;" parent="T6-Qu4MRqzngrcuLtrV5-530" vertex="1">
          <mxGeometry x="41" width="39" height="40" as="geometry">
            <mxRectangle width="39" height="40" as="alternateBounds" />
          </mxGeometry>
        </mxCell>
        <mxCell id="T6-Qu4MRqzngrcuLtrV5-533" value="" style="shape=partialRectangle;html=1;whiteSpace=wrap;connectable=0;strokeColor=inherit;overflow=hidden;fillColor=none;top=0;left=0;bottom=0;right=0;pointerEvents=1;" parent="T6-Qu4MRqzngrcuLtrV5-530" vertex="1">
          <mxGeometry x="80" width="41" height="40" as="geometry">
            <mxRectangle width="41" height="40" as="alternateBounds" />
          </mxGeometry>
        </mxCell>
        <mxCell id="T6-Qu4MRqzngrcuLtrV5-534" value="" style="shape=partialRectangle;html=1;whiteSpace=wrap;connectable=0;strokeColor=inherit;overflow=hidden;fillColor=none;top=0;left=0;bottom=0;right=0;pointerEvents=1;" parent="T6-Qu4MRqzngrcuLtrV5-530" vertex="1">
          <mxGeometry x="121" width="39" height="40" as="geometry">
            <mxRectangle width="39" height="40" as="alternateBounds" />
          </mxGeometry>
        </mxCell>
        <mxCell id="T6-Qu4MRqzngrcuLtrV5-535" value="" style="shape=partialRectangle;html=1;whiteSpace=wrap;connectable=0;strokeColor=inherit;overflow=hidden;fillColor=none;top=0;left=0;bottom=0;right=0;pointerEvents=1;" parent="T6-Qu4MRqzngrcuLtrV5-530" vertex="1">
          <mxGeometry x="160" width="41" height="40" as="geometry">
            <mxRectangle width="41" height="40" as="alternateBounds" />
          </mxGeometry>
        </mxCell>
        <mxCell id="T6-Qu4MRqzngrcuLtrV5-536" value="" style="shape=partialRectangle;html=1;whiteSpace=wrap;connectable=0;strokeColor=inherit;overflow=hidden;fillColor=none;top=0;left=0;bottom=0;right=0;pointerEvents=1;" parent="T6-Qu4MRqzngrcuLtrV5-530" vertex="1">
          <mxGeometry x="201" width="39" height="40" as="geometry">
            <mxRectangle width="39" height="40" as="alternateBounds" />
          </mxGeometry>
        </mxCell>
        <mxCell id="T6-Qu4MRqzngrcuLtrV5-34" value="" style="endArrow=none;dashed=1;html=1;rounded=0;entryX=0.658;entryY=0.5;entryDx=0;entryDy=0;entryPerimeter=0;movable=1;resizable=1;rotatable=1;deletable=1;editable=1;locked=0;connectable=1;exitX=0.736;exitY=0.032;exitDx=0;exitDy=0;exitPerimeter=0;" parent="1" source="T6-Qu4MRqzngrcuLtrV5-530" edge="1">
          <mxGeometry width="50" height="50" relative="1" as="geometry">
            <mxPoint x="380" y="220" as="sourcePoint" />
            <mxPoint x="130" y="100" as="targetPoint" />
          </mxGeometry>
        </mxCell>
        <mxCell id="T6-Qu4MRqzngrcuLtrV5-28" value="" style="shape=waypoint;sketch=0;fillStyle=solid;size=6;pointerEvents=1;points=[];fillColor=#e51400;resizable=0;rotatable=0;perimeter=centerPerimeter;snapToPoint=1;fontColor=#ffffff;strokeColor=#B20000;" parent="1" vertex="1">
          <mxGeometry x="120" y="90" width="20" height="20" as="geometry" />
        </mxCell>
        <mxCell id="T6-Qu4MRqzngrcuLtrV5-180" style="edgeStyle=orthogonalEdgeStyle;rounded=0;orthogonalLoop=1;jettySize=auto;html=1;" parent="1" edge="1">
          <mxGeometry relative="1" as="geometry">
            <mxPoint x="174" y="131" as="sourcePoint" />
            <mxPoint x="174" y="131" as="targetPoint" />
          </mxGeometry>
        </mxCell>
        <mxCell id="cliXyebjgv9N-8S5U0zJ-109" value="" style="endArrow=none;html=1;rounded=0;entryX=0.412;entryY=-0.051;entryDx=0;entryDy=0;entryPerimeter=0;fillColor=#008a00;strokeColor=#00E800;" parent="1" edge="1">
          <mxGeometry width="50" height="50" relative="1" as="geometry">
            <mxPoint x="130" y="103" as="sourcePoint" />
            <mxPoint x="160" y="117" as="targetPoint" />
          </mxGeometry>
        </mxCell>
        <mxCell id="pmZ-ppGnMFjshXTrp6dj-1" value="" style="endArrow=classic;html=1;rounded=0;endSize=2;" parent="1" source="T6-Qu4MRqzngrcuLtrV5-28" edge="1">
          <mxGeometry width="50" height="50" relative="1" as="geometry">
            <mxPoint x="150" y="140" as="sourcePoint" />
            <mxPoint x="150" y="109.5" as="targetPoint" />
          </mxGeometry>
        </mxCell>
        <mxCell id="pmZ-ppGnMFjshXTrp6dj-2" value="" style="endArrow=none;html=1;rounded=0;entryX=0.412;entryY=-0.051;entryDx=0;entryDy=0;entryPerimeter=0;fillColor=#008a00;strokeColor=#0027FF;" parent="1" edge="1">
          <mxGeometry width="50" height="50" relative="1" as="geometry">
            <mxPoint x="130" y="97" as="sourcePoint" />
            <mxPoint x="178" y="120" as="targetPoint" />
          </mxGeometry>
        </mxCell>
        <mxCell id="DRzSGkUkP8M6vX4fh3Hl-1" value="" style="group" parent="1" vertex="1" connectable="0">
          <mxGeometry x="132" y="91" width="20" height="11" as="geometry" />
        </mxCell>
        <mxCell id="DRzSGkUkP8M6vX4fh3Hl-2" value="" style="group;fontFamily=Times New Roman;" parent="DRzSGkUkP8M6vX4fh3Hl-1" vertex="1" connectable="0">
          <mxGeometry width="20" height="10" as="geometry" />
        </mxCell>
        <mxCell id="DRzSGkUkP8M6vX4fh3Hl-3" value="&lt;font face=&quot;Times New Roman&quot;&gt;d&lt;/font&gt;" style="text;html=1;strokeColor=none;fillColor=none;align=center;verticalAlign=middle;whiteSpace=wrap;rounded=0;" parent="DRzSGkUkP8M6vX4fh3Hl-2" vertex="1">
          <mxGeometry width="20" height="10" as="geometry" />
        </mxCell>
        <mxCell id="DRzSGkUkP8M6vX4fh3Hl-4" value="" style="endArrow=classicThin;html=1;rounded=0;endFill=1;endSize=0;startSize=0;strokeWidth=1;" parent="DRzSGkUkP8M6vX4fh3Hl-2" edge="1">
          <mxGeometry width="50" height="50" relative="1" as="geometry">
            <mxPoint x="6" as="sourcePoint" />
            <mxPoint x="14" as="targetPoint" />
          </mxGeometry>
        </mxCell>
        <mxCell id="DRzSGkUkP8M6vX4fh3Hl-5" value="&lt;font style=&quot;font-size: 7px;&quot;&gt;i&lt;/font&gt;" style="text;html=1;strokeColor=none;fillColor=none;align=center;verticalAlign=middle;whiteSpace=wrap;rounded=0;fontFamily=Times New Roman;" parent="DRzSGkUkP8M6vX4fh3Hl-1" vertex="1">
          <mxGeometry x="12" y="1" width="4" height="10" as="geometry" />
        </mxCell>
        <mxCell id="XvJh6XMSALkFSGrFRkUW-1" value="" style="verticalLabelPosition=bottom;shadow=0;dashed=0;align=center;html=1;verticalAlign=top;strokeWidth=1;shape=mxgraph.mockup.markup.curlyBrace;whiteSpace=wrap;strokeColor=#000000;rotation=-180;" parent="1" vertex="1">
          <mxGeometry x="130" y="119.5" width="30" height="5" as="geometry" />
        </mxCell>
        <mxCell id="XvJh6XMSALkFSGrFRkUW-2" value="" style="verticalLabelPosition=bottom;shadow=0;dashed=0;align=center;html=1;verticalAlign=top;strokeWidth=1;shape=mxgraph.mockup.markup.curlyBrace;whiteSpace=wrap;strokeColor=#000000;rotation=-90;" parent="1" vertex="1">
          <mxGeometry x="109" y="107.5" width="20" height="5" as="geometry" />
        </mxCell>
      </root>
    </mxGraphModel>
  </diagram>
  <diagram id="vya6gOg-TMXzZeb_x9fH" name="Page-7">
    <mxGraphModel dx="600" dy="305" grid="1" gridSize="10" guides="1" tooltips="1" connect="1" arrows="1" fold="1" page="1" pageScale="1" pageWidth="1169" pageHeight="827" math="0" shadow="0">
      <root>
        <mxCell id="0" />
        <mxCell id="1" parent="0" />
        <mxCell id="8PcCxP_mvk3ULI95nzKc-1" value="" style="shape=table;startSize=0;container=1;collapsible=0;childLayout=tableLayout;strokeColor=#B5B5B5;" parent="1" vertex="1">
          <mxGeometry x="80" y="80" width="281" height="200" as="geometry" />
        </mxCell>
        <mxCell id="8PcCxP_mvk3ULI95nzKc-2" value="" style="shape=tableRow;horizontal=0;startSize=0;swimlaneHead=0;swimlaneBody=0;strokeColor=inherit;top=0;left=0;bottom=0;right=0;collapsible=0;dropTarget=0;fillColor=none;points=[[0,0.5],[1,0.5]];portConstraint=eastwest;" parent="8PcCxP_mvk3ULI95nzKc-1" vertex="1">
          <mxGeometry width="281" height="40" as="geometry" />
        </mxCell>
        <mxCell id="8PcCxP_mvk3ULI95nzKc-3" value="" style="shape=partialRectangle;html=1;whiteSpace=wrap;connectable=0;strokeColor=inherit;overflow=hidden;fillColor=none;top=0;left=0;bottom=0;right=0;pointerEvents=1;" parent="8PcCxP_mvk3ULI95nzKc-2" vertex="1">
          <mxGeometry width="41" height="40" as="geometry">
            <mxRectangle width="41" height="40" as="alternateBounds" />
          </mxGeometry>
        </mxCell>
        <mxCell id="8PcCxP_mvk3ULI95nzKc-4" value="" style="shape=partialRectangle;html=1;whiteSpace=wrap;connectable=0;strokeColor=inherit;overflow=hidden;fillColor=none;top=0;left=0;bottom=0;right=0;pointerEvents=1;" parent="8PcCxP_mvk3ULI95nzKc-2" vertex="1">
          <mxGeometry x="41" width="39" height="40" as="geometry">
            <mxRectangle width="39" height="40" as="alternateBounds" />
          </mxGeometry>
        </mxCell>
        <mxCell id="8PcCxP_mvk3ULI95nzKc-5" value="" style="shape=partialRectangle;html=1;whiteSpace=wrap;connectable=0;strokeColor=inherit;overflow=hidden;fillColor=none;top=0;left=0;bottom=0;right=0;pointerEvents=1;" parent="8PcCxP_mvk3ULI95nzKc-2" vertex="1">
          <mxGeometry x="80" width="41" height="40" as="geometry">
            <mxRectangle width="41" height="40" as="alternateBounds" />
          </mxGeometry>
        </mxCell>
        <mxCell id="8PcCxP_mvk3ULI95nzKc-6" value="" style="shape=partialRectangle;html=1;whiteSpace=wrap;connectable=0;strokeColor=inherit;overflow=hidden;fillColor=none;top=0;left=0;bottom=0;right=0;pointerEvents=1;" parent="8PcCxP_mvk3ULI95nzKc-2" vertex="1">
          <mxGeometry x="121" width="39" height="40" as="geometry">
            <mxRectangle width="39" height="40" as="alternateBounds" />
          </mxGeometry>
        </mxCell>
        <mxCell id="8PcCxP_mvk3ULI95nzKc-7" value="" style="shape=partialRectangle;html=1;whiteSpace=wrap;connectable=0;strokeColor=inherit;overflow=hidden;fillColor=none;top=0;left=0;bottom=0;right=0;pointerEvents=1;" parent="8PcCxP_mvk3ULI95nzKc-2" vertex="1">
          <mxGeometry x="160" width="41" height="40" as="geometry">
            <mxRectangle width="41" height="40" as="alternateBounds" />
          </mxGeometry>
        </mxCell>
        <mxCell id="8PcCxP_mvk3ULI95nzKc-9" value="" style="shape=partialRectangle;html=1;whiteSpace=wrap;connectable=0;strokeColor=inherit;overflow=hidden;fillColor=none;top=0;left=0;bottom=0;right=0;pointerEvents=1;" parent="8PcCxP_mvk3ULI95nzKc-2" vertex="1">
          <mxGeometry x="201" width="41" height="40" as="geometry">
            <mxRectangle width="41" height="40" as="alternateBounds" />
          </mxGeometry>
        </mxCell>
        <mxCell id="8PcCxP_mvk3ULI95nzKc-10" value="" style="shape=partialRectangle;html=1;whiteSpace=wrap;connectable=0;strokeColor=inherit;overflow=hidden;fillColor=none;top=0;left=0;bottom=0;right=0;pointerEvents=1;" parent="8PcCxP_mvk3ULI95nzKc-2" vertex="1">
          <mxGeometry x="242" width="39" height="40" as="geometry">
            <mxRectangle width="39" height="40" as="alternateBounds" />
          </mxGeometry>
        </mxCell>
        <mxCell id="8PcCxP_mvk3ULI95nzKc-15" value="" style="shape=tableRow;horizontal=0;startSize=0;swimlaneHead=0;swimlaneBody=0;strokeColor=inherit;top=0;left=0;bottom=0;right=0;collapsible=0;dropTarget=0;fillColor=none;points=[[0,0.5],[1,0.5]];portConstraint=eastwest;" parent="8PcCxP_mvk3ULI95nzKc-1" vertex="1">
          <mxGeometry y="40" width="281" height="41" as="geometry" />
        </mxCell>
        <mxCell id="8PcCxP_mvk3ULI95nzKc-16" value="" style="shape=partialRectangle;html=1;whiteSpace=wrap;connectable=0;strokeColor=inherit;overflow=hidden;fillColor=none;top=0;left=0;bottom=0;right=0;pointerEvents=1;" parent="8PcCxP_mvk3ULI95nzKc-15" vertex="1">
          <mxGeometry width="41" height="41" as="geometry">
            <mxRectangle width="41" height="41" as="alternateBounds" />
          </mxGeometry>
        </mxCell>
        <mxCell id="8PcCxP_mvk3ULI95nzKc-17" value="" style="shape=partialRectangle;html=1;whiteSpace=wrap;connectable=0;strokeColor=inherit;overflow=hidden;fillColor=none;top=0;left=0;bottom=0;right=0;pointerEvents=1;" parent="8PcCxP_mvk3ULI95nzKc-15" vertex="1">
          <mxGeometry x="41" width="39" height="41" as="geometry">
            <mxRectangle width="39" height="41" as="alternateBounds" />
          </mxGeometry>
        </mxCell>
        <mxCell id="8PcCxP_mvk3ULI95nzKc-18" value="" style="shape=partialRectangle;html=1;whiteSpace=wrap;connectable=0;strokeColor=inherit;overflow=hidden;fillColor=none;top=0;left=0;bottom=0;right=0;pointerEvents=1;" parent="8PcCxP_mvk3ULI95nzKc-15" vertex="1">
          <mxGeometry x="80" width="41" height="41" as="geometry">
            <mxRectangle width="41" height="41" as="alternateBounds" />
          </mxGeometry>
        </mxCell>
        <mxCell id="8PcCxP_mvk3ULI95nzKc-19" value="" style="shape=partialRectangle;html=1;whiteSpace=wrap;connectable=0;strokeColor=inherit;overflow=hidden;fillColor=none;top=0;left=0;bottom=0;right=0;pointerEvents=1;" parent="8PcCxP_mvk3ULI95nzKc-15" vertex="1">
          <mxGeometry x="121" width="39" height="41" as="geometry">
            <mxRectangle width="39" height="41" as="alternateBounds" />
          </mxGeometry>
        </mxCell>
        <mxCell id="8PcCxP_mvk3ULI95nzKc-20" value="" style="shape=partialRectangle;html=1;whiteSpace=wrap;connectable=0;strokeColor=inherit;overflow=hidden;fillColor=none;top=0;left=0;bottom=0;right=0;pointerEvents=1;" parent="8PcCxP_mvk3ULI95nzKc-15" vertex="1">
          <mxGeometry x="160" width="41" height="41" as="geometry">
            <mxRectangle width="41" height="41" as="alternateBounds" />
          </mxGeometry>
        </mxCell>
        <mxCell id="8PcCxP_mvk3ULI95nzKc-22" value="" style="shape=partialRectangle;html=1;whiteSpace=wrap;connectable=0;strokeColor=inherit;overflow=hidden;fillColor=none;top=0;left=0;bottom=0;right=0;pointerEvents=1;" parent="8PcCxP_mvk3ULI95nzKc-15" vertex="1">
          <mxGeometry x="201" width="41" height="41" as="geometry">
            <mxRectangle width="41" height="41" as="alternateBounds" />
          </mxGeometry>
        </mxCell>
        <mxCell id="8PcCxP_mvk3ULI95nzKc-23" value="" style="shape=partialRectangle;html=1;whiteSpace=wrap;connectable=0;strokeColor=inherit;overflow=hidden;fillColor=none;top=0;left=0;bottom=0;right=0;pointerEvents=1;" parent="8PcCxP_mvk3ULI95nzKc-15" vertex="1">
          <mxGeometry x="242" width="39" height="41" as="geometry">
            <mxRectangle width="39" height="41" as="alternateBounds" />
          </mxGeometry>
        </mxCell>
        <mxCell id="8PcCxP_mvk3ULI95nzKc-28" value="" style="shape=tableRow;horizontal=0;startSize=0;swimlaneHead=0;swimlaneBody=0;strokeColor=inherit;top=0;left=0;bottom=0;right=0;collapsible=0;dropTarget=0;fillColor=none;points=[[0,0.5],[1,0.5]];portConstraint=eastwest;" parent="8PcCxP_mvk3ULI95nzKc-1" vertex="1">
          <mxGeometry y="81" width="281" height="40" as="geometry" />
        </mxCell>
        <mxCell id="8PcCxP_mvk3ULI95nzKc-29" value="" style="shape=partialRectangle;html=1;whiteSpace=wrap;connectable=0;strokeColor=inherit;overflow=hidden;fillColor=none;top=0;left=0;bottom=0;right=0;pointerEvents=1;" parent="8PcCxP_mvk3ULI95nzKc-28" vertex="1">
          <mxGeometry width="41" height="40" as="geometry">
            <mxRectangle width="41" height="40" as="alternateBounds" />
          </mxGeometry>
        </mxCell>
        <mxCell id="8PcCxP_mvk3ULI95nzKc-30" value="" style="shape=partialRectangle;html=1;whiteSpace=wrap;connectable=0;strokeColor=inherit;overflow=hidden;fillColor=none;top=0;left=0;bottom=0;right=0;pointerEvents=1;" parent="8PcCxP_mvk3ULI95nzKc-28" vertex="1">
          <mxGeometry x="41" width="39" height="40" as="geometry">
            <mxRectangle width="39" height="40" as="alternateBounds" />
          </mxGeometry>
        </mxCell>
        <mxCell id="8PcCxP_mvk3ULI95nzKc-31" value="" style="shape=partialRectangle;html=1;whiteSpace=wrap;connectable=0;strokeColor=inherit;overflow=hidden;fillColor=none;top=0;left=0;bottom=0;right=0;pointerEvents=1;" parent="8PcCxP_mvk3ULI95nzKc-28" vertex="1">
          <mxGeometry x="80" width="41" height="40" as="geometry">
            <mxRectangle width="41" height="40" as="alternateBounds" />
          </mxGeometry>
        </mxCell>
        <mxCell id="8PcCxP_mvk3ULI95nzKc-32" value="" style="shape=partialRectangle;html=1;whiteSpace=wrap;connectable=0;strokeColor=inherit;overflow=hidden;fillColor=none;top=0;left=0;bottom=0;right=0;pointerEvents=1;" parent="8PcCxP_mvk3ULI95nzKc-28" vertex="1">
          <mxGeometry x="121" width="39" height="40" as="geometry">
            <mxRectangle width="39" height="40" as="alternateBounds" />
          </mxGeometry>
        </mxCell>
        <mxCell id="8PcCxP_mvk3ULI95nzKc-33" value="" style="shape=partialRectangle;html=1;whiteSpace=wrap;connectable=0;strokeColor=inherit;overflow=hidden;fillColor=none;top=0;left=0;bottom=0;right=0;pointerEvents=1;" parent="8PcCxP_mvk3ULI95nzKc-28" vertex="1">
          <mxGeometry x="160" width="41" height="40" as="geometry">
            <mxRectangle width="41" height="40" as="alternateBounds" />
          </mxGeometry>
        </mxCell>
        <mxCell id="8PcCxP_mvk3ULI95nzKc-35" value="" style="shape=partialRectangle;html=1;whiteSpace=wrap;connectable=0;strokeColor=inherit;overflow=hidden;fillColor=none;top=0;left=0;bottom=0;right=0;pointerEvents=1;" parent="8PcCxP_mvk3ULI95nzKc-28" vertex="1">
          <mxGeometry x="201" width="41" height="40" as="geometry">
            <mxRectangle width="41" height="40" as="alternateBounds" />
          </mxGeometry>
        </mxCell>
        <mxCell id="8PcCxP_mvk3ULI95nzKc-36" value="" style="shape=partialRectangle;html=1;whiteSpace=wrap;connectable=0;strokeColor=inherit;overflow=hidden;fillColor=none;top=0;left=0;bottom=0;right=0;pointerEvents=1;" parent="8PcCxP_mvk3ULI95nzKc-28" vertex="1">
          <mxGeometry x="242" width="39" height="40" as="geometry">
            <mxRectangle width="39" height="40" as="alternateBounds" />
          </mxGeometry>
        </mxCell>
        <mxCell id="8PcCxP_mvk3ULI95nzKc-41" value="" style="shape=tableRow;horizontal=0;startSize=0;swimlaneHead=0;swimlaneBody=0;strokeColor=inherit;top=0;left=0;bottom=0;right=0;collapsible=0;dropTarget=0;fillColor=none;points=[[0,0.5],[1,0.5]];portConstraint=eastwest;" parent="8PcCxP_mvk3ULI95nzKc-1" vertex="1">
          <mxGeometry y="121" width="281" height="38" as="geometry" />
        </mxCell>
        <mxCell id="8PcCxP_mvk3ULI95nzKc-42" value="" style="shape=partialRectangle;html=1;whiteSpace=wrap;connectable=0;strokeColor=inherit;overflow=hidden;fillColor=none;top=0;left=0;bottom=0;right=0;pointerEvents=1;" parent="8PcCxP_mvk3ULI95nzKc-41" vertex="1">
          <mxGeometry width="41" height="38" as="geometry">
            <mxRectangle width="41" height="38" as="alternateBounds" />
          </mxGeometry>
        </mxCell>
        <mxCell id="8PcCxP_mvk3ULI95nzKc-43" value="" style="shape=partialRectangle;html=1;whiteSpace=wrap;connectable=0;strokeColor=inherit;overflow=hidden;fillColor=none;top=0;left=0;bottom=0;right=0;pointerEvents=1;" parent="8PcCxP_mvk3ULI95nzKc-41" vertex="1">
          <mxGeometry x="41" width="39" height="38" as="geometry">
            <mxRectangle width="39" height="38" as="alternateBounds" />
          </mxGeometry>
        </mxCell>
        <mxCell id="8PcCxP_mvk3ULI95nzKc-44" value="" style="shape=partialRectangle;html=1;whiteSpace=wrap;connectable=0;strokeColor=inherit;overflow=hidden;fillColor=none;top=0;left=0;bottom=0;right=0;pointerEvents=1;" parent="8PcCxP_mvk3ULI95nzKc-41" vertex="1">
          <mxGeometry x="80" width="41" height="38" as="geometry">
            <mxRectangle width="41" height="38" as="alternateBounds" />
          </mxGeometry>
        </mxCell>
        <mxCell id="8PcCxP_mvk3ULI95nzKc-45" value="" style="shape=partialRectangle;html=1;whiteSpace=wrap;connectable=0;strokeColor=#314354;overflow=hidden;fillColor=#647687;top=0;left=0;bottom=0;right=0;pointerEvents=1;fontColor=#ffffff;" parent="8PcCxP_mvk3ULI95nzKc-41" vertex="1">
          <mxGeometry x="121" width="39" height="38" as="geometry">
            <mxRectangle width="39" height="38" as="alternateBounds" />
          </mxGeometry>
        </mxCell>
        <mxCell id="8PcCxP_mvk3ULI95nzKc-46" value="" style="shape=partialRectangle;html=1;whiteSpace=wrap;connectable=0;strokeColor=#314354;overflow=hidden;fillColor=#647687;top=0;left=0;bottom=0;right=0;pointerEvents=1;fontColor=#ffffff;" parent="8PcCxP_mvk3ULI95nzKc-41" vertex="1">
          <mxGeometry x="160" width="41" height="38" as="geometry">
            <mxRectangle width="41" height="38" as="alternateBounds" />
          </mxGeometry>
        </mxCell>
        <mxCell id="8PcCxP_mvk3ULI95nzKc-48" value="" style="shape=partialRectangle;html=1;whiteSpace=wrap;connectable=0;strokeColor=#314354;overflow=hidden;fillColor=#647687;top=0;left=0;bottom=0;right=0;pointerEvents=1;fontColor=#ffffff;" parent="8PcCxP_mvk3ULI95nzKc-41" vertex="1">
          <mxGeometry x="201" width="41" height="38" as="geometry">
            <mxRectangle width="41" height="38" as="alternateBounds" />
          </mxGeometry>
        </mxCell>
        <mxCell id="8PcCxP_mvk3ULI95nzKc-49" value="" style="shape=partialRectangle;html=1;whiteSpace=wrap;connectable=0;strokeColor=inherit;overflow=hidden;fillColor=none;top=0;left=0;bottom=0;right=0;pointerEvents=1;" parent="8PcCxP_mvk3ULI95nzKc-41" vertex="1">
          <mxGeometry x="242" width="39" height="38" as="geometry">
            <mxRectangle width="39" height="38" as="alternateBounds" />
          </mxGeometry>
        </mxCell>
        <mxCell id="8PcCxP_mvk3ULI95nzKc-54" value="" style="shape=tableRow;horizontal=0;startSize=0;swimlaneHead=0;swimlaneBody=0;strokeColor=inherit;top=0;left=0;bottom=0;right=0;collapsible=0;dropTarget=0;fillColor=none;points=[[0,0.5],[1,0.5]];portConstraint=eastwest;" parent="8PcCxP_mvk3ULI95nzKc-1" vertex="1">
          <mxGeometry y="159" width="281" height="41" as="geometry" />
        </mxCell>
        <mxCell id="8PcCxP_mvk3ULI95nzKc-55" value="" style="shape=partialRectangle;html=1;whiteSpace=wrap;connectable=0;strokeColor=inherit;overflow=hidden;fillColor=none;top=0;left=0;bottom=0;right=0;pointerEvents=1;" parent="8PcCxP_mvk3ULI95nzKc-54" vertex="1">
          <mxGeometry width="41" height="41" as="geometry">
            <mxRectangle width="41" height="41" as="alternateBounds" />
          </mxGeometry>
        </mxCell>
        <mxCell id="8PcCxP_mvk3ULI95nzKc-56" value="" style="shape=partialRectangle;html=1;whiteSpace=wrap;connectable=0;strokeColor=inherit;overflow=hidden;fillColor=none;top=0;left=0;bottom=0;right=0;pointerEvents=1;" parent="8PcCxP_mvk3ULI95nzKc-54" vertex="1">
          <mxGeometry x="41" width="39" height="41" as="geometry">
            <mxRectangle width="39" height="41" as="alternateBounds" />
          </mxGeometry>
        </mxCell>
        <mxCell id="8PcCxP_mvk3ULI95nzKc-57" value="" style="shape=partialRectangle;html=1;whiteSpace=wrap;connectable=0;strokeColor=inherit;overflow=hidden;fillColor=none;top=0;left=0;bottom=0;right=0;pointerEvents=1;" parent="8PcCxP_mvk3ULI95nzKc-54" vertex="1">
          <mxGeometry x="80" width="41" height="41" as="geometry">
            <mxRectangle width="41" height="41" as="alternateBounds" />
          </mxGeometry>
        </mxCell>
        <mxCell id="8PcCxP_mvk3ULI95nzKc-58" value="" style="shape=partialRectangle;html=1;whiteSpace=wrap;connectable=0;strokeColor=inherit;overflow=hidden;fillColor=none;top=0;left=0;bottom=0;right=0;pointerEvents=1;" parent="8PcCxP_mvk3ULI95nzKc-54" vertex="1">
          <mxGeometry x="121" width="39" height="41" as="geometry">
            <mxRectangle width="39" height="41" as="alternateBounds" />
          </mxGeometry>
        </mxCell>
        <mxCell id="8PcCxP_mvk3ULI95nzKc-59" value="" style="shape=partialRectangle;html=1;whiteSpace=wrap;connectable=0;strokeColor=inherit;overflow=hidden;fillColor=none;top=0;left=0;bottom=0;right=0;pointerEvents=1;" parent="8PcCxP_mvk3ULI95nzKc-54" vertex="1">
          <mxGeometry x="160" width="41" height="41" as="geometry">
            <mxRectangle width="41" height="41" as="alternateBounds" />
          </mxGeometry>
        </mxCell>
        <mxCell id="8PcCxP_mvk3ULI95nzKc-61" value="" style="shape=partialRectangle;html=1;whiteSpace=wrap;connectable=0;strokeColor=inherit;overflow=hidden;fillColor=none;top=0;left=0;bottom=0;right=0;pointerEvents=1;" parent="8PcCxP_mvk3ULI95nzKc-54" vertex="1">
          <mxGeometry x="201" width="41" height="41" as="geometry">
            <mxRectangle width="41" height="41" as="alternateBounds" />
          </mxGeometry>
        </mxCell>
        <mxCell id="8PcCxP_mvk3ULI95nzKc-62" value="" style="shape=partialRectangle;html=1;whiteSpace=wrap;connectable=0;strokeColor=inherit;overflow=hidden;fillColor=none;top=0;left=0;bottom=0;right=0;pointerEvents=1;" parent="8PcCxP_mvk3ULI95nzKc-54" vertex="1">
          <mxGeometry x="242" width="39" height="41" as="geometry">
            <mxRectangle width="39" height="41" as="alternateBounds" />
          </mxGeometry>
        </mxCell>
        <mxCell id="8PcCxP_mvk3ULI95nzKc-95" value="" style="endArrow=none;dashed=1;html=1;rounded=0;entryX=0.658;entryY=0.5;entryDx=0;entryDy=0;entryPerimeter=0;movable=1;resizable=1;rotatable=1;deletable=1;editable=1;locked=0;connectable=1;" parent="1" target="8PcCxP_mvk3ULI95nzKc-100" edge="1">
          <mxGeometry width="50" height="50" relative="1" as="geometry">
            <mxPoint x="271" y="200" as="sourcePoint" />
            <mxPoint x="220" y="100" as="targetPoint" />
          </mxGeometry>
        </mxCell>
        <mxCell id="8PcCxP_mvk3ULI95nzKc-96" value="&lt;font style=&quot;font-size: 7px;&quot;&gt;i&lt;/font&gt;" style="text;html=1;strokeColor=none;fillColor=none;align=center;verticalAlign=middle;whiteSpace=wrap;rounded=0;fontFamily=Times New Roman;" parent="1" vertex="1">
          <mxGeometry x="152" y="103" width="4" height="10" as="geometry" />
        </mxCell>
        <mxCell id="8PcCxP_mvk3ULI95nzKc-98" value="" style="endArrow=classic;html=1;rounded=0;startSize=3;movable=1;resizable=1;rotatable=1;deletable=1;editable=1;locked=0;connectable=1;endSize=2;" parent="1" source="8PcCxP_mvk3ULI95nzKc-100" edge="1">
          <mxGeometry width="50" height="50" relative="1" as="geometry">
            <mxPoint x="93" y="113.99999999999997" as="sourcePoint" />
            <mxPoint x="145" y="128" as="targetPoint" />
          </mxGeometry>
        </mxCell>
        <mxCell id="8PcCxP_mvk3ULI95nzKc-99" value="" style="endArrow=baseDash;html=1;rounded=0;startSize=3;movable=1;resizable=1;rotatable=1;deletable=1;editable=1;locked=0;connectable=1;endSize=2;endFill=0;" parent="1" edge="1">
          <mxGeometry width="50" height="50" relative="1" as="geometry">
            <mxPoint x="145" y="128.00000000000003" as="sourcePoint" />
            <mxPoint x="117" y="142" as="targetPoint" />
          </mxGeometry>
        </mxCell>
        <mxCell id="8PcCxP_mvk3ULI95nzKc-100" value="" style="shape=waypoint;sketch=0;fillStyle=solid;size=6;pointerEvents=1;points=[];fillColor=#e51400;resizable=0;rotatable=0;perimeter=centerPerimeter;snapToPoint=1;fontColor=#ffffff;strokeColor=#B20000;" parent="1" vertex="1">
          <mxGeometry x="120" y="90" width="20" height="20" as="geometry" />
        </mxCell>
        <mxCell id="8PcCxP_mvk3ULI95nzKc-101" value="" style="group;fontFamily=Times New Roman;" parent="1" vertex="1" connectable="0">
          <mxGeometry x="123" y="116" width="20" height="10" as="geometry" />
        </mxCell>
        <mxCell id="8PcCxP_mvk3ULI95nzKc-102" value="" style="group" parent="8PcCxP_mvk3ULI95nzKc-101" vertex="1" connectable="0">
          <mxGeometry width="20" height="10" as="geometry" />
        </mxCell>
        <mxCell id="8PcCxP_mvk3ULI95nzKc-103" value="&lt;font face=&quot;Times New Roman&quot;&gt;d&lt;/font&gt;" style="text;html=1;strokeColor=none;fillColor=none;align=center;verticalAlign=middle;whiteSpace=wrap;rounded=0;" parent="8PcCxP_mvk3ULI95nzKc-102" vertex="1">
          <mxGeometry width="20" height="10" as="geometry" />
        </mxCell>
        <mxCell id="8PcCxP_mvk3ULI95nzKc-104" value="" style="endArrow=classicThin;html=1;rounded=0;endFill=1;endSize=0;startSize=0;strokeWidth=1;" parent="8PcCxP_mvk3ULI95nzKc-102" edge="1">
          <mxGeometry width="50" height="50" relative="1" as="geometry">
            <mxPoint x="6" as="sourcePoint" />
            <mxPoint x="14" as="targetPoint" />
          </mxGeometry>
        </mxCell>
        <mxCell id="8PcCxP_mvk3ULI95nzKc-105" value="" style="endArrow=none;html=1;rounded=0;startSize=3;movable=1;resizable=1;rotatable=1;deletable=1;editable=1;locked=0;connectable=1;endSize=2;endFill=0;startArrow=baseDash;startFill=0;" parent="1" edge="1">
          <mxGeometry width="50" height="50" relative="1" as="geometry">
            <mxPoint x="173" y="114.00000000000003" as="sourcePoint" />
            <mxPoint x="145" y="128" as="targetPoint" />
          </mxGeometry>
        </mxCell>
        <mxCell id="8PcCxP_mvk3ULI95nzKc-106" value="" style="group;fontFamily=Times New Roman;" parent="1" vertex="1" connectable="0">
          <mxGeometry x="140" y="102" width="20" height="10" as="geometry" />
        </mxCell>
        <mxCell id="8PcCxP_mvk3ULI95nzKc-107" value="&lt;font face=&quot;Times New Roman&quot;&gt;d&lt;/font&gt;" style="text;html=1;strokeColor=none;fillColor=none;align=center;verticalAlign=middle;whiteSpace=wrap;rounded=0;" parent="8PcCxP_mvk3ULI95nzKc-106" vertex="1">
          <mxGeometry width="20" height="10" as="geometry" />
        </mxCell>
        <mxCell id="8PcCxP_mvk3ULI95nzKc-108" value="" style="endArrow=classicThin;html=1;rounded=0;endFill=1;endSize=0;startSize=0;strokeWidth=1;" parent="8PcCxP_mvk3ULI95nzKc-106" edge="1">
          <mxGeometry width="50" height="50" relative="1" as="geometry">
            <mxPoint x="6" as="sourcePoint" />
            <mxPoint x="14" as="targetPoint" />
          </mxGeometry>
        </mxCell>
        <mxCell id="8PcCxP_mvk3ULI95nzKc-109" value="" style="endArrow=classic;html=1;rounded=0;entryX=0.332;entryY=1.014;entryDx=0;entryDy=0;entryPerimeter=0;exitX=0.55;exitY=1.287;exitDx=0;exitDy=0;exitPerimeter=0;endSize=2;" parent="1" edge="1">
          <mxGeometry width="50" height="50" relative="1" as="geometry">
            <mxPoint x="154" y="117" as="sourcePoint" />
            <mxPoint x="159" y="120.5" as="targetPoint" />
          </mxGeometry>
        </mxCell>
        <mxCell id="8PcCxP_mvk3ULI95nzKc-110" value="" style="shape=waypoint;sketch=0;fillStyle=solid;size=6;pointerEvents=1;points=[];fillColor=#dae8fc;resizable=0;rotatable=0;perimeter=centerPerimeter;snapToPoint=1;strokeColor=#3333FF;fontSize=10;strokeWidth=0;" parent="1" vertex="1">
          <mxGeometry x="150" y="111" width="20" height="20" as="geometry" />
        </mxCell>
        <mxCell id="8PcCxP_mvk3ULI95nzKc-111" style="edgeStyle=orthogonalEdgeStyle;rounded=0;orthogonalLoop=1;jettySize=auto;html=1;" parent="1" source="8PcCxP_mvk3ULI95nzKc-110" target="8PcCxP_mvk3ULI95nzKc-110" edge="1">
          <mxGeometry relative="1" as="geometry" />
        </mxCell>
        <mxCell id="8PcCxP_mvk3ULI95nzKc-112" value="" style="shape=waypoint;sketch=0;fillStyle=solid;size=6;pointerEvents=1;points=[];fillColor=#dae8fc;resizable=0;rotatable=0;perimeter=centerPerimeter;snapToPoint=1;strokeColor=#3333FF;fontSize=10;strokeWidth=0;" parent="1" vertex="1">
          <mxGeometry x="191" y="140" width="20" height="20" as="geometry" />
        </mxCell>
        <mxCell id="8PcCxP_mvk3ULI95nzKc-113" value="" style="shape=waypoint;sketch=0;fillStyle=solid;size=6;pointerEvents=1;points=[];fillColor=#dae8fc;resizable=0;rotatable=0;perimeter=centerPerimeter;snapToPoint=1;strokeColor=#3333FF;fontSize=10;strokeWidth=0;" parent="1" vertex="1">
          <mxGeometry x="206" y="151" width="20" height="20" as="geometry" />
        </mxCell>
        <mxCell id="8PcCxP_mvk3ULI95nzKc-114" value="" style="shape=waypoint;sketch=0;fillStyle=solid;size=6;pointerEvents=1;points=[];fillColor=#dae8fc;resizable=0;rotatable=0;perimeter=centerPerimeter;snapToPoint=1;strokeColor=#3333FF;fontSize=10;strokeWidth=0;" parent="1" vertex="1">
          <mxGeometry x="262" y="191" width="20" height="20" as="geometry" />
        </mxCell>
        <mxCell id="8PcCxP_mvk3ULI95nzKc-117" value="" style="shape=waypoint;sketch=0;fillStyle=solid;size=6;pointerEvents=1;points=[];fillColor=#dae8fc;resizable=0;rotatable=0;perimeter=centerPerimeter;snapToPoint=1;strokeColor=#3333FF;fontSize=10;strokeWidth=0;" parent="1" vertex="1">
          <mxGeometry x="230" y="168" width="20" height="20" as="geometry" />
        </mxCell>
      </root>
    </mxGraphModel>
  </diagram>
  <diagram id="UMZnf8arbgWoSRIYFrEE" name="Page-8">
    <mxGraphModel dx="457" dy="232" grid="1" gridSize="10" guides="1" tooltips="1" connect="1" arrows="1" fold="1" page="1" pageScale="1" pageWidth="1169" pageHeight="827" math="0" shadow="0">
      <root>
        <mxCell id="0" />
        <mxCell id="1" parent="0" />
        <mxCell id="UpAem2QFjTPuIp3szdqg-1" value="" style="shape=table;startSize=0;container=1;collapsible=0;childLayout=tableLayout;strokeColor=#B5B5B5;" vertex="1" parent="1">
          <mxGeometry x="40" y="40" width="200" height="160" as="geometry" />
        </mxCell>
        <mxCell id="UpAem2QFjTPuIp3szdqg-2" value="" style="shape=tableRow;horizontal=0;startSize=0;swimlaneHead=0;swimlaneBody=0;strokeColor=inherit;top=0;left=0;bottom=0;right=0;collapsible=0;dropTarget=0;fillColor=none;points=[[0,0.5],[1,0.5]];portConstraint=eastwest;" vertex="1" parent="UpAem2QFjTPuIp3szdqg-1">
          <mxGeometry width="200" height="40" as="geometry" />
        </mxCell>
        <mxCell id="UpAem2QFjTPuIp3szdqg-3" value="" style="shape=partialRectangle;html=1;whiteSpace=wrap;connectable=0;strokeColor=inherit;overflow=hidden;fillColor=none;top=0;left=0;bottom=0;right=0;pointerEvents=1;" vertex="1" parent="UpAem2QFjTPuIp3szdqg-2">
          <mxGeometry width="40" height="40" as="geometry">
            <mxRectangle width="40" height="40" as="alternateBounds" />
          </mxGeometry>
        </mxCell>
        <mxCell id="UpAem2QFjTPuIp3szdqg-4" value="" style="shape=partialRectangle;html=1;whiteSpace=wrap;connectable=0;strokeColor=inherit;overflow=hidden;fillColor=none;top=0;left=0;bottom=0;right=0;pointerEvents=1;" vertex="1" parent="UpAem2QFjTPuIp3szdqg-2">
          <mxGeometry x="40" width="40" height="40" as="geometry">
            <mxRectangle width="40" height="40" as="alternateBounds" />
          </mxGeometry>
        </mxCell>
        <mxCell id="UpAem2QFjTPuIp3szdqg-5" value="" style="shape=partialRectangle;html=1;whiteSpace=wrap;connectable=0;strokeColor=inherit;overflow=hidden;fillColor=none;top=0;left=0;bottom=0;right=0;pointerEvents=1;" vertex="1" parent="UpAem2QFjTPuIp3szdqg-2">
          <mxGeometry x="80" width="40" height="40" as="geometry">
            <mxRectangle width="40" height="40" as="alternateBounds" />
          </mxGeometry>
        </mxCell>
        <mxCell id="UpAem2QFjTPuIp3szdqg-6" value="" style="shape=partialRectangle;html=1;whiteSpace=wrap;connectable=0;strokeColor=inherit;overflow=hidden;fillColor=none;top=0;left=0;bottom=0;right=0;pointerEvents=1;" vertex="1" parent="UpAem2QFjTPuIp3szdqg-2">
          <mxGeometry x="120" width="40" height="40" as="geometry">
            <mxRectangle width="40" height="40" as="alternateBounds" />
          </mxGeometry>
        </mxCell>
        <mxCell id="UpAem2QFjTPuIp3szdqg-7" value="" style="shape=partialRectangle;html=1;whiteSpace=wrap;connectable=0;strokeColor=inherit;overflow=hidden;fillColor=none;top=0;left=0;bottom=0;right=0;pointerEvents=1;" vertex="1" parent="UpAem2QFjTPuIp3szdqg-2">
          <mxGeometry x="160" width="40" height="40" as="geometry">
            <mxRectangle width="40" height="40" as="alternateBounds" />
          </mxGeometry>
        </mxCell>
        <mxCell id="UpAem2QFjTPuIp3szdqg-8" value="" style="shape=tableRow;horizontal=0;startSize=0;swimlaneHead=0;swimlaneBody=0;strokeColor=inherit;top=0;left=0;bottom=0;right=0;collapsible=0;dropTarget=0;fillColor=none;points=[[0,0.5],[1,0.5]];portConstraint=eastwest;" vertex="1" parent="UpAem2QFjTPuIp3szdqg-1">
          <mxGeometry y="40" width="200" height="40" as="geometry" />
        </mxCell>
        <mxCell id="UpAem2QFjTPuIp3szdqg-9" value="" style="shape=partialRectangle;html=1;whiteSpace=wrap;connectable=0;strokeColor=inherit;overflow=hidden;fillColor=none;top=0;left=0;bottom=0;right=0;pointerEvents=1;" vertex="1" parent="UpAem2QFjTPuIp3szdqg-8">
          <mxGeometry width="40" height="40" as="geometry">
            <mxRectangle width="40" height="40" as="alternateBounds" />
          </mxGeometry>
        </mxCell>
        <mxCell id="UpAem2QFjTPuIp3szdqg-10" value="" style="shape=partialRectangle;html=1;whiteSpace=wrap;connectable=0;strokeColor=inherit;overflow=hidden;fillColor=none;top=0;left=0;bottom=0;right=0;pointerEvents=1;" vertex="1" parent="UpAem2QFjTPuIp3szdqg-8">
          <mxGeometry x="40" width="40" height="40" as="geometry">
            <mxRectangle width="40" height="40" as="alternateBounds" />
          </mxGeometry>
        </mxCell>
        <mxCell id="UpAem2QFjTPuIp3szdqg-11" value="" style="shape=partialRectangle;html=1;whiteSpace=wrap;connectable=0;strokeColor=inherit;overflow=hidden;fillColor=none;top=0;left=0;bottom=0;right=0;pointerEvents=1;" vertex="1" parent="UpAem2QFjTPuIp3szdqg-8">
          <mxGeometry x="80" width="40" height="40" as="geometry">
            <mxRectangle width="40" height="40" as="alternateBounds" />
          </mxGeometry>
        </mxCell>
        <mxCell id="UpAem2QFjTPuIp3szdqg-12" value="" style="shape=partialRectangle;html=1;whiteSpace=wrap;connectable=0;strokeColor=inherit;overflow=hidden;fillColor=none;top=0;left=0;bottom=0;right=0;pointerEvents=1;" vertex="1" parent="UpAem2QFjTPuIp3szdqg-8">
          <mxGeometry x="120" width="40" height="40" as="geometry">
            <mxRectangle width="40" height="40" as="alternateBounds" />
          </mxGeometry>
        </mxCell>
        <mxCell id="UpAem2QFjTPuIp3szdqg-13" value="" style="shape=partialRectangle;html=1;whiteSpace=wrap;connectable=0;strokeColor=inherit;overflow=hidden;fillColor=none;top=0;left=0;bottom=0;right=0;pointerEvents=1;" vertex="1" parent="UpAem2QFjTPuIp3szdqg-8">
          <mxGeometry x="160" width="40" height="40" as="geometry">
            <mxRectangle width="40" height="40" as="alternateBounds" />
          </mxGeometry>
        </mxCell>
        <mxCell id="UpAem2QFjTPuIp3szdqg-14" value="" style="shape=tableRow;horizontal=0;startSize=0;swimlaneHead=0;swimlaneBody=0;strokeColor=inherit;top=0;left=0;bottom=0;right=0;collapsible=0;dropTarget=0;fillColor=none;points=[[0,0.5],[1,0.5]];portConstraint=eastwest;" vertex="1" parent="UpAem2QFjTPuIp3szdqg-1">
          <mxGeometry y="80" width="200" height="40" as="geometry" />
        </mxCell>
        <mxCell id="UpAem2QFjTPuIp3szdqg-15" value="" style="shape=partialRectangle;html=1;whiteSpace=wrap;connectable=0;strokeColor=inherit;overflow=hidden;fillColor=none;top=0;left=0;bottom=0;right=0;pointerEvents=1;" vertex="1" parent="UpAem2QFjTPuIp3szdqg-14">
          <mxGeometry width="40" height="40" as="geometry">
            <mxRectangle width="40" height="40" as="alternateBounds" />
          </mxGeometry>
        </mxCell>
        <mxCell id="UpAem2QFjTPuIp3szdqg-16" value="" style="shape=partialRectangle;html=1;whiteSpace=wrap;connectable=0;strokeColor=inherit;overflow=hidden;fillColor=none;top=0;left=0;bottom=0;right=0;pointerEvents=1;" vertex="1" parent="UpAem2QFjTPuIp3szdqg-14">
          <mxGeometry x="40" width="40" height="40" as="geometry">
            <mxRectangle width="40" height="40" as="alternateBounds" />
          </mxGeometry>
        </mxCell>
        <mxCell id="UpAem2QFjTPuIp3szdqg-17" value="" style="shape=partialRectangle;html=1;whiteSpace=wrap;connectable=0;strokeColor=inherit;overflow=hidden;fillColor=none;top=0;left=0;bottom=0;right=0;pointerEvents=1;" vertex="1" parent="UpAem2QFjTPuIp3szdqg-14">
          <mxGeometry x="80" width="40" height="40" as="geometry">
            <mxRectangle width="40" height="40" as="alternateBounds" />
          </mxGeometry>
        </mxCell>
        <mxCell id="UpAem2QFjTPuIp3szdqg-18" value="" style="shape=partialRectangle;html=1;whiteSpace=wrap;connectable=0;strokeColor=inherit;overflow=hidden;fillColor=none;top=0;left=0;bottom=0;right=0;pointerEvents=1;" vertex="1" parent="UpAem2QFjTPuIp3szdqg-14">
          <mxGeometry x="120" width="40" height="40" as="geometry">
            <mxRectangle width="40" height="40" as="alternateBounds" />
          </mxGeometry>
        </mxCell>
        <mxCell id="UpAem2QFjTPuIp3szdqg-19" value="" style="shape=partialRectangle;html=1;whiteSpace=wrap;connectable=0;strokeColor=#314354;overflow=hidden;fillColor=#647687;top=0;left=0;bottom=0;right=0;pointerEvents=1;fontColor=#ffffff;" vertex="1" parent="UpAem2QFjTPuIp3szdqg-14">
          <mxGeometry x="160" width="40" height="40" as="geometry">
            <mxRectangle width="40" height="40" as="alternateBounds" />
          </mxGeometry>
        </mxCell>
        <mxCell id="UpAem2QFjTPuIp3szdqg-20" style="shape=tableRow;horizontal=0;startSize=0;swimlaneHead=0;swimlaneBody=0;strokeColor=inherit;top=0;left=0;bottom=0;right=0;collapsible=0;dropTarget=0;fillColor=none;points=[[0,0.5],[1,0.5]];portConstraint=eastwest;" vertex="1" parent="UpAem2QFjTPuIp3szdqg-1">
          <mxGeometry y="120" width="200" height="40" as="geometry" />
        </mxCell>
        <mxCell id="UpAem2QFjTPuIp3szdqg-21" style="shape=partialRectangle;html=1;whiteSpace=wrap;connectable=0;strokeColor=inherit;overflow=hidden;fillColor=none;top=0;left=0;bottom=0;right=0;pointerEvents=1;" vertex="1" parent="UpAem2QFjTPuIp3szdqg-20">
          <mxGeometry width="40" height="40" as="geometry">
            <mxRectangle width="40" height="40" as="alternateBounds" />
          </mxGeometry>
        </mxCell>
        <mxCell id="UpAem2QFjTPuIp3szdqg-22" style="shape=partialRectangle;html=1;whiteSpace=wrap;connectable=0;strokeColor=inherit;overflow=hidden;fillColor=none;top=0;left=0;bottom=0;right=0;pointerEvents=1;" vertex="1" parent="UpAem2QFjTPuIp3szdqg-20">
          <mxGeometry x="40" width="40" height="40" as="geometry">
            <mxRectangle width="40" height="40" as="alternateBounds" />
          </mxGeometry>
        </mxCell>
        <mxCell id="UpAem2QFjTPuIp3szdqg-23" style="shape=partialRectangle;html=1;whiteSpace=wrap;connectable=0;strokeColor=inherit;overflow=hidden;fillColor=none;top=0;left=0;bottom=0;right=0;pointerEvents=1;" vertex="1" parent="UpAem2QFjTPuIp3szdqg-20">
          <mxGeometry x="80" width="40" height="40" as="geometry">
            <mxRectangle width="40" height="40" as="alternateBounds" />
          </mxGeometry>
        </mxCell>
        <mxCell id="UpAem2QFjTPuIp3szdqg-24" style="shape=partialRectangle;html=1;whiteSpace=wrap;connectable=0;strokeColor=inherit;overflow=hidden;fillColor=none;top=0;left=0;bottom=0;right=0;pointerEvents=1;" vertex="1" parent="UpAem2QFjTPuIp3szdqg-20">
          <mxGeometry x="120" width="40" height="40" as="geometry">
            <mxRectangle width="40" height="40" as="alternateBounds" />
          </mxGeometry>
        </mxCell>
        <mxCell id="UpAem2QFjTPuIp3szdqg-25" style="shape=partialRectangle;html=1;whiteSpace=wrap;connectable=0;strokeColor=#314354;overflow=hidden;fillColor=#647687;top=0;left=0;bottom=0;right=0;pointerEvents=1;fontColor=#ffffff;" vertex="1" parent="UpAem2QFjTPuIp3szdqg-20">
          <mxGeometry x="160" width="40" height="40" as="geometry">
            <mxRectangle width="40" height="40" as="alternateBounds" />
          </mxGeometry>
        </mxCell>
        <mxCell id="UpAem2QFjTPuIp3szdqg-26" value="" style="endArrow=classic;html=1;rounded=0;startSize=3;movable=1;resizable=1;rotatable=1;deletable=1;editable=1;locked=0;connectable=1;endSize=2;" edge="1" parent="1" source="UpAem2QFjTPuIp3szdqg-28">
          <mxGeometry width="50" height="50" relative="1" as="geometry">
            <mxPoint x="93" y="113.99999999999997" as="sourcePoint" />
            <mxPoint x="145" y="128" as="targetPoint" />
          </mxGeometry>
        </mxCell>
        <mxCell id="UpAem2QFjTPuIp3szdqg-27" value="" style="endArrow=baseDash;html=1;rounded=0;startSize=3;movable=1;resizable=1;rotatable=1;deletable=1;editable=1;locked=0;connectable=1;endSize=2;endFill=0;" edge="1" parent="1">
          <mxGeometry width="50" height="50" relative="1" as="geometry">
            <mxPoint x="145" y="128.00000000000003" as="sourcePoint" />
            <mxPoint x="117" y="142" as="targetPoint" />
          </mxGeometry>
        </mxCell>
        <mxCell id="UpAem2QFjTPuIp3szdqg-28" value="" style="shape=waypoint;sketch=0;fillStyle=solid;size=6;pointerEvents=1;points=[];fillColor=#e51400;resizable=0;rotatable=0;perimeter=centerPerimeter;snapToPoint=1;fontColor=#ffffff;strokeColor=#B20000;" vertex="1" parent="1">
          <mxGeometry x="120" y="90" width="20" height="20" as="geometry" />
        </mxCell>
        <mxCell id="UpAem2QFjTPuIp3szdqg-29" value="" style="group;fontFamily=Times New Roman;" vertex="1" connectable="0" parent="1">
          <mxGeometry x="123" y="116" width="20" height="10" as="geometry" />
        </mxCell>
        <mxCell id="UpAem2QFjTPuIp3szdqg-30" value="" style="group" vertex="1" connectable="0" parent="UpAem2QFjTPuIp3szdqg-29">
          <mxGeometry width="20" height="10" as="geometry" />
        </mxCell>
        <mxCell id="UpAem2QFjTPuIp3szdqg-31" value="&lt;font face=&quot;Times New Roman&quot;&gt;d&lt;/font&gt;" style="text;html=1;strokeColor=none;fillColor=none;align=center;verticalAlign=middle;whiteSpace=wrap;rounded=0;" vertex="1" parent="UpAem2QFjTPuIp3szdqg-30">
          <mxGeometry width="20" height="10" as="geometry" />
        </mxCell>
        <mxCell id="UpAem2QFjTPuIp3szdqg-32" value="" style="endArrow=classicThin;html=1;rounded=0;endFill=1;endSize=0;startSize=0;strokeWidth=1;" edge="1" parent="UpAem2QFjTPuIp3szdqg-30">
          <mxGeometry width="50" height="50" relative="1" as="geometry">
            <mxPoint x="6" as="sourcePoint" />
            <mxPoint x="14" as="targetPoint" />
          </mxGeometry>
        </mxCell>
        <mxCell id="UpAem2QFjTPuIp3szdqg-33" value="" style="endArrow=none;html=1;rounded=0;startSize=3;movable=1;resizable=1;rotatable=1;deletable=1;editable=1;locked=0;connectable=1;endSize=2;endFill=0;startArrow=baseDash;startFill=0;" edge="1" parent="1">
          <mxGeometry width="50" height="50" relative="1" as="geometry">
            <mxPoint x="173" y="114.00000000000003" as="sourcePoint" />
            <mxPoint x="145" y="128" as="targetPoint" />
          </mxGeometry>
        </mxCell>
        <mxCell id="UpAem2QFjTPuIp3szdqg-34" value="" style="endArrow=none;dashed=1;html=1;rounded=0;entryX=0.658;entryY=0.5;entryDx=0;entryDy=0;entryPerimeter=0;" edge="1" parent="1" target="UpAem2QFjTPuIp3szdqg-28">
          <mxGeometry width="50" height="50" relative="1" as="geometry">
            <mxPoint x="200" y="150" as="sourcePoint" />
            <mxPoint x="220" y="100" as="targetPoint" />
          </mxGeometry>
        </mxCell>
        <mxCell id="UpAem2QFjTPuIp3szdqg-41" value="" style="endArrow=classic;html=1;rounded=0;entryX=0.332;entryY=1.014;entryDx=0;entryDy=0;entryPerimeter=0;exitX=0.55;exitY=1.287;exitDx=0;exitDy=0;exitPerimeter=0;endSize=2;" edge="1" parent="1">
          <mxGeometry width="50" height="50" relative="1" as="geometry">
            <mxPoint x="154" y="117.15" as="sourcePoint" />
            <mxPoint x="159" y="120.85" as="targetPoint" />
          </mxGeometry>
        </mxCell>
        <mxCell id="UpAem2QFjTPuIp3szdqg-45" value="" style="group" vertex="1" connectable="0" parent="1">
          <mxGeometry x="140" y="102" width="20" height="11" as="geometry" />
        </mxCell>
        <mxCell id="UpAem2QFjTPuIp3szdqg-46" value="" style="group;fontFamily=Times New Roman;" vertex="1" connectable="0" parent="UpAem2QFjTPuIp3szdqg-45">
          <mxGeometry width="20" height="10" as="geometry" />
        </mxCell>
        <mxCell id="UpAem2QFjTPuIp3szdqg-47" value="&lt;font face=&quot;Times New Roman&quot;&gt;d&lt;/font&gt;" style="text;html=1;strokeColor=none;fillColor=none;align=center;verticalAlign=middle;whiteSpace=wrap;rounded=0;" vertex="1" parent="UpAem2QFjTPuIp3szdqg-46">
          <mxGeometry width="20" height="10" as="geometry" />
        </mxCell>
        <mxCell id="UpAem2QFjTPuIp3szdqg-48" value="" style="endArrow=classicThin;html=1;rounded=0;endFill=1;endSize=0;startSize=0;strokeWidth=1;" edge="1" parent="UpAem2QFjTPuIp3szdqg-46">
          <mxGeometry width="50" height="50" relative="1" as="geometry">
            <mxPoint x="6" as="sourcePoint" />
            <mxPoint x="14" as="targetPoint" />
          </mxGeometry>
        </mxCell>
        <mxCell id="UpAem2QFjTPuIp3szdqg-49" value="&lt;font style=&quot;font-size: 7px;&quot;&gt;i&lt;/font&gt;" style="text;html=1;strokeColor=none;fillColor=none;align=center;verticalAlign=middle;whiteSpace=wrap;rounded=0;fontFamily=Times New Roman;" vertex="1" parent="UpAem2QFjTPuIp3szdqg-45">
          <mxGeometry x="12" y="1" width="4" height="10" as="geometry" />
        </mxCell>
        <mxCell id="ZaandryQ4XhqxN_GVKQb-1" value="" style="verticalLabelPosition=bottom;shadow=0;dashed=0;align=center;html=1;verticalAlign=top;strokeWidth=1;shape=mxgraph.mockup.markup.curlyBrace;whiteSpace=wrap;strokeColor=#000000;rotation=90;" vertex="1" parent="1">
          <mxGeometry x="187" y="132.5" width="30" height="5" as="geometry" />
        </mxCell>
        <mxCell id="ZaandryQ4XhqxN_GVKQb-4" value="&lt;font face=&quot;Times New Roman&quot;&gt;t&lt;/font&gt;" style="text;html=1;strokeColor=none;fillColor=none;align=center;verticalAlign=middle;whiteSpace=wrap;rounded=0;" vertex="1" parent="1">
          <mxGeometry x="200" y="130" width="20" height="10" as="geometry" />
        </mxCell>
      </root>
    </mxGraphModel>
  </diagram>
</mxfile>
